P3
# Created by GIMP version 2.10.28 PNM plug-in
27 49
255
255
255
255
255
255
255
255
255
255
255
255
255
255
255
255
255
255
255
255
255
255
255
255
255
112
0
0
224
0
0
252
0
0
252
92
92
252
0
0
224
0
0
224
0
0
224
0
0
168
0
0
168
0
0
168
0
0
112
0
0
255
255
255
255
255
255
255
255
255
255
255
255
255
255
255
255
255
255
255
255
255
255
255
255
255
255
255
255
255
255
255
255
255
255
255
255
255
255
255
255
255
255
255
255
255
0
88
88
0
0
0
0
140
140
0
140
140
0
152
152
216
252
252
216
252
252
0
152
152
0
140
140
0
88
88
0
64
64
0
88
88
255
255
255
255
255
255
255
255
255
255
255
255
255
255
255
255
255
255
255
255
255
255
255
255
255
255
255
255
255
255
255
255
255
255
255
255
255
255
255
255
255
255
255
255
255
0
88
88
0
0
168
0
0
168
0
0
0
0
0
0
0
0
0
0
0
0
0
0
0
0
0
0
0
0
0
0
0
0
0
88
88
255
255
255
255
255
255
255
255
255
255
255
255
255
255
255
255
255
255
255
255
255
255
255
255
255
255
255
255
255
255
255
255
255
255
255
255
255
255
255
255
255
255
255
255
255
255
255
255
0
88
88
0
132
132
72
192
192
32
176
176
0
140
140
0
88
88
0
88
88
0
88
88
0
88
88
0
88
88
255
255
255
255
255
255
255
255
255
255
255
255
255
255
255
255
255
255
255
255
255
255
255
255
255
255
255
255
255
255
255
255
255
255
255
255
255
255
255
255
255
255
255
255
255
255
255
255
255
255
255
92
64
32
0
88
88
0
88
88
0
88
88
0
88
88
0
112
112
0
112
112
0
88
88
0
88
88
92
64
32
255
255
255
255
255
255
255
255
255
255
255
255
255
255
255
255
255
255
255
255
255
255
255
255
255
255
255
255
255
255
255
255
255
255
255
255
255
255
255
255
255
255
255
255
255
255
255
255
255
255
255
144
92
52
132
132
0
156
96
56
0
0
176
136
88
48
136
88
48
0
0
176
156
96
56
132
132
0
144
92
52
255
255
255
255
255
255
255
255
255
255
255
255
255
255
255
255
255
255
255
255
255
255
255
255
255
255
255
255
255
255
255
255
255
255
255
255
255
255
255
255
255
255
255
255
255
255
255
255
255
255
255
255
255
255
188
120
72
252
184
144
252
184
144
240
148
92
168
104
64
252
184
144
252
184
144
188
120
72
255
255
255
255
255
255
255
255
255
255
255
255
255
255
255
255
255
255
255
255
255
255
255
255
255
255
255
255
255
255
255
255
255
255
255
255
255
255
255
255
255
255
255
255
255
255
255
255
255
255
255
255
255
255
255
255
255
136
88
48
252
156
96
240
148
92
232
140
88
232
140
88
240
148
92
252
156
96
136
88
48
255
255
255
255
255
255
255
255
255
255
255
255
255
255
255
255
255
255
255
255
255
255
255
255
255
255
255
255
255
255
255
255
255
255
255
255
255
255
255
255
255
255
255
255
255
255
255
255
255
255
255
255
255
255
0
0
0
128
80
44
200
124
76
32
176
176
156
220
220
156
220
220
32
176
176
200
124
76
128
80
44
0
0
0
255
255
255
255
255
255
255
255
255
255
255
255
255
255
255
255
255
255
255
255
255
255
255
255
255
255
255
255
255
255
255
255
255
255
255
255
255
255
255
255
255
255
255
255
255
255
255
255
255
255
255
0
64
64
128
80
44
200
124
76
232
140
88
232
140
88
232
140
88
232
140
88
200
124
76
128
80
44
0
0
0
255
255
255
255
255
255
255
255
255
255
255
255
255
255
255
255
255
255
255
255
255
255
255
255
255
255
255
255
255
255
255
255
255
255
255
255
255
255
255
255
255
255
255
255
255
0
140
140
0
112
112
0
64
64
0
88
88
144
92
52
144
92
52
144
92
52
144
92
52
144
92
52
92
64
32
84
60
28
0
140
140
0
0
0
0
124
124
255
255
255
255
255
255
255
255
255
255
255
255
255
255
255
255
255
255
255
255
255
255
255
255
255
255
255
255
255
255
255
255
255
255
255
255
116
200
200
216
252
252
0
140
140
0
64
64
0
88
88
32
180
180
0
64
64
0
0
0
0
0
0
0
0
0
0
0
0
32
176
176
0
0
0
0
164
164
0
164
164
0
164
164
0
124
124
255
255
255
255
255
255
255
255
255
255
255
255
255
255
255
255
255
255
255
255
255
255
255
255
116
200
200
116
200
200
216
252
252
216
252
252
32
180
180
0
64
64
0
64
64
0
64
64
0
0
0
0
112
112
0
112
112
0
0
0
0
0
0
0
0
0
0
152
152
156
220
220
156
220
220
116
200
200
116
200
200
32
180
180
255
255
255
255
255
255
255
255
255
255
255
255
255
255
255
255
255
255
116
200
200
116
200
200
216
252
252
156
220
220
156
220
220
216
252
252
0
140
140
0
64
64
0
0
0
0
152
152
0
152
152
72
192
192
0
152
152
0
152
152
0
152
152
72
192
192
72
192
192
72
192
192
116
200
200
116
200
200
116
200
200
32
180
180
255
255
255
255
255
255
255
255
255
255
255
255
116
200
200
216
252
252
216
252
252
216
252
252
156
220
220
32
180
180
72
192
192
72
192
192
0
124
124
0
64
64
0
112
112
72
192
192
0
152
152
72
192
192
156
220
220
156
220
220
156
220
220
156
220
220
72
192
192
0
152
152
0
164
164
116
200
200
116
200
200
32
180
180
255
255
255
255
255
255
116
200
200
216
252
252
216
252
252
216
252
252
116
200
200
32
176
176
0
164
164
72
192
192
72
192
192
0
140
140
0
64
64
0
64
64
0
112
112
0
140
140
72
192
192
0
140
140
0
140
140
0
140
140
0
140
140
32
180
180
0
124
124
0
164
164
32
180
180
116
200
200
32
180
180
255
255
255
255
255
255
216
252
252
216
252
252
116
200
200
116
200
200
32
176
176
0
140
140
0
88
88
0
164
164
72
192
192
72
192
192
0
140
140
0
64
64
0
64
64
0
112
112
0
140
140
0
152
152
72
192
192
72
192
192
0
164
164
32
180
180
0
124
124
0
164
164
32
180
180
116
200
200
116
200
200
32
180
180
116
200
200
216
252
252
156
220
220
116
200
200
32
176
176
0
140
140
255
255
255
0
132
132
0
132
132
0
132
132
0
132
132
32
180
180
0
140
140
0
64
64
0
64
64
0
64
64
0
132
132
72
192
192
72
192
192
0
164
164
0
164
164
0
124
124
0
164
164
184
232
232
184
232
232
116
200
200
32
180
180
216
252
252
156
220
220
216
252
252
216
252
252
216
252
252
255
255
255
255
255
255
0
88
88
0
88
88
0
152
152
0
152
152
0
132
132
0
152
152
0
132
132
0
64
64
0
64
64
0
64
64
0
164
164
0
164
164
0
140
140
0
88
88
255
255
255
116
200
200
0
132
132
0
164
164
116
200
200
32
180
180
32
176
176
156
220
220
216
252
252
216
252
252
216
252
252
216
252
252
255
255
255
255
255
255
0
88
88
0
88
88
0
132
132
0
88
88
0
132
132
0
132
132
0
88
88
0
64
64
0
64
64
0
64
64
0
132
132
0
140
140
0
88
88
255
255
255
0
88
88
0
164
164
116
200
200
116
200
200
32
180
180
255
255
255
32
176
176
216
252
252
216
252
252
116
200
200
116
200
200
255
255
255
255
255
255
0
0
0
0
0
0
0
64
64
0
64
64
0
64
64
252
252
84
252
168
92
252
168
92
0
64
64
0
64
64
0
64
64
0
0
0
0
0
0
255
255
255
255
255
255
0
164
164
116
200
200
116
200
200
32
180
180
255
255
255
255
255
255
32
176
176
116
200
200
252
156
96
252
156
96
252
156
96
252
156
96
184
232
232
184
232
232
184
232
232
0
64
64
0
64
64
252
120
0
168
84
0
108
72
36
0
64
64
0
64
64
0
64
64
0
0
0
0
0
0
255
255
255
255
255
255
0
164
164
116
200
200
32
180
180
0
164
164
255
255
255
255
255
255
255
255
255
32
176
176
252
156
96
252
156
96
0
64
64
0
64
64
0
112
112
32
180
180
184
232
232
184
232
232
0
140
140
0
140
140
0
112
112
0
140
140
0
140
140
0
140
140
0
140
140
0
124
124
0
112
112
255
255
255
255
255
255
0
164
164
116
200
200
116
200
200
32
180
180
255
255
255
255
255
255
255
255
255
255
255
255
160
100
60
188
120
72
0
64
64
0
64
64
0
64
64
0
112
112
0
140
140
184
232
232
184
232
232
32
176
176
0
164
164
32
180
180
32
176
176
0
152
152
0
152
152
0
140
140
0
132
132
0
124
124
255
255
255
252
156
96
252
156
96
252
156
96
168
104
64
255
255
255
255
255
255
255
255
255
255
255
255
255
255
255
160
100
60
0
64
64
0
64
64
0
64
64
0
64
64
0
112
112
0
112
112
32
176
176
184
232
232
0
164
164
0
152
152
32
176
176
0
152
152
0
164
164
0
140
140
0
132
132
0
124
124
255
255
255
252
156
96
168
104
64
252
156
96
168
104
64
255
255
255
255
255
255
255
255
255
255
255
255
255
255
255
255
255
255
255
255
255
0
64
64
0
64
64
0
64
64
0
112
112
0
112
112
0
112
112
0
112
112
0
112
112
0
140
140
32
176
176
0
152
152
0
164
164
0
140
140
0
132
132
0
124
124
255
255
255
255
255
255
255
255
255
252
156
96
168
104
64
255
255
255
255
255
255
255
255
255
255
255
255
255
255
255
255
255
255
255
255
255
0
140
140
0
112
112
0
112
112
0
108
108
0
140
140
0
140
140
0
112
112
0
112
112
0
132
132
32
176
176
0
152
152
32
176
176
0
140
140
0
132
132
0
124
124
255
255
255
255
255
255
255
255
255
168
104
64
168
104
64
255
255
255
255
255
255
255
255
255
255
255
255
255
255
255
255
255
255
255
255
255
0
140
140
32
180
180
32
180
180
32
180
180
0
164
164
0
152
152
0
124
124
0
112
112
0
88
88
0
132
132
0
132
132
0
132
132
0
132
132
0
88
88
0
112
112
255
255
255
255
255
255
255
255
255
255
255
255
168
104
64
255
255
255
255
255
255
255
255
255
255
255
255
255
255
255
255
255
255
255
255
255
32
176
176
72
192
192
184
232
232
32
180
180
32
180
180
0
152
152
0
132
132
0
88
88
0
140
140
0
140
140
32
176
176
32
176
176
32
176
176
0
164
164
0
132
132
255
255
255
255
255
255
255
255
255
255
255
255
255
255
255
255
255
255
255
255
255
255
255
255
255
255
255
255
255
255
255
255
255
0
164
164
32
176
176
184
232
232
184
232
232
72
192
192
32
176
176
0
140
140
0
132
132
0
88
88
0
132
132
32
180
180
156
220
220
72
192
192
72
192
192
0
164
164
0
132
132
255
255
255
255
255
255
255
255
255
255
255
255
255
255
255
255
255
255
255
255
255
255
255
255
255
255
255
255
255
255
255
255
255
0
164
164
72
192
192
184
232
232
184
232
232
72
192
192
32
176
176
0
140
140
0
124
124
0
88
88
0
152
152
32
180
180
156
220
220
116
200
200
72
192
192
0
164
164
0
140
140
255
255
255
255
255
255
255
255
255
255
255
255
255
255
255
255
255
255
255
255
255
255
255
255
255
255
255
255
255
255
255
255
255
0
164
164
184
232
232
184
232
232
116
200
200
32
180
180
32
176
176
0
140
140
0
124
124
0
88
88
0
152
152
32
180
180
156
220
220
156
220
220
156
220
220
32
180
180
0
140
140
255
255
255
255
255
255
255
255
255
255
255
255
255
255
255
255
255
255
255
255
255
255
255
255
255
255
255
255
255
255
255
255
255
32
180
180
184
232
232
184
232
232
116
200
200
32
180
180
32
176
176
0
140
140
0
88
88
0
88
88
0
152
152
32
180
180
156
220
220
156
220
220
156
220
220
32
180
180
0
152
152
255
255
255
255
255
255
255
255
255
255
255
255
255
255
255
255
255
255
255
255
255
255
255
255
255
255
255
255
255
255
255
255
255
116
200
200
184
232
232
184
232
232
184
232
232
116
200
200
0
152
152
0
140
140
0
88
88
255
255
255
0
152
152
32
180
180
156
220
220
156
220
220
156
220
220
72
192
192
0
164
164
255
255
255
255
255
255
255
255
255
255
255
255
255
255
255
255
255
255
255
255
255
255
255
255
255
255
255
255
255
255
116
200
200
116
200
200
184
232
232
156
220
220
156
220
220
116
200
200
0
140
140
0
140
140
0
88
88
255
255
255
0
152
152
72
192
192
156
220
220
156
220
220
156
220
220
72
192
192
0
164
164
255
255
255
255
255
255
255
255
255
255
255
255
255
255
255
255
255
255
255
255
255
255
255
255
255
255
255
255
255
255
116
200
200
32
180
180
32
180
180
32
180
180
32
180
180
184
232
232
0
164
164
0
124
124
0
88
88
255
255
255
0
152
152
72
192
192
156
220
220
156
220
220
156
220
220
32
180
180
0
164
164
0
132
132
255
255
255
255
255
255
255
255
255
255
255
255
255
255
255
255
255
255
255
255
255
255
255
255
255
255
255
32
180
180
32
180
180
32
180
180
32
180
180
32
180
180
0
164
164
0
88
88
0
112
112
0
88
88
255
255
255
0
152
152
72
192
192
0
152
152
216
252
252
184
232
232
32
176
176
32
180
180
0
132
132
255
255
255
255
255
255
255
255
255
255
255
255
255
255
255
255
255
255
255
255
255
255
255
255
255
255
255
0
140
140
32
180
180
32
180
180
32
180
180
0
152
152
0
140
140
0
124
124
0
88
88
255
255
255
255
255
255
255
255
255
0
132
132
32
180
180
32
176
176
32
176
176
0
152
152
0
152
152
0
112
112
255
255
255
255
255
255
255
255
255
255
255
255
255
255
255
255
255
255
255
255
255
255
255
255
255
255
255
0
140
140
0
140
140
0
164
164
0
164
164
0
140
140
0
88
88
0
88
88
0
64
64
255
255
255
255
255
255
255
255
255
0
112
112
0
152
152
0
152
152
0
152
152
0
152
152
0
132
132
0
88
88
255
255
255
255
255
255
255
255
255
255
255
255
255
255
255
255
255
255
255
255
255
255
255
255
255
255
255
0
0
44
0
88
88
0
112
112
0
112
112
0
112
112
0
88
88
0
0
0
255
255
255
255
255
255
255
255
255
255
255
255
0
132
132
0
132
132
0
124
124
0
88
88
0
112
112
0
88
88
0
108
108
255
255
255
255
255
255
255
255
255
255
255
255
255
255
255
255
255
255
255
255
255
255
255
255
255
255
255
0
0
44
0
0
44
0
0
52
0
0
44
0
0
28
0
0
28
0
0
0
255
255
255
255
255
255
255
255
255
255
255
255
0
0
52
0
0
52
0
0
44
0
0
0
0
0
28
0
0
0
255
255
255
255
255
255
255
255
255
255
255
255
255
255
255
255
255
255
255
255
255
255
255
255
255
255
255
255
255
255
0
0
44
0
0
44
0
0
52
0
0
44
0
0
28
0
0
28
0
0
0
255
255
255
255
255
255
255
255
255
255
255
255
0
0
52
0
0
52
0
0
44
0
0
28
0
0
28
0
0
0
255
255
255
255
255
255
255
255
255
255
255
255
255
255
255
255
255
255
255
255
255
255
255
255
255
255
255
255
255
255
255
255
255
0
0
52
0
0
52
0
0
44
0
0
28
0
0
28
0
0
0
255
255
255
255
255
255
255
255
255
255
255
255
0
0
52
0
0
52
0
0
44
0
0
28
0
0
28
0
0
0
255
255
255
255
255
255
255
255
255
255
255
255
255
255
255
255
255
255
255
255
255
255
255
255
255
255
255
255
255
255
255
255
255
0
0
44
0
0
0
0
0
0
0
0
0
0
0
0
255
255
255
255
255
255
255
255
255
255
255
255
255
255
255
0
0
0
0
0
0
0
0
44
0
0
44
0
0
28
0
0
0
255
255
255
255
255
255
255
255
255
255
255
255
255
255
255
255
255
255
255
255
255
255
255
255
255
255
255
255
255
255
255
255
255
0
0
44
0
0
44
0
0
44
0
0
28
0
0
28
0
0
44
255
255
255
255
255
255
255
255
255
255
255
255
255
255
255
0
0
0
0
0
0
0
0
0
0
0
0
0
0
0
255
255
255
255
255
255
255
255
255
255
255
255
255
255
255
255
255
255
255
255
255
255
255
255
255
255
255
255
255
255
255
255
255
0
0
44
0
0
52
0
0
52
0
0
44
0
0
28
0
0
0
255
255
255
255
255
255
255
255
255
255
255
255
255
255
255
0
0
52
0
0
52
0
0
28
0
0
0
255
255
255
255
255
255
255
255
255
255
255
255
255
255
255
255
255
255
255
255
255
255
255
255
255
255
255
255
255
255
255
255
255
0
0
44
0
0
52
0
0
44
0
0
44
0
0
44
0
0
28
0
0
0
255
255
255
255
255
255
255
255
255
255
255
255
0
0
52
0
0
52
0
0
52
0
0
52
0
0
28
0
0
0
255
255
255
255
255
255
255
255
255
255
255
255
255
255
255
255
255
255
255
255
255
255
255
255
255
255
255
255
255
255
0
0
44
0
0
52
0
0
44
0
0
44
0
0
44
0
64
64
0
0
0
255
255
255
255
255
255
255
255
255
255
255
255
0
0
52
0
0
52
0
0
52
0
0
52
0
0
44
0
0
28
0
0
0
255
255
255
255
255
255
255
255
255
255
255
255
255
255
255
255
255
255
255
255
255
255
255
255
255
255
255
255
255
255
0
0
44
0
0
44
0
0
44
0
0
44
0
0
44
255
255
255
255
255
255
255
255
255
255
255
255
255
255
255
0
0
0
0
0
44
0
0
44
0
0
28
0
0
28
0
0
28
0
0
0
255
255
255
255
255
255
255
255
255
255
255
255
