P3
# Created by GIMP version 2.10.28 PNM plug-in
27 49
255
255
255
255
255
255
255
255
255
255
255
255
255
255
255
255
255
255
255
255
255
255
255
255
255
255
255
255
255
255
255
255
255
255
255
255
255
255
255
255
255
255
255
255
255
255
255
255
255
255
255
255
255
255
255
255
255
255
255
255
255
255
255
255
255
255
255
255
255
255
255
255
255
255
255
255
255
255
255
255
255
255
255
255
255
255
255
255
255
255
255
255
255
255
255
255
255
255
255
255
255
255
255
255
255
255
255
255
255
255
255
255
255
255
255
255
255
255
255
255
255
255
255
255
255
255
255
255
255
255
255
255
255
255
255
255
255
255
255
255
255
255
255
255
255
255
255
255
255
255
255
255
255
255
255
255
255
255
255
255
255
255
255
255
255
255
255
255
255
255
255
255
255
255
255
255
255
255
255
255
255
255
255
255
255
255
255
112
0
0
224
0
0
0
0
188
0
0
188
0
0
124
0
0
124
0
0
124
0
0
100
0
0
100
0
0
100
112
0
0
0
108
108
255
255
255
255
255
255
255
255
255
255
255
255
255
255
255
255
255
255
255
255
255
255
255
255
255
255
255
255
255
255
255
255
255
255
255
255
255
255
255
255
255
255
255
255
255
0
88
88
0
0
168
168
0
0
168
0
0
168
0
0
168
0
0
168
0
0
168
0
0
168
0
0
168
0
0
0
64
64
0
64
64
255
255
255
255
255
255
255
255
255
255
255
255
255
255
255
255
255
255
255
255
255
255
255
255
255
255
255
255
255
255
255
255
255
255
255
255
255
255
255
255
255
255
255
255
255
0
88
88
0
0
168
0
0
168
0
88
88
0
88
88
0
88
88
0
132
132
0
132
132
0
88
88
0
88
88
0
0
0
0
64
64
255
255
255
255
255
255
255
255
255
255
255
255
255
255
255
255
255
255
255
255
255
255
255
255
255
255
255
255
255
255
255
255
255
255
255
255
255
255
255
255
255
255
255
255
255
255
255
255
156
156
0
112
108
0
0
112
112
0
64
64
0
64
64
0
64
64
0
64
64
0
64
64
0
64
64
0
64
64
255
255
255
255
255
255
255
255
255
255
255
255
255
255
255
255
255
255
255
255
255
255
255
255
255
255
255
255
255
255
255
255
255
255
255
255
255
255
255
255
255
255
255
255
255
255
255
255
255
255
255
156
156
0
252
156
96
132
132
0
0
88
88
0
112
112
0
112
112
0
88
88
0
108
108
0
108
108
64
64
0
255
255
255
255
255
255
255
255
255
255
255
255
255
255
255
255
255
255
255
255
255
255
255
255
255
255
255
255
255
255
255
255
255
255
255
255
255
255
255
255
255
255
255
255
255
255
255
255
255
255
255
88
84
0
252
156
96
188
120
72
156
96
56
0
0
176
136
88
48
136
88
48
92
64
32
108
72
36
84
60
28
255
255
255
255
255
255
255
255
255
255
255
255
255
255
255
255
255
255
255
255
255
255
255
255
255
255
255
255
255
255
255
255
255
255
255
255
255
255
255
255
255
255
255
255
255
255
255
255
255
255
255
255
255
255
188
120
72
252
184
144
252
184
144
156
220
220
0
132
132
208
128
80
208
128
80
188
120
72
84
60
28
255
255
255
255
255
255
255
255
255
255
255
255
255
255
255
255
255
255
255
255
255
255
255
255
255
255
255
255
255
255
255
255
255
255
255
255
255
255
255
255
255
255
255
255
255
255
255
255
255
255
255
0
0
0
136
88
48
252
156
96
72
192
192
0
64
64
0
64
64
0
132
132
208
128
80
136
88
48
0
0
0
255
255
255
255
255
255
255
255
255
255
255
255
255
255
255
255
255
255
255
255
255
255
255
255
255
255
255
255
255
255
255
255
255
255
255
255
255
255
255
255
255
255
255
255
255
255
255
255
255
255
255
0
0
0
128
80
44
200
124
76
72
192
192
0
64
64
0
64
64
0
124
124
200
124
76
128
80
44
0
0
0
255
255
255
255
255
255
255
255
255
255
255
255
255
255
255
255
255
255
255
255
255
255
255
255
255
255
255
255
255
255
255
255
255
255
255
255
255
255
255
255
255
255
32
180
180
156
220
220
156
220
220
32
180
180
32
180
180
156
220
220
0
112
112
0
132
132
0
132
132
0
112
112
156
220
220
156
220
220
156
220
220
156
220
220
156
220
220
255
255
255
255
255
255
255
255
255
255
255
255
255
255
255
255
255
255
255
255
255
255
255
255
255
255
255
255
255
255
255
255
255
32
180
180
156
220
220
156
220
220
156
220
220
156
220
220
156
220
220
252
184
144
252
184
144
252
184
144
208
128
80
160
100
60
0
164
164
0
164
164
156
220
220
156
220
220
156
220
220
32
180
180
255
255
255
255
255
255
255
255
255
255
255
255
255
255
255
255
255
255
255
255
255
255
255
255
255
255
255
255
255
255
32
180
180
156
220
220
156
220
220
156
220
220
156
220
220
156
220
220
252
184
144
252
184
144
208
128
80
160
100
60
160
100
60
0
140
140
0
164
164
0
164
164
32
180
180
32
180
180
32
180
180
255
255
255
255
255
255
255
255
255
255
255
255
255
255
255
255
255
255
255
255
255
255
255
255
255
255
255
255
255
255
255
255
255
72
192
192
72
192
192
32
176
176
32
176
176
0
164
164
252
184
144
252
184
144
208
128
80
160
100
60
160
100
60
0
140
140
0
140
140
0
164
164
0
164
164
0
152
152
0
132
132
255
255
255
255
255
255
255
255
255
255
255
255
255
255
255
255
255
255
255
255
255
255
255
255
255
255
255
255
255
255
255
255
255
32
180
180
0
164
164
0
164
164
0
140
140
0
124
124
0
64
64
0
112
112
0
140
140
0
152
152
116
200
200
116
200
200
32
180
180
0
152
152
0
124
124
0
88
88
0
88
88
255
255
255
255
255
255
255
255
255
255
255
255
255
255
255
255
255
255
255
255
255
255
255
255
255
255
255
255
255
255
255
255
255
32
180
180
0
164
164
0
140
140
0
140
140
0
140
140
0
64
64
0
64
64
0
112
112
0
140
140
32
180
180
32
180
180
32
180
180
0
152
152
0
140
140
0
124
124
0
88
88
255
255
255
255
255
255
255
255
255
255
255
255
255
255
255
255
255
255
255
255
255
255
255
255
255
255
255
255
255
255
255
255
255
32
180
180
156
220
220
0
152
152
0
140
140
0
140
140
0
140
140
0
64
64
0
64
64
0
112
112
0
140
140
0
152
152
0
152
152
0
140
140
0
140
140
0
124
124
0
88
88
255
255
255
255
255
255
255
255
255
255
255
255
255
255
255
255
255
255
255
255
255
255
255
255
255
255
255
255
255
255
255
255
255
255
255
255
156
220
220
32
180
180
0
152
152
0
132
132
0
140
140
0
140
140
0
64
64
0
64
64
0
64
64
0
132
132
0
140
140
0
140
140
0
132
132
0
124
124
0
88
88
255
255
255
255
255
255
255
255
255
255
255
255
255
255
255
255
255
255
255
255
255
255
255
255
255
255
255
255
255
255
255
255
255
255
255
255
156
220
220
32
180
180
0
152
152
0
152
152
0
132
132
0
152
152
0
132
132
0
64
64
0
64
64
0
64
64
0
140
140
0
132
132
0
124
124
0
88
88
255
255
255
255
255
255
255
255
255
255
255
255
255
255
255
255
255
255
255
255
255
255
255
255
255
255
255
255
255
255
255
255
255
255
255
255
255
255
255
255
255
255
156
220
220
0
88
88
0
132
132
0
88
88
0
132
132
0
132
132
0
88
88
0
64
64
0
64
64
0
64
64
0
132
132
0
140
140
0
88
88
255
255
255
255
255
255
255
255
255
255
255
255
255
255
255
255
255
255
255
255
255
255
255
255
255
255
255
255
255
255
255
255
255
255
255
255
255
255
255
255
255
255
0
0
0
0
0
0
0
64
64
0
64
64
0
64
64
220
136
84
188
120
72
156
96
56
0
64
64
0
64
64
0
64
64
0
0
0
0
0
0
255
255
255
255
255
255
255
255
255
255
255
255
255
255
255
255
255
255
255
255
255
255
255
255
255
255
255
255
255
255
255
255
255
255
255
255
255
255
255
255
255
255
0
64
64
0
64
64
0
64
64
0
64
64
0
64
64
252
120
0
168
84
0
108
72
36
0
64
64
0
64
64
0
64
64
0
0
0
0
0
0
255
255
255
255
255
255
255
255
255
255
255
255
255
255
255
255
255
255
255
255
255
255
255
255
255
255
255
255
255
255
255
255
255
255
255
255
255
255
255
255
255
255
32
176
176
32
176
176
32
176
176
32
176
176
0
140
140
0
140
140
0
112
112
0
140
140
0
140
140
0
140
140
0
140
140
0
124
124
0
112
112
255
255
255
255
255
255
255
255
255
255
255
255
255
255
255
255
255
255
255
255
255
255
255
255
255
255
255
255
255
255
255
255
255
255
255
255
255
255
255
255
255
255
32
176
176
184
232
232
184
232
232
32
180
180
32
180
180
0
140
140
0
124
124
32
180
180
184
232
232
184
232
232
184
232
232
0
164
164
0
140
140
0
124
124
255
255
255
255
255
255
255
255
255
255
255
255
255
255
255
255
255
255
255
255
255
255
255
255
255
255
255
255
255
255
255
255
255
255
255
255
32
180
180
184
232
232
184
232
232
184
232
232
32
180
180
32
180
180
0
140
140
0
124
124
156
220
220
72
192
192
72
192
192
72
192
192
72
192
192
0
164
164
0
140
140
255
255
255
255
255
255
255
255
255
255
255
255
255
255
255
255
255
255
255
255
255
255
255
255
255
255
255
255
255
255
255
255
255
255
255
255
32
180
180
184
232
232
184
232
232
32
180
180
32
180
180
0
164
164
0
124
124
0
112
112
0
140
140
156
220
220
156
220
220
156
220
220
156
220
220
156
220
220
32
180
180
255
255
255
255
255
255
255
255
255
255
255
255
255
255
255
255
255
255
255
255
255
255
255
255
255
255
255
255
255
255
255
255
255
255
255
255
0
140
140
184
232
232
184
232
232
32
180
180
32
180
180
0
164
164
0
124
124
0
112
112
0
164
164
156
220
220
32
176
176
32
176
176
32
176
176
32
176
176
0
140
140
0
140
140
255
255
255
255
255
255
255
255
255
255
255
255
255
255
255
255
255
255
255
255
255
255
255
255
255
255
255
255
255
255
255
255
255
156
220
220
0
140
140
0
140
140
0
140
140
0
140
140
0
140
140
0
112
112
0
132
132
0
164
164
0
132
132
156
220
220
156
220
220
156
220
220
156
220
220
32
176
176
0
140
140
255
255
255
255
255
255
255
255
255
255
255
255
255
255
255
255
255
255
255
255
255
255
255
255
255
255
255
255
255
255
255
255
255
156
220
220
156
220
220
0
164
164
0
152
152
0
140
140
0
124
124
0
124
124
0
132
132
0
164
164
32
176
176
156
220
220
156
220
220
156
220
220
156
220
220
32
180
180
0
140
140
255
255
255
255
255
255
255
255
255
255
255
255
255
255
255
255
255
255
255
255
255
255
255
255
255
255
255
255
255
255
156
220
220
184
232
232
32
180
180
0
164
164
0
152
152
0
140
140
0
124
124
0
124
124
0
132
132
0
164
164
32
180
180
116
200
200
156
220
220
156
220
220
156
220
220
72
192
192
0
164
164
255
255
255
255
255
255
255
255
255
255
255
255
255
255
255
255
255
255
255
255
255
255
255
255
255
255
255
255
255
255
184
232
232
184
232
232
32
180
180
0
164
164
0
140
140
0
140
140
0
124
124
0
124
124
255
255
255
0
164
164
32
180
180
116
200
200
156
220
220
156
220
220
156
220
220
156
220
220
116
200
200
0
164
164
255
255
255
255
255
255
255
255
255
255
255
255
255
255
255
255
255
255
255
255
255
255
255
255
255
255
255
116
200
200
184
232
232
32
180
180
0
164
164
0
140
140
0
140
140
0
124
124
0
88
88
255
255
255
255
255
255
32
180
180
32
180
180
116
200
200
156
220
220
156
220
220
156
220
220
116
200
200
0
164
164
255
255
255
255
255
255
255
255
255
255
255
255
255
255
255
255
255
255
255
255
255
255
255
255
116
200
200
116
200
200
32
180
180
32
180
180
0
164
164
0
140
140
0
124
124
0
124
124
0
88
88
255
255
255
255
255
255
0
164
164
32
180
180
116
200
200
156
220
220
156
220
220
156
220
220
116
200
200
116
200
200
255
255
255
255
255
255
255
255
255
255
255
255
255
255
255
255
255
255
255
255
255
255
255
255
116
200
200
32
180
180
0
164
164
32
176
176
0
140
140
0
132
132
0
140
140
0
124
124
0
88
88
255
255
255
255
255
255
0
164
164
0
164
164
72
192
192
156
220
220
156
220
220
156
220
220
116
200
200
116
200
200
255
255
255
255
255
255
255
255
255
255
255
255
255
255
255
255
255
255
255
255
255
255
255
255
32
180
180
0
152
152
0
132
132
0
164
164
0
164
164
0
152
152
0
88
88
0
112
112
0
88
88
255
255
255
255
255
255
255
255
255
0
164
164
72
192
192
156
220
220
156
220
220
156
220
220
156
220
220
116
200
200
116
200
200
255
255
255
255
255
255
255
255
255
255
255
255
255
255
255
255
255
255
255
255
255
0
140
140
0
124
124
0
124
124
0
124
124
0
124
124
0
140
140
0
124
124
0
88
88
255
255
255
255
255
255
255
255
255
255
255
255
72
192
192
116
200
200
156
220
220
72
192
192
72
192
192
72
192
192
32
176
176
156
220
220
0
132
132
255
255
255
255
255
255
255
255
255
255
255
255
255
255
255
255
255
255
0
0
0
0
124
124
0
124
124
0
124
124
0
124
124
0
88
88
0
88
88
0
64
64
255
255
255
255
255
255
255
255
255
255
255
255
72
192
192
72
192
192
32
180
180
32
176
176
32
176
176
0
152
152
0
152
152
0
112
112
255
255
255
255
255
255
255
255
255
255
255
255
255
255
255
255
255
255
255
255
255
0
0
0
0
0
0
0
112
112
0
112
112
0
112
112
0
88
88
0
0
0
255
255
255
255
255
255
255
255
255
255
255
255
255
255
255
0
124
124
0
112
112
0
152
152
0
152
152
0
152
152
0
152
152
0
132
132
0
88
88
255
255
255
255
255
255
255
255
255
255
255
255
255
255
255
255
255
255
255
255
255
0
0
0
0
0
0
0
0
52
0
0
0
0
0
28
0
0
28
0
0
0
255
255
255
255
255
255
255
255
255
255
255
255
255
255
255
255
255
255
0
124
124
0
132
132
0
124
124
0
88
88
0
112
112
0
88
88
0
108
108
255
255
255
255
255
255
255
255
255
255
255
255
255
255
255
255
255
255
255
255
255
0
0
0
0
0
0
0
0
0
0
0
0
0
0
28
0
0
0
255
255
255
255
255
255
255
255
255
255
255
255
255
255
255
255
255
255
255
255
255
0
0
52
0
0
52
0
0
44
0
0
0
0
0
28
0
0
0
0
0
0
255
255
255
255
255
255
255
255
255
255
255
255
255
255
255
255
255
255
255
255
255
255
255
255
0
0
0
0
0
0
0
0
0
0
0
0
0
0
0
0
0
0
255
255
255
255
255
255
255
255
255
255
255
255
255
255
255
255
255
255
255
255
255
0
0
52
0
0
44
0
0
28
0
0
28
0
0
0
0
0
0
255
255
255
255
255
255
255
255
255
255
255
255
255
255
255
255
255
255
255
255
255
255
255
255
0
0
0
0
0
0
0
0
0
0
0
0
0
0
0
0
0
0
255
255
255
255
255
255
255
255
255
255
255
255
255
255
255
255
255
255
255
255
255
0
0
52
0
0
52
0
0
44
0
0
28
0
0
28
0
0
0
255
255
255
255
255
255
255
255
255
255
255
255
255
255
255
255
255
255
255
255
255
0
0
52
0
0
0
0
0
0
0
0
44
0
0
28
0
0
0
0
0
0
255
255
255
255
255
255
255
255
255
255
255
255
255
255
255
255
255
255
255
255
255
255
255
255
0
0
0
0
0
44
0
0
44
0
0
28
0
0
0
255
255
255
255
255
255
255
255
255
255
255
255
255
255
255
255
255
255
255
255
255
0
0
52
0
0
44
0
0
44
0
0
44
0
64
64
0
0
0
255
255
255
255
255
255
255
255
255
255
255
255
255
255
255
255
255
255
255
255
255
255
255
255
255
255
255
0
0
0
0
0
0
0
0
0
0
0
0
0
0
0
255
255
255
255
255
255
255
255
255
255
255
255
255
255
255
255
255
255
255
255
255
0
0
44
0
0
44
0
0
44
0
0
44
0
0
44
255
255
255
255
255
255
255
255
255
255
255
255
255
255
255
255
255
255
255
255
255
255
255
255
255
255
255
255
255
255
0
0
52
0
0
52
0
0
28
0
0
0
0
0
0
0
0
0
255
255
255
255
255
255
255
255
255
255
255
255
255
255
255
255
255
255
255
255
255
255
255
255
255
255
255
255
255
255
255
255
255
255
255
255
255
255
255
255
255
255
255
255
255
255
255
255
255
255
255
255
255
255
255
255
255
255
255
255
255
255
255
0
0
52
0
0
52
0
0
52
0
0
28
0
0
0
0
0
0
255
255
255
255
255
255
255
255
255
255
255
255
255
255
255
255
255
255
255
255
255
255
255
255
255
255
255
255
255
255
255
255
255
255
255
255
255
255
255
255
255
255
255
255
255
255
255
255
255
255
255
255
255
255
255
255
255
255
255
255
0
0
52
0
0
52
0
0
52
0
0
52
0
0
44
0
0
28
0
0
0
255
255
255
255
255
255
255
255
255
255
255
255
255
255
255
255
255
255
255
255
255
255
255
255
255
255
255
255
255
255
255
255
255
255
255
255
255
255
255
255
255
255
255
255
255
255
255
255
255
255
255
255
255
255
255
255
255
255
255
255
0
0
0
0
0
44
0
0
44
0
0
28
0
0
28
0
0
28
0
0
0
255
255
255
