/* XPM */
static char *_87_29aca10dcce1c73b93ccb7e504e2c7b33c3afe10ce871bd5fd24e47100b55e23[] = {
/* columns rows colors chars-per-pixel */
"80 133 74 1 ",
"  c black",
". c #040404",
"X c #0C0404",
"o c #0C0C08",
"O c #180C04",
"+ c #18140C",
"@ c #141010",
"# c #181818",
"$ c #201008",
"% c #28140C",
"& c #301C10",
"* c #202010",
"= c #282818",
"- c #3C2014",
"; c #30301C",
": c #2C282C",
"> c #3C3824",
", c #383434",
"< c #440C04",
"1 c #442418",
"2 c #4C2C18",
"3 c #54301C",
"4 c #483C34",
"5 c #403C3C",
"6 c #603420",
"7 c #683C24",
"8 c #444028",
"9 c #4C4C2C",
"0 c #545434",
"q c #704028",
"w c #78442C",
"e c #605C38",
"r c #4C4848",
"t c #544440",
"y c #5C4C44",
"u c #585050",
"i c #64544C",
"p c #6C5C50",
"a c #686440",
"s c #706C44",
"d c #787448",
"f c #786458",
"g c #746C70",
"h c #844C30",
"j c #8C5438",
"k c #905C3C",
"l c #986444",
"z c #A06C48",
"x c #A87450",
"c c #AC7C58",
"v c #806C60",
"b c #8C7468",
"n c #947C70",
"m c #848050",
"M c #8C8854",
"N c #9C8478",
"B c #B08460",
"V c #B89068",
"C c #A88C7C",
"Z c #BC9870",
"A c #C4A078",
"S c #AC9484",
"D c #B49C8C",
"F c #CCAC80",
"G c #D4B08C",
"H c #C0A494",
"J c #C8AC9C",
"K c #D8B894",
"L c #D4B0A4",
"P c #D8B8AC",
"I c #DCC49C",
"U c #E0C4B0",
"Y c #ECCCB8",
"T c white",
/* pixels */
"TTTTTTTTTTTTTTTTTTTTTTTTTTTTTTTTTTTTTTTTTTTTTTTTTTTTTTTTTTTTTTTTTTTTTTTTTTTTTTTT",
"TTTTTTTTTTTTTTTTTTTTTTTTTTTTTTTTTTTTTTTTTTTTTTTTTTTTTTTTTTTTTTTTTTTTTTTTTTTTTTTT",
"TTTTTTTTTTTTTTTTTTTTTTTTTTTTTTTTTTTTTTTTTTTTTTT=4>TTTTTTTTTTTTTTTTTTTTTTTTTTTTTT",
"TTTTTTTTTTTTTTTTTTTTTTTTTTTTTTTTTTTTTTTTTTTTT8NLUH;TTTTTTTTTTTTTTTTTTTTTTTTTTTTT",
"TTTTTTTTTTTTTTTTTTTTTTTTT > TTTTTTTTTTTTTTT8nHPUUUa>TTTTTTTTTTTTTTTTTTTTTTTTTTTT",
"TTTTTTTTTTTTTTTTTTTTTTT sJUC>TTTTTTTTTTTT8mJPUUUUPHsTTTTTTTTTTTTTTTTTTTTTTTTTTTT",
"TTTTTTTTTTTTTTTTTTTTT=pNLUYPC8TTTTTTTTT>mDPPLLnnUPPS8TTTTTTTTTTTTTTTTTTTTTTTTTTT",
"TTTTTTTTTTTTTTTTTTTT=aPUUYYYYPb>TTTTT9bDLHN0*9b=0UUPnTTTTTTTTTTTTTTTTTTTTTTTTTTT",
"TTTTTTTTTTTTTTTTTTT=nLPPPLLLPUUS9=T>vSLHDbsasdd9*SUUU9TTTTTTTTTTTTTTTTTTTTTTTTTT",
"TTTTTTTTTTTTTTTTTT8nUPLLHndLPUUPJ9aDLHDnas0>=>9a;9LLUb9TTTTTTTTTTTTTTTTTTTTTTTTT",
"TTTTTTTTTTTTTTTTT0SUPHSna99aDLPPPHDSSb909990Nn0=e;dLJPsTTTTTTTTTTTTTTTTTTTTTTTTT",
"TTTTTTTTTTTTTTT:eDUPHDNa0999aSHDCSNb0+>a*8mNifN>b99DJLS0TTTTTTTTTTTTTTTTTTTTTTTT",
"TTTTTTTTTTTTT89bLPPHDCeesssvNSSNd> *=0d>sbfvb9Na ;0*CLLS9TTTTTTTTTTTTTTTTTTTTTTT",
"TTTTTTTTTTTT>aHUUPHDNesssdnNCNb9++o>0ab=MpneNNv=*=9=;LLUbTTTTTTTTTTTTTTTTTTTTTTT",
"TTTTTTTTTTT8SUUUULDCasaanSNNne=*=;>9aaa90SaSf8.>9>;;oNLLP9TTTTTTTTTTTTTTTTTTTTTT",
"TTTTTTTTTT0SUUPPLSna0anHDSN0=e90bdCCCnsa=sC0*+9ea9>> >JLPb0TTTTTTTTTTTTTTTTTTTTT",
"TTTTTTT>enJUUULDCNsmSJPHSn99;>dsSSssSDSs=;9;>9ennd9;;.nPLPdTTTTTTTTTTTTTTTTTTTTT",
"TTTTTT0vHUUUPLLLLUPLHSb9Nb;0sbb99daadSDSdee00eaeaa>00= nHLP9TTTTTTTTTTTTTTTTTTTT",
"TTTT=fHPYPLLLLLLPLHNdbSn>ddCd9=;>abnSSCSSDDDDCnndCa9b>o=JHPC9TTTTTTTTTTTTTTTTTTT",
"TTT=nUPLPLLLDDSSNs9SnCndNDDa>>99anSSCCnnNSCSSDCCSDNed==*eLJLdTTTTTTTTTTTTTTTTTTT",
"TT aHPJHHDdda9dNdN99nbNDHnaa=9edNDSSnnd9NCNCSSSSSDSdeed=+DHLSeTTTTTTTTTTTTTTTTTT",
"T=fDSDSndnSNSddnbbnNHLPna=9bssnSSSNNe0b>aCNNCSSSSDSb0nS= sHHPduTTTTTTTTTTTTTTTTT",
"T+99==>n9nDPPHSNNbessenddnSJPJSNddvesnnNNb9nCSSSCSNaaSC=oo0LHPsTTTTTTTTTTTTTTTTT",
"TTo=>=>aNDSna;90>09avdbnSHLLLHNaaabbnNnNNnabCSSSCSSaane9;+*DLPDrTTTTTTTTTTTTTTTT",
"TTTo*=enn9>faabnbNnnNSLPPLLLHNNdandNNdabNNsnCSSSSCSaasdS==+0PLPdtTTTTTTTTTTTTTTT",
"TTTT+9e0;a9aSCHJLLPPPPPLLHHnnNnNnCNnsddNNCCNNCCSSCCa0aSS>>**DPPDiTTTTTTTTTTTTTTT",
"TTTT=>; +9NCDSddnDJPPPPLLDnNnCSDDNbaddddsCNNNNNCSSCd9dSN0o .ePPUSrTTTTTTTTTTTTTT",
"TTTTT= >esDns>*dN9*DPPdnJnHHLJSnnNzcZFZVzjbNNNNCSSSC99N9.=**o0LLPdyTTTTTTTTTTTTT",
"TTTTTT=>>0se9+sPLPs*SPHCLPLHSdbNnzBZKIIGVzknNNNNCSSSd9Ne>e>0a9DPPSgTTTTTTTTTTTTT",
"TTTTTTT >9>> +HPUPHe=DPPPPHbnSDskxZAGGKGABkvNCNNNCSCC0ss;;9es9ePPJDrTTTTTTTTTTTT",
"TTTTTTTT+>=++>DHPPDS>=JPLPPLHSnkjxBAGGGABBxkbNNNNNCCCSnae90e09>HPPHn=TTTTTTTTTTT",
"TTTTTTTTT=*+=0SNHLHSn*0HPPPPNakjhzBAGGGZczcllNNNNNCSSDHC99aNa0eNPJN:TTTTTTTTTTTT",
"TTTTTTTTT++==*seSDNSPd==HPPPJdjkqkcZFFFBckxBzvnNNaaNNs9>bnaba9nDDn5TTTTTTTTTTTTT",
"TTTTTTTTTT++==9adSDHHJ9+bULPDjkkwkxBAAZcxlcZllbnNbeNS0>nsdb>0nDDd,TTTTTTTTTTTTTT",
"TTTTTTTTTTT+++*>eNNDHS0=>DPUnkxkhkBAFFKABzAGxldnnNnDDN>ana9aSDSa#TTTTTTTTTTTTTTT",
"TTTTTTTTTTTT++o 9SnSDHa>=aPLsjZBkzBBZZZZBxZABlkdnSbdNd>;s;sSDC0.TTTTTTTTTTTTTTTT",
"TTTTTTTTTTTTT+.=;nnNSDS9=>SLhkVBcxlzcccxzcBABzkNSSbss*9>9bSSn8.TTTTTTTTTTTTTTTTT",
"TTTTTTTTTTTTTTOOO->nnCSS9=>dhkcccccBBZZZBVBVVzlnSd9;>+9bSDna,TTTTTTTTTTTTTTTTTTT",
"TTTTTTTTTTTTT1&OO%->nbbn0==>hlxcxcccccxcBBBVZzlde9e9*0SHSa*OTTTTTTTTTTTTTTTTTTTT",
"TTTTTTTTTTTT112&O$O$>aNSs;*=hlxxxccBBVBccBBBBBzh9s09bHDN9*q77TTTTTTTTTTTTTTTTTTT",
"TTTTTTTTTTTT2361&O*==*=eHf+=hkllxxcxxccxccBBcclq99aCDSd*%2qklw7TTTTTTTTTTTTTTTTT",
"TTTTTTTTTTTT36721%X*=>0*>D0=qkklxcBBBZZVVcxxxBz7evNSn9%%17jzVZkqTTTTTTTTTTTTTTTT",
"TTTTTTTTTTTT263321$OO=*>0e9=6jklBBVVZZZZZVVBcclksfa8@236kzxBVVGBqTTTTTTTTTTTTTTT",
"TTTTTTTTTTTT1262211O$%=0as0=3wklcBBZZZZZZZVVBxkka8@%137jzVAZZAAKBqTTTTTTTTTTTTTT",
"TTTTTTTTTTTTT-21221-OOO=eaa937jlcBZZZZZAZZVBcxkw8@-11qhlxBZZAFFKKZqTTTTTTTTTTTTT",
"TTTTTTTTTTTTTT27hlkq61O ;0ae=6hkxVVZZZZZZZZVcxl612126wkxxcBZZAAGIIAqTTTTTTTTTTTT",
"TTTTTTTTTTTTT37jxBcl72OO>bHPa6hlcVZZZZZZZZZZBBx612366hllllxBZAAFKIIVqTTTTTTTTTTT",
"TTTTTTTTTTTTT7whkkkkh71$O%=Sn1kcBZZVZZZZZZZZVZZ6113qqhhkkklxxcxBAGKIAwTTTTTTTTTT",
"TTTTTTTTTTTT3qqqwhhhh73-OO*>=6lBBZZZZAAZZAAAAAZh1-26qwwhhhkjjjkzcZAKIZwTTTTTTTTT",
"TTTTTTTTTTTT67666qhhwq31%O$$-hcBBBZZAAAZZZZAAAAc3$177wqqwwqhlBVAGKKIIFBqTTTTTTTT",
"TTTTTTTTTTTT6663367qq7621$O&hlxBcBZZAAZVVVVZZZZZx&177qqq77kcVZAFGGGGKGFlTTTTTTTT",
"TTTTTTTTTTTT23111266q7621&O$kBBBBBZZZZZBVVBVZZVZAz-17777hlcVZAAFFGGGGKKAhTTTTTTT",
"TTTTTTTTTTTTT111111123311&&zBBVZZZZZBBBVVBVVBVVVZVBl76hkcZAGGGKGGGGFGFGGZjTTTTTT",
"TTTTTTTTTTTTT1------1-1--3qlxBVBZZAZZBBBVBBVVBBBZZAZZBVZFFFFFFFFGGGGGFFFGVqTTTTT",
"TTTTTTTTTTTTTT1--&-&-&-&2kzBZAAZZZAZBVVVBBBVVBBBVZZZZZZZZZAAAAZAAAFFFFFFGGVTTTTT",
"TTTTTTTTTTTTTTT1-&&&&11-lBBZAAAAAAAAZZZVBBBVBBBBBVVVVZZZZZZZZZVZZZZAAAAAAFGkTTTT",
"TTTTTTTTTTTTTTT-32-%O<O7zcVZAAGGFFFAAZZVVBBVBBBBBBVVVZZZZZZZZZZZZZZZZZZZZZAZjTTT",
"TTTTTTTTTTTTTT27qkhq71qzBBVZAAFGKGGFAAZZZVBVBBccBcBVVZZZZZZZZZZZVVVVVVVVVBBVBqTT",
"TTTTTTTTTTTTT27qqhq767kcBBVVZAFGGGKFAAAZZZVBBBccBccBVBBVVVVBBBBBBBBBBBBBBccVBzTT",
"TTTTTTTTTTTTT6qqqqqq6hlxxVVZZAFKKKGFAAAAZZZVVZccBccBBBBBBBBccccccBBBcccccxBcBcqT",
"TTTTTTTTTTTT167667667jlzxBVVZAFGGGGFAZAAZVZZVBcccccccccBBccxxxxxccxcccxxxxxBxclT",
"TTTTTTTTTTTT27633662hkklxBVVZAFKKKGFAAZAZVVVZBBccccxcccBccccxxxzzzzzzzzxxllzzxxq",
"TTTTTTTTTTTT26211-1qjklzxccVZAAFGGGAZVZZBBBBVBBBccxxcxxccxcBxzzkkkkkkkkkkkkkkkkk",
"TTTTTTTTTTTT221-1&-hjklzxccVZAAFGGFFZZZAVBccBBcBcxxxxxxxxxxxzlkkkkkkkjhhhhhhhhhk",
"TTTTTTTTTTTT112-&%3jkklzxccVVZAFFFFAZZZZBBBcBBcccxxzzzzxxzlzzlkkkkkkjhwwwqq77qqh",
"TTTTTTTTTTTT112-&O7jkkklxccBVZAAAAAAZVVVBVBcBBcxxxxzkklzzlkkllkkkkjhhwqqq77636qq",
"TTTTTTTTTTTTT12-&%qjkklzxccVVZZAGGAAAVVVBBBcBccxxxzlkkklllkkkkkkjhhwwqqq67633367",
"TTTTTTTTTTTTT-11&&hjkkklzxcVVVZZAAAAGABZVBcccxxxzzzllkkkkkkkjhhhhhwqqq666321123T",
"TTTTTTTTTTTTT-<1--hhjkkllzxBVZZZZAAZAAVVVVBcxxxxzllkkkkkkjhhhwwwwqqqq773321112TT",
"TTTTTTTTTTTTTT-1--hhjkklllxcBVZZZZAAAZZVAVBxxxxzlklkkllkkjhwwq7qqqqqq763211121TT",
"TTTTTTTTTTTTTT-1-1hhhkklllxcBVZZZZAAZAVVZZVcxxxzkklkkkkkjhhwwq7qqqq7733111122TTT",
"TTTTTTTTTTTTTTT--2whjjkllzxBVVZZZVZZZZZVZVBxzzzzklkkkkkjjhwww7777666632111131TTT",
"TTTTTTTTTTTTTTT&-3qwhjkklzxccVZZZVVZVBBVVBcxzllklkkkkkjhhwwwq776776321122231TTTT",
"TTTTTTTTTTTTTTTT%2qwhjkkllxxBVVVVVBVZVVBBBBxzllkkkkjkjjhwwwqq77666332112232TTTTT",
"TTTTTTTTTTTTTTTT&17whjkklxxxxBVZZVBVVVVBccxxzlkkkkjjjjhhwwwqq76666333233331TTTTT",
"TTTTTTTTTTTTTTTT&-7whjkklzzlxBVVVVZVVZVccxxxzkkkjkjjjhwwwwqq67666332223333TTTTTT",
"TTTTTTTTTTTTTTTT$-6qhjkklzzxxBBBVVZVVZVBccxzlkjkjjjhhwwwwwq66676632123333TTTTTTT",
"TTTTTTTTTTTTTTTTT<3qhhjklklxxxBBcVBBZVVBcxxzkkkkjhhhwwwwqwq76666333223123TTTTTTT",
"TTTTTTTTTTTTTTTTT-3qwhjkklxxxxccBVBxBVVVcxzlkkjjhhwwwhhhwq77663323211112TTTTTTTT",
"TTTTTTTTTTTTTTTTT&27wwjjklxxlxcBZVVcxcBVBxzkkkkjhhwwwwhhwq7763322111111TTTTTTTTT",
"TTTTTTTTTTTTTTTTT-16qwhjklllllxBVZVBcxxcczllkkkjhwwhhhhwqqq663211111111TTTTTTTTT",
"TTTTTTTTTTTTTTTTT-26qqhjklxxlxxBVVVVBcxBxzllkkjhhwhhjjhwqq763222122111TTTTTTTTTT",
"TTTTTTTTTTTTTTTTT1267qwjkzzlllxccxBZZBcBxlllkkhhwwhhjjhwq766221111111TTTTTTTTTTT",
"TTTTTTTTTTTTTTTTT36777qhjkkkllxccVZVVZccczllkjwwqwhhjhhwq6622211111-TTTTTTTTTTTT",
"TTTTTTTTTTTTTTTTT6wwqqqhjkkkkkxxBVZZVBBBBzllkhwwqwhjjjhwq6322111111TTTTTTTTTTTTT",
"TTTTTTTTTTTTTTTT1qhhw7qhjkzllklxcBVVVVVBxzlkkhqqwhhjjhhw763211111-TTTTTTTTTTTTTT",
"TTTTTTTTTTTTTTTT3hhhhqqhjkzlkkklxccVZZVBBxllkhhwwwhhhhwq63211111-TTTTTTTTTTTTTTT",
"TTTTTTTTTTTTTTTT6hjhhwqhjkkkkhllklxBBZZVBxzlkjhhhwhwwwwq631111-TTTTTTTTTTTTTTTTT",
"TTTTTTTTTTTTTTTT7hjjhhwhjkkkjjkkklcxBZVBVxlzkkjjhwhwwwqqq21---TTTTTTTTTTTTTTTTTT",
"TTTTTTTTTTTTTTT1qhjkjhhhjjkkkjklklcxxVZVczzzlkkjhhkhhhqq73---TTTTTTTTTTTTTTTTTTT",
"TTTTTTTTTTTTTTT3whjkjhhjjjjkkjkkjlxxxBVZclzllkkkjjkjhwwq71--TTTTTTTTTTTTTTTTTTTT",
"TTTTTTTTTTTTTTT6wjjkkhhjhjjjkhjhjllxxzBBxlzlllkkjjhhhwwh71-TTTTTTTTTTTTTTTTTTTTT",
"TTTTTTTTTTTTTTT7hjkkjhhhhjjhjkkjjklxxlxxxlzzlklkkjhwwwqw71TTTTTTTTTTTTTTTTTTTTTT",
"TTTTTTTTTTTTTTTqhjkkjhhhhhjhhjjjjkkllkzxzlzlkklkkkhqqwqw71TTTTTTTTTTTTTTTTTTTTTT",
"TTTTTTTTTTTTTTTwhjkkjhhhhhhhhjjhjkkkkklxllzlkjllkkhwwwww72TTTTTTTTTTTTTTTTTTTTTT",
"TTTTTTTTTTTTTT1whjkkjhhhhhhhhjhjjklkkkzxlllljkklkkhwqqq771TTTTTTTTTTTTTTTTTTTTTT",
"TTTTTTTTTTTTTT3whjkkjhhhhhhhhhhjhkkkkklzlllzjjlllkhqwq7772TTTTTTTTTTTTTTTTTTTTTT",
"TTTTTTTTTTTTTT6whjkkjhwhhhhhhhhhhjkkkkkkklkkkkkkkkjhwqqq62TTTTTTTTTTTTTTTTTTTTTT",
"TTTTTTTTTTTTTT7whjkkjhhhhhhwhhjjhhjkkkkklkkjkkkkkkkjhwqq72TTTTTTTTTTTTTTTTTTTTTT",
"TTTTTTTTTTTTTTqwhjkjhhhwhhwwhhhwjwhkkkkkkkjjjkkkkkkjhqqw72TTTTTTTTTTTTTTTTTTTTTT",
"TTTTTTTTTTTTTTwwhhjjhhhwwhwwhhjwhhhjkkkjjkjhjlkkkkjjhwqq73TTTTTTTTTTTTTTTTTTTTTT",
"TTTTTTTTTTTTTTqwhhjhhhhwqwwwhhhhjhhjkkkjhjhhklkkkkkjjhwhq6TTTTTTTTTTTTTTTTTTTTTT",
"TTTTTTTTTTTTTTqwwhhhhwhhwwwhhjhhhhhhjkkkjhjjjklkjjkjhwwhwq3TTTTTTTTTTTTTTTTTTTTT",
"TTTTTTTTTTTTTTqqqhhhhqwhhwqhhhhhwhhhhjkjkjjjjklkkjkjhwhjhw6TTTTTTTTTTTTTTTTTTTTT",
"TTTTTTTTTTTTTTqqqhhhwqwhhwwhhhhhwhjhhjkjkjjkkklkjkkjwqhjjh7TTTTTTTTTTTTTTTTTTTTT",
"TTTTTTTTTTTTTTqqqhhhwwhhhwwwhhjjhjjhwjkjkkjjkklkjkkjhwwjjhq6TTTTTTTTTTTTTTTTTTTT",
"TTTTTTTTTTTTTTqwwhhhwwhhhhqhhhhjhhhhhjkkkkjjjlkkjlkkjwhhjhw6TTTTTTTTTTTTTTTTTTTT",
"TTTTTTTTTTTTTT7qwhhwwhhjhhwhhhhhwhhhhhjhlkkklkkkklkkjhhhhjhw6TTTTTTTTTTTTTTTTTTT",
"TTTTTTTTTTTTTT77qhhhwhhhhhwwhhjwhhkhwhhhkkkkkjhjjkkkkjjhwhhhqTTTTTTTTTTTTTTTTTTT",
"TTTTTTTTTTTTTT7qqwhwwhhhjhwwwhhhhhjhhwhjklllkjjhjklkkkjhhhhjw6TTTTTTTTTTTTTTTTTT",
"TTTTTTTTTTTTTT677whwwhhhhwhwwwhhjhjhwwhjklklkkjkjkkllkjhhhhjh7TTTTTTTTTTTTTTTTTT",
"TTTTTTTTTTTTTT677whhwhhhhhhhwhhhhhhhhwhjkklkkkjhhjllkkkjjhhjhwTTTTTTTTTTTTTTTTTT",
"TTTTTTTTTTTTTT677whhwhhhhwhhwwwwhhjhjhwjkjkkkkjjjjlkllkjhkwjww7TTTTTTTTTTTTTTTTT",
"TTTTTTTTTTTTTT677whhhhhhhhwhqqwwwhhwhhhjkkjkkkkjkklljlkjhhhhqwwTTTTTTTTTTTTTTTTT",
"TTTTTTTTTTTTTT667whhwhhjhwhwwwqhwwhhhjhjkkkjlkllklzzklkhhhhwjhw7TTTTTTTTTTTTTTTT",
"TTTTTTTTTTTTTT667wwhhhhhhhhwwwqwhwwhhhhjkkkklkkzlkkzjkkjjwhhjwwqTTTTTTTTTTTTTTTT",
"TTTTTTTTTTTTTT367qwhhhhhhhhhwwhhhhwqwjhjlkkllkkllkklkkkjhhhhwwhw7TTTTTTTTTTTTTTT",
"TTTTTTTTTTTTTT2677qwhhwhhwhhwwwjjjhwwhjhjkjkjjkkzlkklkkhhjhwhwww7TTTTTTTTTTTTTTT",
"TTTTTTTTTTTTTT1677qwhwhhhwhhhwwjhhhhqhjjkkkjjljklkkklkkjjkhhhwwqqTTTTTTTTTTTTTTT",
"TTTTTTTTTTTTTT1676qqhhhhhhhwhwwhhjhhwhjkjjkkllkkklklkkkjhjjhhwwqq7TTTTTTTTTTTTTT",
"TTTTTTTTTTTTTT1666qqwhhhhhhhhwhwhhjwhhjkjkjkkllkkkllkjjjhjhhhwhwwqTTTTTTTTTTTTTT",
"TTTTTTTTTTTTTT1366qqqwhhwhhhjhhhhhjhhjjkklhkklkkkklkkkkkjhhwhhwwww7TTTTTTTTTTTTT",
"TTTTTTTTTTTTTT23667qwwhwwhhwhwhhhjhjjjjkjhjjkkkkklkkkklkjjwwhhhhwwqTTTTTTTTTTTTT",
"TTTTTTTTTTTTTT22337qwwwwwwhhwwhwhjjjjkkkjkhkkkkkkllzkkzkjjjhwwhwhwq7TTTTTTTTTTTT",
"TTTTTTTTTTTTTT233367qwwwhwhhhhhhhhjjjjjkjjkjkklkllzlkklkkjhhhwhhwww7TTTTTTTTTTTT",
"TTTTTTTTTTTTTT2223677wwwwhhhhhwwhwhjkkkkhhkkkkkklzzlkklkkjjwhhwhhww7TTTTTTTTTTTT",
"TTTTTTTTTTTTTT2233677qwwhwhhhhhwhhhjjjlkhhkklkkklllllkklkkjhhhhhhwwq7TTTTTTTTTTT",
"TTTTTTTTTTTTTT22336777wwwwhhhhwwhkhhjjkkjkjkkkllkkllkkklzkjjwjhwhwqq7TTTTTTTTTTT",
"TTTTTTTTTTTTTT22326677qwwwhhhhhwhkhhhjkhhhjkjkllkkkllklzlkjjhjhhjhwq76TTTTTTTTTT",
"TTTTTTTTTTTTTT232236777whwwhhhhhhhhhhjkhjjlkjklllkhklklzlkjjjhjhjhwwq7TTTTTTTTTT",
"TTTTTTTTTTTTTT222126777whwwwhhhhhwhhhjkkjhkkhklllkkkkkllzkkjjhhhhwqqq7TTTTTTTTTT",
"TTTTTTTTTTTTTT222326777qwwwwwwhhhhwhhjjkklkkjkkllkkkkklllkkjwjjkhqwqw76TTTTTTTTT",
"TTTTTTTTTTTTTT2112267qqqqq7qhwhhhhwhkhhwjkkklkkllkkkkklzkklkjhhhhjwhwq3TTTTTTTTT"
};
