/* XPM */
static char *_590_2ef8f2b03ec562c4427ab8a11fe8f921850fb4506a0a5ad07d09e5c39944caa1[] = {
/* columns rows colors chars-per-pixel */
"73 120 30 1 ",
"  c #0C0404",
". c #180C04",
"X c #280400",
"o c #201008",
"O c #28140C",
"+ c #301C10",
"@ c #3C2014",
"# c #442418",
"$ c #4C2C18",
"% c #54301C",
"& c #603420",
"* c #683C24",
"= c #704028",
"- c #78442C",
"; c #804000",
": c #844C30",
"> c #8C5438",
", c #905C3C",
"< c #986444",
"1 c #A06C48",
"2 c #A87450",
"3 c #AC7C58",
"4 c #B08460",
"5 c #B89068",
"6 c #BC9870",
"7 c #C4A078",
"8 c #CCAC80",
"9 c #D4B08C",
"0 c #D8B894",
"q c white",
/* pixels */
"qqqqqqqqqqqqqqqqqqqqqqqqqqqqqqqqqqqqqqqqqqqq-47874<-qqqqqqqqqqqqqqqqqqqqq",
"qqqqqqqqqqqqqqqqqqqqqqqqqqqqqqqqqqqqqqqqqq:36753<243>qqqqqqqqqqqqqqqqqqqq",
"qqqqqqqqqqqqqqqqqqqqqqqqqqqqqqqqqqqqqqqqq:457853<<<25,qqqqqqqqqqqqqqqqqqq",
"qqqqqqqqqqqqqqqqqqqqqqqqqqqqqqqqqqqqqqqq:<246853<<<<24-qqqqqqqqqqqqqqqqqq",
"qqqqqqqqqqqqqqqqqqqqqqqqqqqqqqqqqqqqqqq-<1<16551<<<<><:qqqqqqqqqqqqqqqqqq",
"qqqqqqqqqqqqqqqqqqqqqqqqqqqqqqqqqqqqqqq:22<1343<,<<,,:<qqqqqqqqqqqqqqqqqq",
"qqqqqqqqqqqqqqqqqqqqqqqqqqqqqqqqqqqqqq-135<222<>>>>>>-2qqqqqqqqqqqqqqqqqq",
"qqqqqqqqqqqqqqqqqqqqqqqqqqqqqqqqqqqqqq,24641222<,:::=:2qqqqqqqqqqqqqqqqqq",
"qqqqqqqqqqqqqqqqqqqqqqqqqqqqqqqqqqqqq-235668312<<,:*=><qqqqqqqqqqqqqqqqqq",
"qqqqqqqqqqqqqqqqqqqqqqqqqqqqqqqqqqqqq>3467779631<,--,1>qqqqqqqqqqqqqqqqqq",
"qqqqqqqqqqqqqqqqqqqqqqqqqqqqqqqqqqqqq<35677675666421,,-qqqqqqqqqqqqqqqqqq",
"qqqqqqqqqqqqqqqqqqqqqqqqqqqqqqqqqqqqq1456778887541,>:>*qqqqqqqqqqqqqqqqqq",
"qqqqqqqqqqqqqqqqqqqqqqqqqqqqqqqqqqqq:24557777777542,>:=qqqqqqqqqqqqqqqqqq",
"qqqqqqqqqqqqqqqqqqqqqqqqqqqqqqqqqqqq<234457755666542,:=qqqqqqqqqqqqqqqqqq",
"qqqqqqqqqqqqqqqqqqqqqqqqqqqqqqqqqqqq<244445555444444<>qqqqqqqqqqqqqqqqqqq",
"qqqqqqqqqqqqqqqqqqqqq=>35653<:qqqqqq<1345544442433441,qqqqqqqqqqqqqqqqqqq",
"qqqqqqqqqqqqqqqqqqqq-121222345653<qq,1455556655412342>qqqqqqqqqqqqqqqqqqq",
"qqqqqqqqqqqqqqqqqqq*><,,,<122345652-:<456677742112212,qqqqqqqqqqqqqqqqqqq",
"qqqqqqqqqqqqqqqqqqq=,>>>><<<11123442:<345778774<222<<>qqqqqqqqqqqqqqqqqqq",
"qqqqqqqqqqqqqqqqqqq-::::>>,,,<<11122:<3477788753>><<>:qqqqqqqqqqqqqqqqqqq",
"qqqqqqqqqqqqqqqqqqq===--:>>>>,,<<112:<257888876542<:=*qqqqqqqqqqqqqqqqqqq",
"qqqqqqqqqqqqqqqqqqq$%&***-->>::>,,,,:<36788898655421,=qqqqqqqqqqqqqqqqqqq",
"qqqqqqqqqqqqqqqqqqq#$$$&&*=-::::::,,:247889988765431<=qqqqqqqqqqqqqqqqqqq",
"qqqqqqqqqqqqqqqqqqqq#$$%%&&=--=---:>:247890098765431,qqqqqqqqqqqqqqqqqqqq",
"qqqqqqqqqqqqqqqqqqqqq#$$$%&&*====*=*>457900098654441,qqqqqqqqqqqqqqqqqqqq",
"qqqqqqqqqqqqqqqqqqqqqq@#$$%&&*&&&&&*<457900098765431>-qqqqqqqqqqqqqqqqqqq",
"qqqqqqqqqqqqqqqqqqqqqqq@##$$%&&&&&&-2678999098765531>3>qqqqqqqqqqqqqqqqqq",
"qqqqq-:>:=qqqqqqqqqqqqqqq##$$$%&&&=>3778999098765551,661qqqqqqqqqqqqqqqqq",
"qq:,1345554321,:=qqqqqqqqqq##$$$$%-<5788900988765442,5874qqqqqqqqqqqqqqqq",
"q:<1333222344431<,-qqqqqqqqqq##$#%:15788990987655542,48894qqqqqqqqqqqqqqq",
"q><12221<<<<1122331,>-qqqqqqqqq#@*,37788899887765442,278092qqqqqqqqqqqqqq",
"=:>,,,,,>>>>>>>>>,<<<45677631:&#+:247789889876554441<,247872:qqqqqqqqqqqq",
"=-::::::::::::::::::=<4444556764><3577788887755433221::145873:qqqqqqqqqqq",
"**======------:::::*&:2344444442,24577777777544322322>*:145983>qqqqqqqqqq",
"%&&&&&&&=========*%$$:1<2114442,<25677877654421111122<:<3578085:qqqqqqqqq",
"$$$$$$$$%&&&&&&&&$#+%>><<<<211><24677887754221<<<<<11<>246889983:qqqqqqqq",
"q#####@@##@@@#$$$#+#=::::::::,144577888875211<<,,,<<,::2477999972-qqqqqqq",
"qq@####@@@@@@@###@+%*:===*&&:13565778997541<<<,,>,<<>==57889999882:qqqqqq",
"qqq#@#$###@@###@@++%=****%$*,25677878998742<<,,>>>,>>=&265777888973-qqqqq",
"qqqqq@@#####@@###+#&***&&#$>146778988888742<,,>:>>,>:==,366655777871;qqqq",
"qqqqqqqq#@######@+#&&%&%%@*1457788999887642<<,>:>>>>-=->146645555785,qqqq",
"qqq=><121,>%@###O#$$$$$#@*<356788999998754321,>>>>>:-=->1345433332452:qqq",
"qq-,222333342>&@##O#$#$@%>1456788999887554321,>:>>>:-=-:<233322223324,qqq",
"q=><2211<<113332>@. #O@#=1355678999998754431<,>::>::-=-:,122321122124<-qq",
"q->,,<,,,,,,,<<231>>%Xo*>2455678999998755431<,>:::>:-==:>,<11<<<<11121:qq",
"q=:::::::::::::>>::21,&:13445678999998775432<,>>::::-==-:>>,,,,,,<<<<::qq",
"q%%&**==-----=*&&#=,1>-,12445677889887755332<>>:::::-===-::>>>:::>>::*-qq",
"q%$#$$%&&&**&%$%##:>>-><12345567888887544322<,>::::--=*==--:::---:::=&=qq",
"q%######$$%%$#$$+#=:==,<12245567888877544321<>>:::::-=**===---=====*&&=qq",
"qq$##@@@@@###@#+O$**&=,<12234567788775544322<>:::::--=**=======*=**&&%*qq",
"qqq#@##@#######OO%&%%-,<1123566677775544432<>::::::-*****===**=***&%$%%qq",
"qqqqq@@######@O++#$$$-,<11234455665554432<<,:::-:::-=********&&&&&%$$$#qq",
"qqqqqqq######+O+@##@%-,<<1223455545554433<<>:::-::--********&&&%%%%$$%qqq",
"qqqqqqqqqq+@@++@###@%-,<<11234444444444221,>::--::-==***&&*&&&&%%%%%$#qqq",
"qqqqqqqqqqqqq##$=&#@&-><<1122344444432211<,:::--::==***&&&&&&%%%%%%$#qqqq",
"qqqqqqqqqqq=:>,1331$*-><<<<11211232222122<>:::=-::-==*&&&&&%%%%%%%$$#qqqq",
"qqqqqqqq*-:>>>121,,==-:>,,<<<<<1111112122<>:-----:--=*&&&&%%%%%%$$$#qqqqq",
"qqqqqqq*=:>>::::::=&=:::>,,,,,<<<11<122221>:--=--:--=**&&%%%%%%%$$$#qqqqq",
"qqqqqqq*-:::--:::=%$=:::>,,>>>,<<<12222221:---=-:::-=*&&&&%%%%%%$$#qqqqqq",
"qqqqqqq*=--=&***%$+$=:::>,<<>,<<<12333332<:-----:::-=*&&&&%%%%%$$$#qqqqqq",
"qqqqqqq&*=-*$%$$#@@%=::::>>>,,<<124775542,:-==---::-=*&&%%%%%%%$$$qqqqqqq",
"qqqqqqq%&&%$$#@@++#&=--:::>,,<12457775531,:-----:::-=*&&%%%%%%%$$#qqqqqqq",
"qqqqqqq$$$####@@@@$*--:::>,<112445453322<:--=--::::-=**&%%%%%%$$#qqqqqqqq",
"qqqqqqq########++#$*-::::<22455444554222<:---::-:::-=**&%%%%%%$##qqqqqqqq",
"qqqqqqq####$###++@#*--::,135575555554331<>:-:::>::>:-=*&&%%%%%$#qqqqqqqqq",
"qqqqqqqq##$$$+++@O$*=-:><245577577455431,,:::>>:>>>:-=*&%%%%$$$#qqqqqqqqq",
"qqqqqqqq#####@@+Xo$&=:><244555545755555<<,>>,,>:>>>:==*&&%%$$$#qqqqqqqqqq",
"qqqqqqqqq##$#@+.o+$&=:,<1244555445445542,>>>,<::>,>:-=*&&%%$$##qqqqqqqqqq",
"qqqqqqqqq#$$@+oOO@$&=:><1124457544544442<:>>,,>:,<,:--**&%$$$#qqqqqqqqqqq",
"qqqqqqqqqq##+O+++@#&=:>,<<244555433445541>:,,,>:,<,>:-=*&%%$##qqqqqqqqqqq",
"qqqqqqqqqq##@++++@#&=-:,<12244445334237532<1<<>,,<,>>:=&%$$$#qqqqqqqqqqqq",
"qqqqqqqqqqq##$#@@O$*==-><112222342354457532231<<,,,,>:-*$$$##qqqqqqqqqqqq",
"qqqqqqqqqqqq$%%#@@%***=:,<1112235<<455577432222<,,,,<>:*$###qqqqqqqqqqqqq",
"qqqqqqqqqqqq$*&$+@****=:><<<<2244115455575422211<,,>,>-*%$##qqqqqqqqqqqqq",
"qqqqqqqqqqqq$=*%#&=====:><<<112221<2444558542221<,>>>>-*%##qqqqqqqqqqqqqq",
"qqqqqqqqqqqq%*=$*=::--=-><<1112211<2433577542221<,,>>,-&$##qqqqqqqqqqqqqq",
"qqqqqqqqqqqq&*=-:>>,:-=-:<1111221<212223455322211,,>,>-*#@qqqqqqqqqqqqqqq",
"qqqqqqqqqqqq**->,<,>:-=-:<<111121<111243345422222<,>,,-*%+qqqqqqqqqqqqqqq",
"qqqqqqqqqqqq*-:>,<,:::--:<<111121<1<1243345434223<,,>,:*%@qqqqqqqqqqqqqqq",
"qqqqqqqqqqqq*-:>,<,:::::>,<<1<<2<<<11232144345221<,,,,:*&@qqqqqqqqqqqqqqq",
"qqqqqqqqqqq&*-:,,<>::>>>>,<<1<<<11<<133224435521<,<,<,:=&@qqqqqqqqqqqqqqq",
"qqqqqqqqqqq&=-:>,<>::,>>>,<<<<<<11112232243344221111<,:=&#qqqqqqqqqqqqqqq",
"qqqqqqqqqqq*=-::>>:::>>>>,<<<<,<<1<11211242333211<1<,,:==$qqqqqqqqqqqqqqq",
"qqqqqqqqqqq*=--:::>:>>>:>,,<1<,<1<113211332324321<1<<,:==%qqqqqqqqqqqqqqq",
"qqqqqqqqqqq*=--:::::>>,>>>,<<<<<1<112211122234331<<<<,:=*%#qqqqqqqqqqqqqq",
"qqqqqqqqqqq*===-::>,>>,>::,<<,,,<<1112121221224321<<,<:=*&#qqqqqqqqqqqqqq",
"qqqqqqqqqqq&**=---:>>,1,::>,<<,<<<<1112111111233312<,,:=*=$qqqqqqqqqqqqqq",
"qqqqqqqqqqq&&*=====::,<,>::,<<<1<<21212112111324221<,::==*%#qqqqqqqqqqqqq",
"qqqqqqqqqqq%&****==::>,,>::,<<<<,,<11<1111111233221<<:-==*&#qqqqqqqqqqqqq",
"qqqqqqqqqqqq%&***==::>,<,::>,<<<<,<11<1112111132321<<:====&#qqqqqqqqqqqqq",
"qqqqqqqqqqqq%&&&=*=::>><,>::>,,<<<11112211121122222<<::--=*&#qqqqqqqqqqqq",
"qqqqqqqqqqqqq%&&&**=:>>,,>::>,,,<11<<1111111222232211<>:-=*&#qqqqqqqqqqqq",
"qqqqqqqqqqqqqq$&&&*=:>>><,::>,,,<11<<<1<1111121223212<,>:=**%#qqqqqqqqqqq",
"qqqqqqqqqqqqqqq$&&&=:>>:,,>::,,,,,11<<<<1221111222211<,,:=**&#qqqqqqqqqqq",
"qqqqqqqqqqqqqqqq%&&=:>>:>,>::,,,,<<1<<<<1221<<113432211<:==**$qqqqqqqqqqq",
"qqqqqqqqqqqqqqqq$&&=:>>>>,>::>,<<<<1<,<<1211111122332221>-===*#qqqqqqqqqq",
"qqqqqqqqqqqqqqqqq$&=:>>>,,,::>,11<121<<<111211112332222<>:==**#qqqqqqqqqq",
"qqqqqqqqqqqqqqqqqq&=-:>>,<<>:>,<2112<,<<1<<1<<112233322<>:-=**&qqqqqqqqqq",
"qqqqqqqqqqqqqqqqqqq*=:>>,<,>:>,,1<<1<,,<1<<1<<1222222222<>-==**#qqqqqqqqq",
"qqqqqqqqqqqqqqqqqqq%=:>>>,>>:>>,<<<<<<<<<<1<1122211321211::--**$qqqqqqqqq",
"qqqqqqqqqqqqqqqqqqq%*::>>>>>::>,,<,<<<<<1<2111232111121<,,>--=*&#qqqqqqqq",
"qqqqqqqqqqqqqqqqqqqq&-:>>>>>:>>,<,,,<111111<12222222111<,,>::-=*$qqqqqqqq",
"qqqqqqqqqqqqqqqqqqqq*=:>>>>>>>>,,,,,,<11121<111222231<11,>,>:-=*&#qqqqqqq",
"qqqqqqqqqqqqqqqqqqqq&=:>:::>>:>,,,,,,<11122111123332<<1<,,,>:-==*$qqqqqqq",
"qqqqqqqqqqqqqqqqqqqq&*-:--:>>>>>,,,,,,1111211<12321211<,>,,<>-==*&#qqqqqq",
"qqqqqqqqqqqqqqqqqqqq&*--::::>>>>,,,<,,<<11121<122213221<,,,>::-===#qqqqqq",
"qqqqqqqqqqqqqqqqqqqq%*=-:::>>>>><<,<<,<,<112112232112221<<,,:::-=**#qqqqq",
"qqqqqqqqqqqqqqqqqqqqq&=---:>>,,>,<<<<<,,<112222122112221<<,,>:::-=*@qqqqq",
"qqqqqqqqqqqqqqqqqqqqq&=:--:::,,>,<<<<<,<<1<12222321112211<<,>>:::=*&#qqqq",
"qqqqqqqqqqqqqqqqqqqqq&=-:::>>>>>>,<<<<<<<1<1222222211222111<>>::-==&#qqqq",
"qqqqqqqqqqqqqqqqqqqqq&=-:>>>>>>>,,<<<<,<<11122121121<3221<<<,,::-=**$#qqq",
"qqqqqqqqqqqqqqqqqqqqq%*-::>>>>>,,<<,<<,,<<<<2221<<11<321<<,<,>:>:=**&#qqq",
"qqqqqqqqqqqqqqqqqqqqq%*-::>>>>,<<<,,,<,,<<<<1232<<111221<11<,:::-=**&##qq",
"qqqqqqqqqqqqqqqqqqqqq%=-::>,,,,,,,,,,,,<,,<11222<<1<1221121<>,>:-:=*&$#qq",
"qqqqqqqqqqqqqqqqqqqqq%=--:>,,,,,,,<,,,,<,<<<1222<<1<<22121<<,,>>:-==*&##q",
"qqqqqqqqqqqqqqqqqqqqq&=-:::>,,,,,,,<,,,<11<<1221111<<222321<,,<,>:==*&$#q",
"qqqqqqqqqqqqqqqqqqqqq&=-:-::>>,<,,>,,,,<11<1211<,<11122222<,<<12<>-=**$##",
"qqqqqqqqqqqqqqqqqqqqq&=----:::<<>,>>,,,<21121<<,,111<22221<>><11,>-==*&##",
"qqqqqqqqqqqqqqqqqqqqq&==--:::>,,:>>><,,<1211111<<312222221,,,<1>,>-==-*$#",
"qqqqqqqqqqqqqqqqqqqqq&==--::,:><::>:11><<1111<2<<1<2223121,1<11><:==::=&@"
};
