/* XPM */
static char *_0314_a663f07ae5983ccb081aa4423cc359b3a1083c5efda73c9f1b99df333fb28523[] = {
/* columns rows colors chars-per-pixel */
"156 69 34 1 ",
"  c black",
". c #040404",
"X c #040810",
"o c #0C0C18",
"O c #100C10",
"+ c #181818",
"@ c #101420",
"# c #14182C",
"$ c #182034",
"% c #242020",
"& c #2C282C",
"* c #383434",
"= c #403C3C",
"- c #202840",
"; c #242C48",
": c #283450",
"> c #2C385C",
", c #344064",
"< c #38446C",
"1 c #3C4C78",
"2 c #4C4848",
"3 c #585050",
"4 c #60585C",
"5 c #6C6064",
"6 c #746C70",
"7 c #807478",
"8 c #405080",
"9 c #48588C",
"0 c #887C80",
"q c #94888C",
"w c #988C90",
"e c #A09498",
"r c #ACA4A8",
"t c white",
/* pixels */
"tttttttttttttttttttttttttttttttttttttttttttttttttttttttttttttttttttttttttttttttttttttttttttttttttttttttttttttttttttttttttttttttttttttttttttttttttttttttttttt",
"ttttttttttttttttttttttttttt42*&***=23ttttttttttttttttttttttttttttttttttttttttttttttttttttttttttttttttttttttttttttttttttttttttttttttttttttttttttttttttttttttt",
"ttttttttttttttttttttttttt*OO+&*&*=&&%&=3ttttttttttttttttttttttttttttttttttttttttttttttttttttttttttttt&.Xoo@##@X.&ttttttttttttttttttttttttttttttttttttttttttt",
"ttttttttttttttttttttttt3++%%&=23333=&..%&=tttttttttttttttttttttttttttttttttttttttttttttttttttttt*X@:>::;::::::;;::;o&ttttttttttttttttttttttttttttttttttttttt",
"tttttttttttttttttttttt&.+%*23322=*==23=&.&2tttttttttttttttttttttttttttttttttttttttttttttttttt.#::::>>>>>>>>:>>>>>>>>:;X%tttttttttttttttttttttttttttttttttttt",
"tttttttttttttttttttt3O.%+*32=****&&&%&*42.+=tttttttttttttttttttttttttttttttttttttttttttt.X@-:;;:>><,,<<<>>><<><<<<<<,>:-@ tttttttttttttttttttttttttttttttttt",
"ttttttttttttttttttt3+O%%2**&&&&&******&&**O+=tttttttttttttttttttttttttttttttttttto@#$:>>;;:>>>>>><<<<<<<<><1<<<11,<<,>,>;;# tttttttttttttttttttttttttttttttt",
"tttttttttttttttttt*O++*=&++O++%*2333322=&&*+%*ttttttttttttttttttttttttttttttttt#$--;:>>>>>,>:><<,<<<<<<1<,<<1<<<<>,<,>>;;;-;:$ ttttttttttttttttttttttttttttt",
"ttttttttttttttttt&O+O34%+OO+++&234543332=&&*&O*ttttttttttttttttttttttttttttt-;;-$-:,<<<<>>>>><<<,<<<<<1<1<<<88<11<<<<<:::::::>-Xtttttttttttttttttttttttttttt",
"tttttttttttttttt*.O.==%++O+++&235764333==*%%&&&ttttttttttttttttttttttttttt@-;--:>><<>><<><<><<>1<<<111<<<<<<11<<11<<,><:>>:::::;# tttttttttttttttttttttttttt",
"ttttttttttttttt=O+O35%++OO+%&=33653332=*=*%+%&+=tttttttttttttttttttttttt#$$$-->:>><1>:<,><,<<<>81<181<,,<1<181<<<<<1>,,>,,><>:>,:;.ttttttttttttttttttttttttt",
"tttttttttttttt=+OO&2%OOO++%&*=2343322=*&&&+++%O&ttttttttttttttttttttt#$:;::>>:<<>:<<<<1<<,<1<<111<<1<<,<<<<181<<<<1,,,,,,>><,>>:>:- tttttttttttttttttttttttt",
"ttttttttttttt2.+.%2OOO+%%%%&*==22=**&&%++%%++O+%tttttttttttttttt$-;:,>>::>><1<,<<,<<,<1<1><1<,<<11111<<<1,,<81<<1<<>>>:>>>>,>,>:>>;-.ttttttttttttttttttttttt",
"tttttttttttttOO %5+OOO%%%+%&**===&%%+O++++%%OO++tttttttttttttt#$$$;<<<>>>,,,1,<<118881181<11<,,1181<81<<<><188<181<>,>>>>::>,:,>,>;;$.tttttttttttttttttttttt",
"tttttttttttt&.O &%OOO+++%%%&&***&&%%+OO++OOOOO+O&tttttttttt$-;$-:-;><<<<>><,,>><1<89818981111<<1881<1811,><888<11<<<<,>,:::,>::,>#-;;#.ttttttttttttttttttttt",
"ttttttttttttOO.=4...O++%%%%&*&&&%%+OOOOOOOO.OO++&tttttt#$-;-;--:>::>><<<,>11>,<<<<<8918811811188811<<8981<11111811<>>><,>>>>>:;>;$;:-$@ tttttttttttttttttttt",
"ttttttttttt2OO.&O..O+++%%%%%%%%%++OOO........OO%%ttttt$--;-::;:>>>:,,>><<,<1,<1<<18988881118818991<1118988911<11<<<<,>><>:,:>::;>;>>;;$o ttttttttttttttttttt",
"tttttttttt&.O.2%. .O++%%%%&&&%%++OOOOO......O.O+%t@#$$$;-::::;:::;;<<,>>,,11,<<<11881188181891988818888998888<<1<<<<,>,>>,>>,>>:;;;;::;$X tttttttttttttttttt",
"ttttttttttOO.+% ..OO++%&*===&&%++++OO.......OOO+@@#$$--;-;;;-$;;-;;><>><,>11<,,<8<881<891<188898991<1898881881<11<,,,,<,,>>>:>,>:;::>::-$ tttttttttttttttttt",
"ttttttttt&OOO4=..O+++%&=2233=&&%%++OO.......OOO.o #---:;--:-$$$--:;;;:><>><,8<<11<88<<881<8981188888889991891<<18<,1,<,>>>>>:>,>>:>>:::;-# ttttttttttttttttt",
"tttttttttOOOO&...O+%%&&%&&&&&&%%+++OO.....OO.O .  o$-;:--;:;$#@$-;;-;::>:><<<<11119818881189988989989989988811888111,,>>1<,>:>,>>:::::::--@ tttttttttttttttt",
"tttttttttOO 34.OOOOOOOO..OO+%++++OOOOOO..O..OO .  o$--;-$$$$$#@@$;;;:::>,<,<<<18989818911888999998889989819911998111<,>><>,>:>,:::>::::-;:$@ ttttttttttttttt",
"ttttttttOOO%3O.OOOOO++++++OO......OOOOOOO.OOO X  .@@##$@@@oooX@#$::::>,>,181<18118981188889889989818989888991<188181<<<<>::,>,,::::::::;>>;;o tttttttttttttt",
"tttttttt.+O==.O..OO+%%%%%%%+O... .OO.OOOOOOO .   Xo#$oXooXXX.X@-;::::,<<><1<18911881188998998998999988981999881898181<<<>,,>,,,:::::>>;;;-><;$Xttttttttttttt",
"ttttttttOOO&O.OOOOO%&&&&&%%+OOO.....O...OOOO.X   @Xo@@@@X...Xo$-::::>>><,<<<18981981<88998998999988981811988991188181,<,>,<>,>::::::>,>-$;><>-.ttttttttttttt",
"ttttttt+O.*6+OOO.O&&%&&22&%+OOOOOO....OOOOO     .$@ooXo@X.. o#$-::::<<><<81<1191<81881<88189988988818888188899911<81<,<,>>>,>::::::::>:$#;,8,$-.tttttttttttt",
"ttttttt&OO%% .OOO%%OO..+%&&+OOOOOOO....OOOO .   @#XX..... XX@$$-:::><<><,<<1<181<81981<1188998998891899881889881<18<<,><<>><,>,>,:::;,-$#->9;$>; ttttttttttt",
"tttttt&.OO=O.O+&363&&&22%O%++OOO+++OOOO.OOXX   X#@oX.X.  .X@#$-;::>><,<,>,<8<<88111988<<8888888889881898889988881<1<<1<1,,<<,,>><<:>,>-#$$;1--<#-..ttttttttt",
"tttttt%OOO% OOO+&OO+%%&4=%+%%+OOO++++OOOO     .@oXX....  .X@#$-:::><<,><>><11811881889118<81<11189889999889888898<1<<1,>><1<,>><<,<<,;---$$1;;, o$X tttttttt",
"ttttttOOO32 O.O%&+*%O+%*3&++%+OOOO++++OO oX   oo. X.    XXo@$$-::::><<><<<111891881888188<81<1889989989888818988118<1,>1><<<<,>1<,<<>>;$#$;<-<8XX$X  ttttttt",
"ttttttO++2% ..O&*%**OOOOO&%+%%++OOO++++O X    #X.....   Xo@#--;;;:::,,<<<<88188181811118918818891888989889888988181<,<1<,8,<<<1<,><1>>>;$#><-,9-#$#. ttttttt",
"ttttttO++&....+&&%=3455564&O+%++OOO++++O     o#ooX.      X@#-;;-;:>><><1<<88881<81891<8818818889889888899988998811<<<11<18<,<<<,<,><,><,;-;<$<9>-$#X  tttttt",
"tttttt.OO+ ...+*&+&%+.*&%&=++%OOOOOO++..X   X@. ..     .X@$$$;;;;:>><,<<188181<<1881<<11<881898899999988899891181<<<1,,,<1,>,,<,,>,>>,,>,:>8;<9,>;oX.  ttttt",
"ttttttO+OO ...+&%%*&&4wq632&+%OOOOOO++ X    @#. XX     X@#$--;;;::::<,><1811181<181<111119818888899989818899911811,<1,,<>>,>>,<,,,,>,<,>,;>9-<9,;-..X   tttt",
"ttttttO+O+ ...+&+%**&q  .&3&%&+OOOOO+OX    X@@X       .Xo@$--;;::>:,<>,<<1<18891181<181889881189888888811899181111>,<<,,,,,>,>,>,<,><<,><>>8$19>>- .@    ttt",
"ttttttO%OO ..O%%+%=&=r=O ..OO+++OO+++ ..   ##..      .XX@@#---;:>::<<<<>><188881<11<198198991198881881888998188881,,<1<,,,<,:><<,>>,1>>>:><1#19;,; ..     tt",
"ttttttO%..  .O%%O&&&*6e3 ...OO..OO+%Ooo.  X@.  .      Xo##$---;:>::>,<1,<8181<11<1<1898898888881888898898998<8911<<,,<<,,><,:><,::><<>;$-:1<#1<,,-.        t",
"ttttttO+OO ...%+O%%O. O%*=%  ......O.X    X...       X@$$$:;;:;:>:><,<<,<1<<<<<<1<<8118981899811888998898811<<1<<1>:><>>>,,:>>>>>>>,>$-;>19#$1<$-;.        t",
"tttttt.%O.   O%O+&OO&=%%&&+O    ...O.    XXXX.       X$;$-:;:>>;:;,<<<<<<<<<18118<18119888888888881898891<81<<<<<<>>,<,:<,:,,>>>>>>>:::;<<9$@,$X#-X        t",
"tttttt.&OO  .O% +&+=464&32+..   ... ...  o. . .     X@-;--:>,>>:;:<<<<,<<<<1891811811888898811811<<<11881<881<<<1<<<,,<,,,,,,,>,,>>;;>;,<,9$@;X @#X        t",
"ttttttO&OO ..++ %+&5%  .*=O      .O     XXX        .@$-;--::>,>>><<<11<>,<<<1889111<111199981181<11118881<898<<<<<1<,,,>>,>>>>>>>:>>;;::;19$:$..@@X        t",
"ttttttO&O.  .%+O*&%4*    .O&+ .   O    XX .X..     X@$-$$-:;>>::><,<1<<<>><11181<<<<11<188981181<<89189818981<<<<<<,,,<>>>,:;>,:;>>;--;;,<<$>:X$oXo        t",
"tttttt%%.   ++OO%O.  OO. .. O&=&OO X   X          .@#-;-$$-;:>>:;>,<<1,>><1<1891888181<1881188998881898889811111<,<<,><<1>,>>,,>>>>>;-;::<;$91#o#o@X       t",
"ttttttO%.  +&OO%&OO.O.O%%    .O%&O  o.XooX       .o#@$--:::::::;::>>:><>><<<188198118818991188988888991<88811<<11<<1>>><1<<,<<>::><>><,>,<$#99-o@@#@      tt",
"tttttt.%. .++OO.     .+&%.    O++  .  X          @$-$$$$:::>,::><::>::,>>1<1111198188998888189111<<199118881<1<11,,1<<<<<>><<<<>,,:>,:><<<->98;###$@     ttt",
"ttttttO%. O=%          OOO.      X   o          .@$$$--$:;;>>>,18<,<,:>><8111<18888889811891891<<1<189118881<1<<11811<<<<:><<<<>>,,;;;><,<@<9,;>-#-#    tttt",
"tttttt.+. OO  .. %+      .... O    Xo@. .       o$#$$$-::;;>:;,<11<<,>><1881<<8188881991181<891<111811<1181<<81181<<<1<<,,,<<<<,<<>,,;1;>1o89>::#$>$.   tttt",
"ttttttOO.   ..OOO=76q.O    %*  . X$@X.         $;$#$$$$---:>:>,<<<<<,<<11<18<18<111111911811888818899111<81<1118888<<,>>>,:><<,:11;::,889-$9,$;#@#$$    tttt",
"ttttttO+.  ..O%++    ++    .     .. X.        o;$###$$-;--:::,<<,><<>,<81<<<181<1889888188118888<198881<11<<1<<1888<,>:>>>:,<<,><,:--,><9#;9;$-#@o@$o    ttt",
"ttttttO+ OO O+O..O+ %OO.  % .      .X.       .$-$$$##$:::>>:::>>>:>><<181<<<11188898898118188881<19981881<,<1<<1111<>>,>:>>,<<,>,;::>,>8,@<<o.o@o@@@o     tt",
"ttttttOO.O. .%+%*=6q%O.O .         .X.       $;$##@#$$;--:;;::>>>>>:<18<<<1<111818988981<8119188<<888888<<<88<11111<<>,>,,,,<,>;>;:>><<1<$>,#@##ooo@o     tt",
"tttttOOO O.   ..%==0+O..           .        @$$##@#$$$$$--;::>>>><<<<<8<<1<1<1111889981<111898881118899111181<<1181<,>,:>:,,<>;:;->;>1:1,@>-o##ooX.Xo     tt",
"tttttO..O..       .   .+          o.       @$#$#o@$$$$--;;::;:>><1<><11<18<1111<<188881<81881918811188889<1811<<11<,>,<<,>:><>>;;>>,>;>8>-9,oXXX  ..o.    tt",
"tttttO....  ...       + X         oX .    X#@@##@@$$$-::;;;::::><<<<81<<81<1881<<89889<181181188911881<88119811188,81<<1<>><<>:>:>,,<>>9;$98-#@o.  .X     tt",
"tttttOO........+=&   +            XX  .  .$@@@####-$$-;;;;:::::>>>,1811181<<1881198888<81888188191<881<1111911<<11119<<<<,<<<;;,>,<,<>,1#-99:;##.   X     tt",
"ttttt.O...... .O&%O%%oX.         X...   .#$@@#@##@$$-----;:::::,>:,11<<<11181181<<89811118888811811118811111<<<<<11191<1>>,1<>,>,<<>:>1<@#99<>-$.  ..     tt",
"ttttOOO .... . .+=+%.X          X@X.XX  X###$#$##@$---;:;:::::><<<<<<<<<11898898<<<1188<198181<88111181<11<<,<1<<1<891,<,><<,>>><<,>,,8<#>91<<-X    .     tt",
"ttttO. .OO  ..+O.%*            .     X.o$@##$$$-;;--;::::>:::><<<,<1<<<<<<1111<888881181<1811888888811<>11<<<11<188<<1,,,,>>,,>>>>,:>19>o><$@@$@         ttt",
"ttttO...O..  .++ %  X.       ..  .oX  X#o@##$$$$-$$$-:::::::><<,<>><<<<<<<1881<89811<<<<<<181188818<811<8<,<<1<,<<<8<>><,<<><,,>><<:>18>#,-oX@$@  .      ttt",
"tttO.......  .O++          oX.  .X@#X.oXo@$$$$@###$$;;;:::::>>><<<,<11<<111111188811<<<,<<181188818181881<1<<1<<<<,,>:><,<>><<>,,<,:18<;@,$ o@#@         ttt",
"tttO. ....   .OO            XX  .    X#oo@#-$#$$;;;;;--:::>::,>><<<<11<11<11188111<1<1<<<<11<89888888898<18<><<81<,>>>,,>:>>,<,<,11<,<>$#<:o@#@@          tt",
"ttt. .....  . .           .XX. ..   X@@o@@##@@#$;$;--$;::><>><>::<,,1888<<811981<181<<<<<<1<<11<<8188181111<><11<<1<,:,>::,;>>,>:,<<>>:#$81-##@o           t",
"tt+. ....  ..O           .XX        oX@o@$#@@---;;:-$$$:>>>:><<:><<<<<<<188119881<1188111181<1<1<<11111181,18<<1<<1>>>,,>>,:;:>>>,,,,,1$;8>#;#@X           t",
"ttO   ..   .O     .    ....        Xo X@#$$$$$$$;;;-$-:>>,>::<,:><1<<<><189889881<188988981111181<11<<<111<<1<<111<,:><,>:,;;>>:>;>><<<$>8-#-#@o           t",
"tt   .O    OO     .XX.....         @X.@#$$#$$#$$;;$-::>>>>>::<>:>1<<<>>,181198181<881188<1<<<<881181<11<<<111<<181,<:<<:::,,>>::>;,:11>#>,$#$#@X           t",
"tO   ..   .O  .    .    ..        .XX@@$@@@$-$--;:-;>>>>:;>>><>:,<><<<111<1<88<881881<81<<<<111<<11<1<11<181<<1111>><<,,::,::>>::;:<1<;#,<X@$##X           t",
"t.   ..   .  X   .oX ..       .   X.@@@$@X@$-;;$-::::>>:--:>><1<<<<118111<111<<1811881<<1<>181<<<1<<11111111,,<1<>><:<<<:::::>,>>>><<<>$<,X@$#@.          tt",
"t.  .    .+ XX  .o... .          o##$#@$-;;-----;:;;:::;;;,,,<<11<<1<881<8818<,111118888881<881<18<181811881><<1<><<<81>:->:>>,>;;;,1<-$11--$@@.         ttt",
"tttttttttttttttttttttttttttttttttttttttttttttttttttttttttttttttttttttttttttttttttttttttttttttttttttttttttttttttttttttttttttttttttttttttttttttttttttttttttttt"
};
