/* XPM */
static char *_0585_78b451b8e7fa24b076dd536505755c6428b52b468e5365526b07ca73f1b35719[] = {
/* columns rows colors chars-per-pixel */
"88 138 39 1 ",
"  c black",
". c #040404",
"X c #040810",
"o c #0C0C18",
"O c #100C10",
"+ c #181818",
"@ c #101420",
"# c #14182C",
"$ c #182034",
"% c #242020",
"& c #2C282C",
"* c #383434",
"= c #403C3C",
"- c #202840",
"; c #242C48",
": c #283450",
"> c #2C385C",
", c #344064",
"< c #38446C",
"1 c #3C4C78",
"2 c #4C4848",
"3 c #585050",
"4 c #60585C",
"5 c #6C6064",
"6 c #746C70",
"7 c #807478",
"8 c #405080",
"9 c #48588C",
"0 c #887C80",
"q c #94888C",
"w c #988C90",
"e c #A09498",
"r c #A89CA0",
"t c #ACA4A8",
"y c #B0ACAC",
"u c #B8B0B4",
"i c #CCC4C8",
"p c #ECE8EC",
"a c white",
/* pixels */
"aaaaaaaaaaaaaaaaaaaaaaaaaaaaaaaaaaaaaaaaa%%&%%+%%&%%aaaaaaaaaaaaaaaaaaaaaaaaaaaaaaaaaaaa",
"aaaaaaaaaaaaaaaaaaaaaaaaaaaaaaaaaaaaaa%+O+O+%+++%&&%%+O%aaaaaaaaaaaaaaaaaaaaaaaaaaaaaaaa",
"aaaaaaaaaaaaaaaaaaaaaaaaaaaaaaaaaaaa&OOOO%+%&=2222=&&++O+%aaaaaaaaaaaaaaaaaaaaaaaaaaaaaa",
"aaaaaaaaaaaaaaaaaaaaaaaaaaaaaaaaaaa&%O..+&=33323322=222&+O+aaaaaaaaaaaaaaaaaaaaaaaaaaaaa",
"aaaaaaaaaaaaaaaaaaaaaaaaaaaaaaaaaa%O...%&*+%%+O.O     O&3*O+%aaaaaaaaaaaaaaaaaaaaaaaaaaa",
"aaaaaaaaaaaaaaaaaaaaaaaaaaaaaaaaa+O..+&+ .&=2=3223542*O .&&OO%aaaaaaaaaaaaaaaaaaaaaaaaaa",
"aaaaaaaaaaaaaaaaaaaaaaaaaaaaaaaa+O.OO O%. .O.OO+OO+%O..  +O %%Oaaaaaaaaaaaaaaaaaaaaaaaaa",
"aaaaaaaaaaaaaaaaaaaaaaaaaaaaaaaa+.OO +O .%&&&&*=&&&==%++. ...%%aaaaaaaaaaaaaaaaaaaaaaaaa",
"aaaaaaaaaaaaaaaaaaaaaaaaaaaaaaa+O.O.O. ++%&&**=====&&&&&&%O.OO%+aaaaaaaaaaaaaaaaaaaaaaaa",
"aaaaaaaaaaaaaaaaaaaaaaaaaaaaaaaO.O..  O++&*&*23322=&&&&&&&&+O.+%+aaaaaaaaaaaaaaaaaaaaaaa",
"aaaaaaaaaaaaaaaaaaaaaaaaaaaaaaaO.. ..O++%%&*=33222=&&%+++&&*&O.++aaaaaaaaaaaaaaaaaaaaaaa",
"aaaaaaaaaaaaaaaaaaaaaaaaaaaaaa+.. ..O...O+***=====&&%+%+OOOO+&&.O%aaaaaaaaaaaaaaaaaaaaaa",
"aaaaaaaaaaaaaaaaaaaaaaaaaaaaaaO.. ..O....O&&****==*&%++OOOOOOO&%OO%aaaaaaaaaaaaaaaaaaaaa",
"aaaaaaaaaaaaaaaaaaaaaaaaaaaaaaO. ........O%&&%%&&&%OOOOOOOO+OO+&++%aaaaaaaaaaaaaaaaaaaaa",
"aaaaaaaaaaaaaaaaaaaaaaaaaaaaaaO. ........OO+&&&&%++++OO.OO+%+OO%&O+%aaaaaaaaaaaaaaaaaaaa",
"aaaaaaaaaaaaaaaaaaaaaaaaaaaaaaO  .......OO+OO%%%+O.++O.....OOO.O%%+%aaaaaaaaaaaaaaaaaaaa",
"aaaaaaaaaaaaaaaaaaaaaaaaaaaaaaO ....O...OOO........... ....OOOOOO%%%aaaaaaaaaaaaaaaaaaaa",
"aaaaaaaaaaaaaaaaaaaaaaaaaaaaaa. ................  .     .......O.O%%aaaaaaaaaaaaaaaaaaaa",
"aaaaaaaaaaaaaaaaaaaaaaaaaaaaaa. ..............         ..... ....O+%aaaaaaaaaaaaaaaaaaaa",
"aaaaaaaaaaaaaaaaaaaaaaaaaaaaaaO ........             ........ ...O+%aaaaaaaaaaaaaaaaaaaa",
"aaaaaaaaaaaaaaaaaaaaaaaaaaaaaaO O.......        .     ..........OOO%aaaaaaaaaaaaaaaaaaaa",
"aaaaaaaaaaaaaaaaaaaaaaaaaaaaaaO OO..........................O..O.++%aaaaaaaaaaaaaaaaaaaa",
"aaaaaaaaaaaaaaaaaaaaaaaaaaaaaaO ..............        ........OOO+OOaaaaaaaaaaaaaaaaaaaa",
"aaaaaaaaaaaaaaaaaaaaaaaaaaaaaaO ..                      . ....OOOOO+aaaaaaaaaaaaaaaaaaaa",
"aaaaaaaaaaaaaaaaaaaaaaaaaaaaaaa..                           ...OOOO%aaaaaaaaaaaaaaaaaaaa",
"aaaaaaaaaaaaaaaaaaaaaaaaaaaaaaa. .  .OO+%%%+O. .......         ..OO+aaaaaaaaaaaaaaaaaaaa",
"aaaaaaaaaaaaaaaaaaaaaaaaaaaaaaaO....O%&+O+%&&%%%%+++OO......O+%+..+%aaaaaaaaaaaaaaaaaaaa",
"aaaaaaaaaaaaaaaaaaaaaaaaaaaaaaaOO.OO+%=+.O+%&&%++++++O+O....OO++OOO+aaaaaaaaaaaaaaaaaaaa",
"aaaaaaaaaaaaaaaaaaaaaaaaaaaaaaaOOOO%+......O%%%%+++++++O.OO.O%+O.OO+aaaaaaaaaaaaaaaaaaaa",
"aaaaaaaaaaaaaaaaaaaaaaaaaaaaaaaO+O*=+OO.OOOOO+%%+OOO++OOOO..  .O..O+aaaaaaaaaaaaaaaaaaaa",
"aaaaaaaaaaaaaaaaaaaaaaaaaaaaaaaOOO....OO..O.+%%++OOOOOOOO.  .......+aaaaaaaaaaaaaaaaaaaa",
"aaaaaaaaaaaaaaaaaaaaaaaaaaaaaaaaOOO%+&.    .O%%+OOOOOOO++OO%&OO.  .aaaaaaaaaaaaaaaaaaaaa",
"aaaaaaaaaaaaaaaaaaaaaaaaaaaaaaaaOOO%+&&2233+O+++OOOOOOO+O .++OO . .aaaaaaaaaaaaaaaaaaaaa",
"aaaaaaaaaaaaaaaaaaaaaaaaaaaaaaaaOO.%O+O OOO+.O%++OOO++O%*&%+OO+....aaaaaaaaaaaaaaaaaaaaa",
"aaaaaaaaaaaaaaaaaaaaaaaaaaaaaaaaOOO+O+.+*&.%OO%%+OOOO.O+*p0O+++O..Oaaaaaaaaaaaaaaaaaaaaa",
"aaaaaaaaaaaaaaaaaaaaaaaaaaaaaaaaOO.OOO+&0p3OO.......  ..  *y&%%...Oaaaaaaaaaaaaaaaaaaaaa",
"aaaaaaaaaaaaaaaaaaaaaaaaaaaaaaaaOO...O.77 . ............    OO+...aaaaaaaaaaaaaaaaaaaaaa",
"aaaaaaaaaaaaaaaaaaaaaaaaaaaaaaaaOO.....      . ....... .OOO.OO+O..aaaaaaaaaaaaaaaaaaaaaa",
"aaaaaaaaaaaaaaaaaaaaaaaaaaaaaaaaOO..OOO.OO+%O      .  .O+OOO+O+O.Oaaaaaaaaaaaaaaaaaaaaaa",
"aaaaaaaaaaaaaaaaaaaaaaaaaaaaaaaaaOO.....  O&+..       .O+  .+O+O.Oaaaaaaaaaaaaaaaaaaaaaa",
"aaaaaaaaaaaaaaaaaaaaaaaaaaaaaaaaaO.O.OO&iy +...O+O.   .O.4eO++OO.aaaaaaaaaaaaaaaaaaaaaaa",
"aaaaaaaaaaaaaaaaaaaaaaaaaaaaaaaaaOO+OOOr5....&6743===&+. .33.OOO.aaaaaaaaaaaaaaaaaaaaaaa",
"aaaaaaaaaaaaaaaaaaaaaaaaaaaaaaaaaOO  ...O .    OO..   .  .=%..OOOaaaaaaaaaaaaaaaaaaaaaaa",
"aaaaaaaaaaaaaaaaaaaaaaaaaaaaaaaaaOOO O.             ...    .O.+OOaaaaaaaaaaaaaaaaaaaaaaa",
"aaaaaaaaaaaaaaaaaaaaaaaaaaaaaaaaaO+..+O...O+.     .........OO.+OOaaaaaaaaaaaaaaaaaaaaaaa",
"aaaaaaaaaaaaaaaaaaaaaaaaaaaaaaaaaOO..+.   ++.  ..     .%+ .O+OO.Oaaaaaaaaaaaaaaaaaaaaaaa",
"aaaaaaaaaaaaaaaaaaaaaaaaaaaaaaaaaOO..OO =i%+...+=2+.. OO5p7+OOOOOaaaaaaaaaaaaaaaaaaaaaaa",
"aaaaaaaaaaaaaaaaaaaaaaaaaaaaaaaaaOO.OO3u+.OOO%374&O.....  &2O+OOOaaaaaaaaaaaaaaaaaaaaaaa",
"aaaaaaaaaaaaaaaaaaaaaaaaaaaaaaaaaOO.OO.O+ ...++O  ......  65O+++Oaaaaaaaaaaaaaaaaaaaaaaa",
"aaaaaaaaaaaaaaaaaaaaaaaaaaaaaaaaaOO.++O.++..    ........O.  OOOOOaaaaaaaaaaaaaaaaaaaaaaa",
"aaaaaaaaaaaaaaaaaaaaaaaaaaaaaaaaaOO.O    O.      .     O++.OO%+Oaaaaaaaaaaaaaaaaaaaaaaaa",
"aaaaaaaaaaaaaaaaaaaaaaaaaaaaaaaaaOO.O OO2% OO%56&+.. .OO.qt++%OOaaaaaaaaaaaaaaaaaaaaaaaa",
"aaaaaaaaaaaaaaaaaaaaaaaaaaaaaaaaaOO . O=O            ..O+5%.O+OOaaaaaaaaaaaaaaaaaaaaaaaa",
"aaaaaaaaaaaaaaaaaaaaaaaaaaaaaaaaaO        + oo .X %+     .qw.%OOaaaaaaaaaaaaaaaaaaaaaaaa",
"aaaaaaaaaaaaaaaaaaaaaaaaaaaaaaaaaO     O@$--;::::>:--#+.  . OOOOaaaaaaaaaaaaaaaaaaaaaaaa",
"aaaaaaaaaaaaaaaaaaaaaaaaaaaaaaaaaO    +#-;$#####$$#$-;::$o*+..OOaaaaaaaaaaaaaaaaaaaaaaaa",
"aaaaaaaaaaaaaaaaaaaaaaaaaaaaaaaaaO   &$-@@#@oXo##@@$#o#--::-X. Oaaaaaaaaaaaaaaaaaaaaaaaa",
"aaaaaaaaaaaaaaaaaaaaaaaaaaaaaaaaa.  =#:###@oo#@$-##$$@XX$#-:#XOOaaaaaaaaaaaaaaaaaaaaaaaa",
"aaaaaaaaaaaaaaaaaaaaaaaaaaaaaaaaaO   ;-#o@#o#####---##-#o$o@-@-Oaaaaaaaaaaaaaaaaaaaaaaaa",
"aaaaaaaaaaaaaaaaaaaaaaaaaaaaaaaaa. OXo@@o.o@#$$##o#$$##;;@oo#$;#aaaaaaaaaaaaaaaaaaaaaaaa",
"aaaaaaaaaaaaaaaaaaaaaaaaaaaaaaaaa. =;##@o@#oo##$-;#Xo@@#-:-o.;:-#aaaaaaaaaaaaaaaaaaaaaaa",
"aaaaaaaaaaaaaaaaaaaaaaaaaaaaaaaaaO+$o@@#$@o$$$$--$#-$----$$--oo;--aaaaaaaaaaaaaaaaaaaaaa",
"aaaaaaaaaaaaaaaaaaaaaaaaaaaaaaaaa.+oXo#$o@$@#$$-$--#$;-$#$-$-##>:;-aaaaaaaaaaaaaaaaaaaaa",
"aaaaaaaaaaaaaaaaaaaaaaaaaaaaaaaaaO   ###$-$@XX#;;@$----;@#$$#@o#;$;#aaaaaaaaaaaaaaaaaaaa",
"aaaaaaaaaaaaaaaaaaaaaaaaaaaaaaaaa%#@#@@$-@#$#$#$;:::;;::-:-#@##@@;.;oaaaaaaaaaaaaaaaaaaa",
"aaaaaaaaaaaaaaaaaaaaaaaaaaaaaaaaa+.o#$#@##@o@#$$$;-;:$$-$$-:--#@#$#@-oaaaaaaaaaaaaaaaaaa",
"aaaaaaaaaaaaaaaaaaaaaaaaaaaaaaaaao@@$#$$$@-;#$#--$$$$@@#$#@$@Xo#@#@#o;#aaaaaaaaaaaaaaaaa",
"aaaaaaaaaaaaaaaaaaaaaaaaaaaaaaaaa oo:--$#@@#-;-$--#-#-;$$$-$###@@$$-;#-$aaaaaaaaaaaaaaaa",
"aaaaaaaaaaaaaaaaaaaaaaaaaaaaaaaaa X@;:;;$##$;;;;;-$---#$$#$#$$@@o@$#:-@>:aaaaaaaaaaaaaaa",
"aaaaaaaaaaaaaaaaaaaaaaaaaaaaaaaaa.o#$$#$:-$--$-$-;#--$-##$#$$-#$-$@-o>>#->@aaaaaaaaaaaaa",
"aaaaaaaaaaaaaaaaaaaaaaaaaaaaaaaaa #$#$-$-$$;--:;$-:;$$$$--####$#####$@$X >>.aaaaaaaaaaaa",
"aaaaaaaaaaaaaaaaaaaaaaaaaaaaaaaaa@#$$$$@###$;----$$$$##$;##$#$@#$$$-$-@;>>o-#aaaaaaaaaaa",
"aaaaaaaaaaaaaaaaaaaaaaaaaaaaaaaaao#;-$$$$--:-$-##$$-#$--$-;$#$#--#--#o>>>>-o-aaaaaaaaaaa",
"aaaaaaaaaaaaaaaaaaaaaaaaaaaaaaaaa@#;-$#@$$--;$---$;-$-$$-$$;;$$#-$;:;-$;>-:$;:aaaaaaaaaa",
"aaaaaaaaaaaaaaaaaaaaaaaaaaaaaaaaao###--$#$$;-$--;@##$$$$$-;#$-;-;;::-;;-  o::;:aaaaaaaaa",
"aaaaaaaaaaaaaaaaaaaaaaaaaaaaaaaaa#$-##@@@;$$$;;#$-$;;--;-:$;:$;;--$$$-$-#  #:>-$aaaaaaaa",
"aaaaaaaaaaaaaaaaaaaaaaaaaaaaaaaaa###@@o##-:$;$$-$#-;$$:;-$:;--:-;;$--#@@#$$-$;-$#aaaaaaa",
"aaaaaaaaaaaaaaaaaaaaaaaaaaaaaaaao@@##$#$-$-$-;;$#$-$-;--::-$-:;;;;--$$#@oo@##@@$-aaaaaaa",
"aaaaaaaaaaaaaaaaaaaaaaaaaaaaaaaaXo@$#@@-;--#$-;--$$$$-;--;;$$;-$$--$$$@oXX$$#@o@@aaaaaaa",
"aaaaaaaaaaaaaaaaaaaaaaaaaaaaaaaa@o@@@#$-;--$$$-;-$--$-;-----$---;;;;:$@oo@#$#@@@@aaaaaaa",
"aaaaaaaaaaaaaaaaaaaaaaaaaaaaaaao@@@@@#$----;-$-;--;--$-;-;;;-$$-:--;;;-@@:>;$####$aaaaaa",
"aaaaaaaaaaaaaaaaaaaaaaaaaaaaaaa@##$#@@$--;-$$$$---;;-$--$$---;-$$$-------$#@@#$$##aaaaaa",
"aaaaaaaaaaaaaaaaaaaaaaaaaaaaaaa$-$#$#$##$$--$$$----$$;;---$$$--;-$----$-:-@###$$$@oaaaaa",
"aaaaaaaaaaaaaaaaaaaaaaaaaaaaaaa$-$@@$--$---;-;;$$#$$--$--;-$$$$;:;;-----;-#-;$##$$#aaaaa",
"aaaaaaaaaaaaaaaaaaaaaaaaaaaaaa$-$$$$#$$-:-$##---$$$-;;-------$;---;------;-#$$@@#$@aaaaa",
"aaaaaaaaaaaaaaaaaaaaaaaaaaaaao#---$###$$-$$$$-----$-;;;-;-;;--;:---$$-;;$;;#@$$$$$#aaaaa",
"aaaaaaaaaaaaaaaaaaaaaaaaaaaaa@#$$$#$$$-$$$-------;-$-;;-::>:$$-:;--$-;;;---:>-@$$$#@aaaa",
"aaaaaaaaaaaaaaaaaaaaaaaaaaaaao$$$##$-$$$#$$$-;;;;::;:;;:::;-::;--;$:;;;;$$-;::-$$$$#aaaa",
"aaaaaaaaaaaaaaaaaaaaaaaaaaaa#o@#$#$$-$$$$-;--;;:>>>>:;::-$$---;-;--;--;;;;-$$:>-##$$aaaa",
"aaaaaaaaaaaaaaaaaaaaaaaaaaaao#$$$#$$$$$--$:;-:>::>>:::;;;;---$$---;--::;:-$$-->>-$$$#aaa",
"aaaaaaaaaaaaaaaaaaaaaaaaaaaoo@$-$#$$$-$----;:::::>:::::;;;;$-;-$;;---::;:;$-$$><:$$$$$aa",
"aaaaaaaaaaaaaaaaaaaaaaaaaaao@#--$##@$----;::>>>>>>>>>>>:::::;;:-;:;;;---;--;-$$;:;$$--aa",
"aaaaaaaaaaaaaaaaaaaaaaaaaao#$-;-$$$-$$$$:>::>,>>,><<,,><,,<<>>>:;;;;:--;:;-;;$@-<<:---$a",
"aaaaaaaaaaaaaaaaaaaaaaaaaao@;;--$$$----;>>:>>::>:><<>:>>>><,>::;;;;:::::;-$-$$@@:<:--$$a",
"aaaaaaaaaaaaaaaaaaaaaaaaa@@--;-$$$---;:::::><:>>>,<<><,:>>:::::;;;--::::;;;-;-$#$:>;--$a",
"aaaaaaaaaaaaaaaaaaaaaaaaao$;----$$$--:>:>::>,<>:<<<<<,>>:>:>:;:;;;:---:;:;---;#@;;>--;-$",
"aaaaaaaaaaaaaaaaaaaaaaaao@--$$$----;;:::,>,<<>>:>:><<<,>,>;::;;----$--$#$$-$-:$#::-$$$-$",
"aaaaaaaaaaaaaaaaaaaaaaaao#$$@#$$$-;:,>::>>>:<>,<>:>>,<>:,>>>:;-$----;;-$-$$$$#$$:;:$-$-$",
"aaaaaaaaaaaaaaaaaaaaaaaa@$$@#$#$-$::>>>,,,::><>><:>::<,>::>>:---$$;;;---$$$#@o@-,:>$##$$",
"aaaaaaaaaaaaaaaaaaaaaaaa#$@#$$---;><>>,>>,>18>::><,:><<>,>:::;$$$$---$$-$#$##oX;:-:-@@$$",
"aaaaaaaaaaaaaaaaaaaaaaaao#$$$#$$-::11<<>><<<<<,<<>,,,::>,>;;;;--$$$$$$$--#@#$@@::>;#@@$$",
"aaaaaaaaaaaaaaaaaaaaaaaa@$@@@@#$;::,<><>>1<,18<181<<<,:>>;::;;;:-$;$$$$$$$##@-,;,>@@#@o@",
"aaaaaaaaaaaaaaaaaaaaaaa#$@oXo@--:,><,<<>><8<81<<891,<<:;;:::;;;;-----$#$$$$#@::$<:o@@@@o",
"aaaaaaaaaaaaaaaaaaaaaao@@XXo#$-;:><8<,<,<<1811<<888,,<>:>>::;;-:-$$---$$#@#$->-@;#oo@@@@",
"aaaaaaaaaaaaaaaaaaaaao#oX.X@$;;:>,11<,1118<181188<1,<1,:>:::::-;;-:;--$#@##->>->$o@ooooa",
"aaaaaaaaaaaaaaaaaaaa@#@X.XX@$-;:>><<<,,<<<81881<<181<<,>:::>:---;-;---$#$@@->;-<$ooooXoa",
"aaaaaaaaaaaaaaaaaaaXo#@X.@$$-:>:><1<<<<<<><,1111<199<<<>>:::;:::;:;--$@@#$-;-$-;$oo@oXXa",
"aaaaaaaaaaaaaaaaaaaoX@#XX$-;;:,><<<<<<<,<<<,<188188888<<<:;-::::;::--$#@#;:;@-@o@@@$oXaa",
"aaaaaaaaaaaaaaaaaaaX..@o@-;:::>,<<<11<><<<11<8118811998>1<:;--::;:::--::-->-#,@X@@$@X.aa",
"aaaaaaaaaaaaaaaaaaa   X-;-::::<1<>>11<,<<<<<8188999889988,:;-::;::-;::;;;::#:<#Xoo#@..aa",
"aaaaaaaaaaaaaaaaaaa  .#->>::,<<<<81<1<,<<18<181199881899<>>:;;;:>:-$;:;;>>--:-@XXo@o..aa",
"aaaaaaaaaaaaaaaaaa.@$#-:::,>>><<111<<,<,<81<191188888981<<;;:-;>,:;;;;;:>>$:-@@X.o@X.aaa",
"aaaaaaaaaaaaaaaaaX@$$$;:>>><<><<<818<,1<<1<<89<1899989<888::>;-;:::>:$--::##@@@oXXXXXaaa",
"aaaaaaaaaaaaaaaa@@$$$-;>>,,<<<<,<181<<<<1<<811111<18898998><:-;;::>>;-$#;::-@X.o@X. aaaa",
"aaaaaaaaaaaaaaa@@#$-;;:>:<<1>>,<<188881881188<88<18889899811<:;;;;>,:;-#::>>#X oo.. aaaa",
"aaaaaaaaaaaaaaaX@$-$;;::><1<,>><<<8<19811<181<188898988981811,:;;;;:;--#-;:<$XXo.  .aaaa",
"aaaaaaaaaaaaaaX@#$;:>>:>>><,>,,<8888<181811<11881<<898199988981<:;:;-$--$-::@@#X... aaaa",
"aaaaaaaaaaaaa.@--;:>>><18118<18<<<181188188<<<88<1<898889881<888<>::;-;:::>:@$@XXXX aaaa",
"aaaaaaaaaaaa##$-$->>>:,<<88<<88<<<11888988111<18<1899988118818<<>:;;:;;-#-,1;$@XoX.aaaaa",
"aaaaaaaaaaa#@$;;;:><<,11<<<,<88181118889888<18111<1999988898<1881:;:::;-$;:8,$@oX. aaaaa",
"aaaaaaaaaaa@#;;;>::<<<<<,<<,18<<1<188<<188<,11188118999819998<19<--;;:;$$:,<,-$@X .aaaaa",
"aaaaaaaaaaao#--:>:>>>,,<<<188<<18899981<<8<<1<<<<88<89<1889981111<<>::;;;;;::-;-@X.aaaaa",
"aaaaaaaaaa$#$;:::>>>>11<81<88<188818<<888818<88111911188998881881111>:;;---::@$-$X.aaaaa",
"aaaaaaaaaa@#$;::,,:<<<<188<<818111111<8988<111811<811888898988<<118<:;-;--;;<-#$$o.aaaaa",
"aaaaaaaaa$#$;>>::<,1<>111888888991811881<<<<<<1118988981891<19881<<>--;>;$;;1<$$;$.aaaaa",
"aaaaaaaa$$$-;;>,<<<<,<<11<18111188818981<<1<<<<111<898899888<<891<,>;;::--;;<8;$-;#.aaaa",
"aaaaaaaa##$-:-:<<>><1<>11<,1<188888<1988<11888181<<<811<88981888881<:>>:;--;:>-$$--#aaaa",
"aaaaaaa$#$;;>>>,,<<111<1881888998<11898881818988818818<189998999981<><<-$$$-:<-@$-;$Xaaa",
"aaaaaa$$$->>><<<<1<<<<1188898898881899818198<111<19818118988811888>>,,<>;----<1$$-;;@aaa",
"aaaaaa--$-;><<><1<<<<<8<188998<89888<188888888111881<<<18888<<1188111<8<;--$-:8:##$-$.aa",
"aaaaa-$;--;><<<11<<<118<<89988899<11181118<19889888881<8899988<18998188,:---$$::##;;-Xaa",
"aaaaa;-$;::><1<,<,,<1111889<1189118888881<8<888889<8<118888899811818<,<,<::;-$:;@$-;;@aa",
"aaaa$-;:><,<1<<<<,,<<1<188888188188991881<<,<1<<181888898<81891<<<8881,:<:>>-$;;$-$>>$.a",
"aaa@$-:<>,<<<<<1<<1<18<<<18881881888<<8811<,<81<<81188981<1881811888<1<><:::-$$;$--::$oa",
"aaa@$-:<<,<<<,><1<1<<<18<<181<89988118981<1<<11<<188<898<18888881<<<8<<<<>>,:;$::$::;-@a",
"aa.$-;>>,>>>>>>1<1<><<191<118111888998988<11<881<<1111881<88981181888<88<:,1;$$:<-;;;:-X",
"aoo$;;:::;,<<,<8<1<,,<88891<888<1818898898<<81<1<<1<<<<81<118918811898888,><>;;;:--;::;$",
"aaaaaaaaaaaaaaaaaaaaaaaaaaaaaaaaaaaaaaaaaaaaaaaaaaaaaaaaaaaaaaaaaaaaaaaaaaaaaaaaaaaaaaaa"
};
