/* XPM */
static char *_1949_2e6d843d979092d1698e09748e5d43b68c99dd9dcd44daf4ca10552a06ed090a[] = {
/* columns rows colors chars-per-pixel */
"73 83 64 1 ",
"  c black",
". c #040400",
"X c #040404",
"o c #0C0404",
"O c #180C04",
"+ c #0C0C18",
"@ c #100C10",
"# c #181818",
"$ c #201008",
"% c #28140C",
"& c #301C10",
"* c #3C2014",
"= c #242020",
"- c #2C282C",
"; c #383434",
": c #442418",
"> c #4C2C18",
", c #54301C",
"< c #403C3C",
"1 c #603420",
"2 c #683C24",
"3 c #704028",
"4 c #78442C",
"5 c #4C4848",
"6 c #585050",
"7 c #60585C",
"8 c #6C6064",
"9 c #746C70",
"0 c #844C30",
"q c #8C5438",
"w c #905C3C",
"e c #986444",
"r c #A06C48",
"t c #A87450",
"y c #AC7C58",
"u c #807478",
"i c #B08460",
"p c #B89068",
"a c #BC9870",
"s c #C4A078",
"d c #887C80",
"f c #94888C",
"g c #988C90",
"h c #A09498",
"j c #A89CA0",
"k c #ACA4A8",
"l c #B0ACAC",
"z c #B8B0B4",
"x c #CCAC80",
"c c #D4B08C",
"v c #D8B894",
"b c #C0B8B8",
"n c #DCC49C",
"m c #E4CCA8",
"M c #ECD8B0",
"N c #C8BCC0",
"B c #CCC4C8",
"V c #D4CCD0",
"C c #D8D4D8",
"Z c #E0D8DC",
"A c #E4E0E4",
"S c #ECE8EC",
"D c #F4F0F4",
"F c white",
/* pixels */
"FFFFFFFFFFFFFFFFFFFFFFFFFFFFFFFFFFFFFFFFFFFFFFFFFFFFFFFFFFFFFFFFFFFFFFFFF",
"FFFFFFFFFFFFFFFFFFFFFFFFFFFFFFFFFFFFFFFFFFFFFFFFFFFFFFFFFFFFFFFFFFFFFFFFF",
"FFFFFFFFFF###=##@#@@@@XFFFFFFFFFFFFFFFFFFFFFFFFFFFFFFFFFFFFFFFFFFFFFFFFFF",
"FFFFFFF5;-=-=#=###@#@@@@XFFFFFFFFFFFFFFFFFFFFFFFFFFFFFFFFFFFFFFFFFFFFFFFF",
"FFFFF87<<--=====#=#@@@@@@@XFFFFFFFFFFFFFFFFFFFFFFFFFFFFFFFFFFFFFFFFFFFFFF",
"FFFF9j8<<;--=-=#=###@#@@@@@@XFFFFFFFFFFFFFFFFFFFFFFFFFFFFFFFFFFFFFFFFFFFF",
"FFFFlzu5;<;--=-===#=#@#@#@@@@XFFFFFFFFFFFFFFFFFFFFFFFFFFFFFFFFFFFFFFFFFFF",
"FFFgCCj65;-;--=--==##=##@#@@@@@XFFFFFFFFFFFFFFFFFFFFFFFFFFFFFFFFFFFFFFFFF",
"FFFjzCzd6<;;;-;-=--=-=#=#@#@#@@@@FFFFFFFFFFFFFFFFFFFFFFFFFFFFFFFFFFFFFFFF",
"FFFudkCz85<;<;-;-;<5555;=#@#@@@@@@XFFFFFFFFFFFFFFFFFFFFFFFFFFFFFFFFFFFFFF",
"FFF67uhCz85<;<;<55-@@@-55=###@#@@@@@XFFFFFFFFFFFFFFFFFFFFFFFFFFFFFFFFFFFF",
"FFF5569fCl85<<56-@@##==;<7=#@#@#@@@@@XFFFFFFFFFFFFFFFFFFFFFFFFFFFFFFFFFFF",
"FFF5<568hClu778#@#-<;;-=;;u;=###@#@#@@@XFFFFFFFFFFFFFFFFFFFFFFFFFFFFFFFFF",
"FFF<<<<69jCklf-#-755<;;-=;<d5=#@#@#@@@@@@FFFFFFFFFFFFFFFFFFFFFFFFFFFFFFFF",
"FF=5<;556ujDb<=;dj965<<;;--==#=###@##@@@@@XFFFFFFFFFFFFFFFFFFFFFFFFFFFFFF",
"F;uu;=;<57dVu==9uuf8<<;---=-===#=###@#@@@@@@XFFFFFFFFFFFFFFFFFFFFFFFFFFFF",
"F<577#-5569g5=<8997<<;;-;--=--==#==##@#@#@@@@@FFFFFFFFFFFFFFFFFFFFFFFFFFF",
"F<<57;#-<58d-=678g76<;<;----=-=-==#=##@#@@#@@@@XFFFFFFFFFFFFFFFFFFFFFFFFF",
"F;5<56##-<7u--<6bh965<;;;-;--=-=-=-=============#XFFFFFFFFFFFFFFFFFFFFFFF",
"F=<<<<#@-569-;;8bBg865<<;<-;<55555<5<;--==##@@@@XXXFFFFFFFFFFFFFFFFFFFFFF",
"F#<<5;##<5<8;-;u9hNf765<<565<;=###@@@@@@@@@@#@@@@@@@XFFFFFFFFFFFFFFFFFFFF",
"FF-<<-X#5<575<-f67fzd7567<=###------=-===#=#=###@#@@@XFFFFFFFFFFFFFFFFFFF",
"F-#;<=X#<<<58569577dkf99<=-;;<;;;-;--=-=====##=##@#@@@XFFFFFFFFFFFFFFFFFF",
"F;5=;@X#<<5<5u97<667dkd;=<5<5<<;<;------=-====#=#=##@@@XFFFFFFFFFFFFFFFFF",
"F-;5=--<;<<<55d5-5568g6-<665<5<<;;<-;----=-==#=######@@@XFFFFFFFFFFFFFFFF",
"F=;;6=#;<;<5<<55;6;669-;87765<5<;<;;-;-;--==-===#=####@@XFFFFFFFFFFFFFFFF",
"FF=;;##-;;;<55<5-5;767=6988875<5<<<;<;;-;---=-=-=#=#=##@@FFFFFFFFFFFFFFFF",
"FF#--@#;;;<;<<55;5;7;6=9u999u865<5<<;;;;-;-;---=-=#=##@#@XFFFFFFFFFFFFFFF",
"FFF=#@;-;-;;;<<6-6<7-5#9ud9udu87655<5<;<;;;-;----==#####@@FFFFFFFFFFFFFFF",
"FFF##--;-;-;<<<6;5;6-<=9dfd8ufdu8755<5<;<;<;;-;-==#==##@#XFFFFFFFFFFFFFFF",
"FFFF#=--;-;;<;56;6;5;5#8fjgd9dgjhu865<5<5555555<<-==#=##@XFFFFFFFFFFFFFFF",
"FFFFF#=---;-;<;6;6-6;<#7flzjfdfkNbhd98765<<;;----;;==#=#@@FFFFFFFFFFFFFFF",
"FFFFFF#=-;-;;;<7;6;6-<#6flBCkdghlju5-=============-;==##@@FFFFFFFFFFFFFFF",
"FFFFFF;#=--;-;;7;7-8;<@5ukBSAkhhd6-=====-=--;;;;;-==;==#@@FFFFFFFFFFFFFFF",
"FFFFF<5;#=;-;-<6=6-6-;#<7dzZSNkd;;=-;<<<<<<;;----<-==-##@@FFFFFFFFFFFFFFF",
"FFFF5678=#=--;;<-7;6=<@<68dzNzg8-=-<-=========#==-;#=-=#@XFFFFFFFFFFFFFFF",
"FFFFd8d;+=#=--;;;6-7=;@5578ugfd;=-5=======#=#=====;=#-##@@FFFFFFFFFFFFFFF",
"FFFF-h;@##6#=;--;<-7=<@<<5789uf-=;-===#=======#===;==-=#@XFFFFFFFFFFFFFFF",
"FFFF--@#=8<-#=-;;;;6=;@<555689d#=<#=====#=======#=;#=-=#@XFFFFFFFFFFFFFFF",
"FFFF;-@=8567-#=--;-5-<@;5<5568d=#<===#====#===#==#-=#-##@XFFFFFFFFFFFFFFF",
"FFFF-;@#u8d;XX#=;-;<-;@;<5<5568#=<#====#===#=#=#=#;##-=#@XFFFFFFFFFFFFFFF",
"FFFF--@-5h5XX@X#=--;;;@-<<5<556#=<=#==#=#=#====###-=#-##@XFFFFFFFFFFFFFFF",
"FFFF-;#<;;-X##@X#=---;@;<;<<<56=#<#=#===##=#=##=##-##-=#@XFFFFFFFFFFFFFFF",
"FFFF--#-;-@#-==@X#=-;-@-;<;<5<5#=;=#==##=##=#####=-=#-##@XFFFFFFFFFFFFFFF",
"FFFF-;@=;-#-6;-#@X#=-;@-<;<;<55=#;#==##=#####=####=##-=#@XFFFFFFFFFFFFFFF",
"FFFF@;##-;@;58;=@@X#=-@=;;;<5<5##;=##=###=###=#==#-#@-##@XFFFFFFFFFFFFFFF",
"FFFFF#-@;-#=-<;-@##X#=@-;-;;<<5#=;##=##=###=####=#-##-=#@XFFFFFFFFFFFFFFF",
"FFFFFFF@-;#@=--=####X#@--;;<;<<##-###=####=####=##=@#-=#@XFFFFFFFFFFFFFFF",
"FFFFFFFF--##X@=@@#@#=X=;---;<;5@#-=#####=####=####=#@-##@FFFFFFFFFFFFFFFF",
"FFFFFFFF=-=##XX####=##@@;--<;;5##-########=#####@#-#@-=#@FFFFFFFFFFFFFFFF",
"FFFFFFFFF=;###@#@#@##=##@5-;-;5#@=#=#=#######=#@##=@#-##@FFFFFFFFFFFFFFFF",
"FFFFFFFFFF#<==#@#@##@#==#@<;-;<##=######@##@####@#=@@-=#FFFFFFFFFFFFFFFFF",
"FFFFFFFFFFFFrir0@@@@#@##=#@-;;<@#=@#@#####@###@##@=@@#-@FFFFFFFFFFFFFFFFF",
"FFFFFFFFFFtsxayt010rtiitw0,*=-;#@=###@#@#@#@@#@@@@#$::$FFFFFFFFFFFFFFFFFF",
"FFFFFFFFFeavxsiyrypcmmmnncspe2&@@=@#@#@#@@@@@@@@$>240wq03FFFFFFFFFFFFFFFF",
"FFFFFFFFepvvxapaxvnvvvccvvvnmcpq>##@#@#@@@@@@O:,30wrtipiyr3FFFFFFFFFFFFFF",
"FFFFFFFFtsvcsxvnnvvcsaasssxcvmmxpw,%@@@@@o&:130wrtipasxccxseFFFFFFFFFFFFF",
"FFFFFFFFrpcvnnmmnnvsiyyipassxcvmvsirw0322340wertipsxcvvnmnvxqFFFFFFFFFFFF",
"FFFFFFFFpvmMmmmmnncaitrrtypassxxccxpyrewqwertyiascvnmnmmmmmvsFFFFFFFFFFFF",
"FFFFFFvmmMMmMmmmmnxayewqwetypaaasxcxaitrrrtyipscnnmmnmnmnmMnvFFFFFFFFFFFF",
"FFFFFnmmMmMMMmmnmnsatq4230qetipaassxxspiiipassxvvmnmmmmMmMmmniFFFFFFFFFFF",
"FFFanmmMmMmMmmnmnnsprq2,,120etypaasssxxsaassxxxxvnmmnmMmMmMMmsFFFFFFFFFFF",
"FFsnmmmmMmMmnmmnnvxpe02,,>,,2wtyppasssxxsssxxxxcvvnnmmmMmMMmMxFFFFFFFFFFF",
"FxnmnmMmmnmnmnnnvvxieq2,,>>>>2qrtippasssxxsssxxccvnmnmMMMMMMmcyFFFFFFFFFF",
"Fvnnmnmmnvvnnvvvvvsirw41,>>>>>10eryippasssxsxxcccvnmmmmMMMMMMnsFFFFFFFFFF",
"snnmnmnnvcvnnnnnvcspte03,>>>>>,20wtyippasssxxxcvvvnnmmMMMmMMmmcFFFFFFFFFF",
"svvnnnvcxsscvvvvvvxayrw42,>>>>>,,4wtyyppassxxcvvnnnmnmmMmMMMMmnpFFFFFFFFF",
"pvnvvcxsapasxcnvvcxsiteq42,>>>>>,,2qrtyipassxccvnnnnmmMmMmMMmMmsFFFFFFFFF",
"tvvnxspiytreepcvcncxayteq42,>>>:>>,20eryyppassxxvnnnmmmMmMmMMmmcFFFFFFFFF",
"rsvvspytrewq0rsnvcvxsiyrwq42,,>>:>>,14wrtyppassxxvnvnmmmmmMmmMmnaFFFFFFFF",
"rsvvptrew042,4invvvcxpytew031,>:>:>>,,2qetypsassxxvvnnmnmnmMmmmmxFFFFFFFF",
"rancprq2322,>*ecnvcvcaitteq42,>>:::>>,,20etypssssscvvnnmnmmmmnmmvyFFFFFFF",
"rsmcir01:*&***4annvvcspytrw02,,>>:::>>,13qetypssasxcvvvnmmmnmmmnnpFFFFFFF",
"rxnxie4,*&%%  *tvvvcvxaiyteq4,,,:>:::>>,14qetypasassxcccvnnmnmnmnxFFFFFFF",
"pvmsyw3>*&O    qsvvvvcspytew42,>>:::::>>,13qetyppapaaassxxcnmnmnncpFFFFFF",
"smcatq2:**O.   >pvcvcvxaptrw02,,>::>:>:>,,24qetyppppaaaaaaaxnnnnnnxFFFFFF",
"snspr01>**%$    evvcvcxspyrw03,,,:::::>>,,130wetippapaapappaxnnnnnviFFFFF",
"cspyw4,>:**Oo   qacvccxsapte03,,>::::>:>,,124qwrypasssasaaaasxvnnnnsFFFFF",
"Fite02,,>,>:2,4e4tcccxcxaate02,>::>:::>>,12240qeryaxxxxxxxssssxvnvncpFFFF",
"FFw04F0pct32tptr4exxccxxaptw42,>::::>>>,,22440qwetyaxcvcccspassxvnvvxpFFF",
"FFFFFFFrvxtq4ppptqpccxcxsatw41>::::>>>,,11234qqwerttpsxxxxssssxxcvvnvxpFF",
"FFFFFFFFsnvprtsxsqtxxcxxsprw2,,,,>::>,,,12120qwwerttypsccxxxcvcxccvvvvsaF",
"FFFFFFFFFFFFFFFFFFFFFFFFFFFFFFFFFFFFFFFFFFFFFFFFFFFFFFFFFFFFFFFFFFFFFFFFF"
};
