/* XPM */
static char *_315_2aacac32c29aebe9b867bcd0c8b67dd8e3f90522bad3cb39596ba4d04f1d11a7[] = {
/* columns rows colors chars-per-pixel */
"86 101 101 2 ",
"   c black",
".  c #040400",
"X  c #040404",
"o  c #0C0000",
"O  c #0C0404",
"+  c #180400",
"@  c #180C04",
"#  c #0C0C18",
"$  c #100C10",
"%  c #181818",
"&  c #280400",
"*  c #340804",
"=  c #201008",
"-  c #28140C",
";  c #341C00",
":  c #301C10",
">  c #3C2014",
",  c #242020",
"<  c #2C282C",
"1  c #383434",
"2  c #440C04",
"3  c #541004",
"4  c #601404",
"5  c #701808",
"6  c #442800",
"7  c #583000",
"8  c #442418",
"9  c #4C2C18",
"0  c #54301C",
"q  c #6C3800",
"w  c #403C3C",
"e  c #603420",
"r  c #683C24",
"t  c #704028",
"y  c #78442C",
"u  c #4C4848",
"i  c #585050",
"p  c #60585C",
"a  c #6C6064",
"s  c #746C70",
"d  c #801C08",
"f  c #8C200C",
"g  c #9C240C",
"h  c #AC280C",
"j  c #B82C10",
"k  c #C83010",
"l  c #D83414",
"z  c #804000",
"x  c #A45000",
"c  c #844C30",
"v  c #8C5438",
"b  c #905C3C",
"n  c #D84018",
"m  c #D84C1C",
"M  c #DC5C28",
"N  c #E06830",
"B  c #E47838",
"V  c #986444",
"C  c #A06C48",
"Z  c #A87450",
"A  c #AC7C58",
"S  c #807478",
"D  c #B08460",
"F  c #B89068",
"G  c #BC9870",
"H  c #E88440",
"J  c #EC9048",
"K  c #F0A050",
"L  c #F0AC5C",
"P  c #C4A078",
"I  c #F0B864",
"U  c #F4C474",
"Y  c #F4D07C",
"T  c #887C80",
"R  c #94888C",
"E  c #988C90",
"W  c #A09498",
"Q  c #A89CA0",
"!  c #ACA4A8",
"~  c #B0ACAC",
"^  c #B8B0B4",
"/  c #CCAC80",
"(  c #D4B08C",
")  c #D8B894",
"_  c #C0B8B8",
"`  c #DCC49C",
"'  c #F8D88C",
"]  c #F8E094",
"[  c #E4CCA8",
"{  c #ECD8B0",
"}  c #F8E8A4",
"|  c #FCF0AC",
" . c #C8BCC0",
".. c #CCC4C8",
"X. c #D4CCD0",
"o. c #D8D4D8",
"O. c #E0D8DC",
"+. c #E4E0E4",
"@. c #ECE8EC",
"#. c #F4F0F4",
"$. c white",
/* pixels */
"$.$.$.$.$.$.$.$.$.$.$.$.$.$.$.$.$.$.$.$.$.$.$.$.$.$.$.$.$.$.$.$.$.$.$.$.$.$.$.$.$.$.$.$.$.$.$.$.$.$.$.$.$.$.$.$.$.$.$.$.$.$.$.$.$.$.$.$.$.$.$.$.$.$.$.$.$.$.$.$.$.$.$.$.$.$.",
"$.$.$.$.$.$.$.$.$.$.$.$.$.$.$.$.$.$.$.$.$.$.$.$.$.$.$.$.$.$.$.$.$.$.$.$.$.$.$.$.$.$.$.$.$.$.$.$.$.$.$.$.$.$.$.$.$.$.$.$.$.$.$.$.$.$.$.$.$.$.$.$.$.$.$.$.$.$.$.$.$.$.$.$.$.$.",
"$.$.$.+ $.$.$.$.$.$.$.$.$.$.$.$.$.$.$.$.$.$.$.$.$.$.$.$.$.$.$.$.$.$.$.$.$.$.$.$.$.$.$.$.$.$.$.$.$.$.$.$.$.$.$.$.$.$.$.$.$.$.$.$.$.$.$.$.$.$.$.$.$.$.$.$.$.$.$.$.$.$.$.$.$.$.",
"$.$.$.* 3 * + $.$.$.$.$.$.$.$.$.$.$.$.$.$.$.$.$.$.$.$.$.$.$.$.$.$.$.$.$.$.$.$.$.$.$.$.$.$.$.$.$.$.$.$.$.$.$.$.$.$.$.$.$.$.$.$.$.$.$.$.$.$.$.$.$.$.$.$.$.$.$.$.$.$.$.$.$.$.$.",
"$.$.$.5 5 f 3 3 2 3 & $.$.$.$.$.$.$.$.$.$.$.$.$.$.$.$.$.$.$.$.$.$.$.$.$.$.$.$.$.$.$.$.$.$.$.$.$.$.$.$.$.$.$.$.$.$.$.$.$.$.$.$.$.$.$.$.$.$.$.$.$.$.$.$.$.$.$.$.$.$.$.$.$.$.$.",
"$.$.$.2 3 f f 5 d f f 5 3 4 * $.$.$.$.$.$.$.$.$.$.$.$.$.$.$.$.$.$.$.$.$.$.$.$.$.$.$.$.$.$.$.$.$.$.$.$.$.$.$.$.$.$.$.$.$.$.$.$.$.$.$.$.$.$.$.$.$.$.$.$.$.$.$.$.$.$.$.$.$.$.$.",
"$.$.$.4 d j f f n m l h f j g d f d 5 3 & $.$.$.$.$.$.$.$.$.$.$.$.$.$.$.$.$.$.$.$.$.$.$.$.$.$.$.$.$.$.$.$.$.$.$.$.$.$.$.$.$.$.$.$.$.$.$.$.$.$.$.$.$.$.$.$.$.$.$.$.$.$.$.$.$.",
"$.$.& d j N n m N B N M n m n k l M B M l j h 5 * $.$.$.$.$.$.$.$.$.$.$.$.$.$.$.$.$.$.$.$.$.$.$.$.$.$.$.$.$.$.$.$.$.$.$.$.$.$.$.$.$.$.$.$.$.$.$.$.$.$.$.$.$.$.$.$.$.$.$.$.$.",
"$.$.4 k m B N H H K K H B N M N N M N B B B N m m j d 3 $.$.$.$.$.$.$.$.$.$.$.$.$.$.$.$.$.$.$.$.$.$.$.$.$.$.$.$.$.$.$.$.$.$.$.$.$.$.$.$.$.$.$.$.$.$.$.$.$.$.$.$.$.$.$.$.$.$.",
"$.$.d n M M B B J J L K K H N B J H B H H N H B M N B N l g 3 $.$.$.$.$.$.$.$.$.$.$.$.$.$.$.$.$.$.$.$.$.$.$.$.$.$.$.$.$.$.$.$.$.$.$.$.$.$.$.$.$.$.$.$.$.$.$.$.$.$.$.$.$.$.$.",
"$.$.h n M N B N H K I K J B B H J H J J K H N H K H H H N M N k 3 $.$.$.$.$.$.$.$.$.$.$.$.$.$.$.$.$.$.$.$.$.$.$.$.$.$.$.$.$.$.$.$.$.$.$.$.$.$.$.$.$.$.$.$.$.$.$.$.$.$.$.$.$.",
"$.$.k m N H J B K I L K H J K U I L K J J I K K J K K H K K B M M h + $.$.$.$.$.$.$.$.$.$.$.$.$.$.$.$.$.$.$.$.$.$.$.$.$.$.$.$.$.$.$.$.$.$.$.$.$.$.$.$.$.$.$.$.$.$.$.$.$.$.$.",
"$.$.n M N B J K K L L K J K L I Y I I I K K U U K I K L L J L B n B l 2 $.$.$.$.$.$.$.$.$.$.$.$.$.$.$.$.$.$.$.$.$.$.$.$.$.$.$.$.$.$.$.$.$.$.$.$.$.$.$.$.$.$.$.$.$.$.$.$.$.$.",
"$.& m m B J J I U U L L K K U ] | ] ' Y I L I Y Y I I K H K I J n M g j 3 $.$.$.$.$.$.$.$.$.$.$.$.$.$.$.$.$.$.$.$.$.$.$.$.$.$.$.$.$.$.$.$.$.$.$.$.$.$.$.$.$.$.$.$.$.$.$.$.$.",
"$.2 m n N B K L I Y ' I U Y ] | | | ' Y ' U U Y Y U L H N J U U M N j f h 3 $.$.$.$.$.$.$.$.$.$.$.$.$.$.$.$.$.$.$.$.$.$.$.$.$.$.$.$.$.$.$.$.$.$.$.$.$.$.$.$.$.$.$.$.$.$.$.$.",
"$.5 M n m N H L L Y Y ' U I Y ] } ] Y ' Y ' ' ] ' U Y I K K U L H J N k j d & $.$.$.$.$.$.$.$.$.$.$.$.$.$.$.$.$.$.$.$.$.$.$.$.$.$.$.$.$.$.$.$.$.$.$.$.$.$.$.$.$.$.$.$.$.$.$.",
"$.d N N M B K L L U Y U I Y U Y ] ] } | } } ' ' ] ] Y Y L U L K L K J N l m f o $.$.$.$.$.$.$.$.$.$.$.$.$.$.$.$.$.$.$.$.$.$.$.$.$.$.$.$.$.$.$.$.$.$.$.$.$.$.$.$.$.$.$.$.$.$.",
"$.g M B B J L Y Y U I U ' Y | | ' ' | | | | } | | ] ' Y Y U Y L J L H B N N j 3 $.$.$.$.$.$.$.$.$.$.$.$.$.$.$.$.$.$.$.$.$.$.$.$.$.$.$.$.$.$.$.$.$.$.$.$.$.$.$.$.$.$.$.$.$.$.",
"$.k N H K L Y } ] ] Y ' ] ] | | | | | #.| #.#.| | #.#.#.| | ] Y Y L H J B M l d   $.$.$.$.$.$.$.$.$.$.$.$.$.$.$.$.$.$.$.$.$.$.$.$.$.$.$.$.$.$.$.$.$.$.$.$.$.$.$.$.$.$.$.$.$.",
"& l B J K U I ] ] ] ] Y ] ] | | #.| #.#.#.| #.#.#.#.| | #.| #.} U U I K K B m j   $.$.$.$.$.$.$.$.$.$.$.$.$.$.$.$.$.$.$.$.$.$.$.$.$.$.$.$.$.$.$.$.$.$.$.$.$.$.$.$.$.$.$.$.$.",
"3 n J K K K Y Y Y | #.} | | #.#.| #.#.#.#.#.#.#.#.#.#.#.#.#.#.#.} Y L I K B M l + $.$.$.$.$.$.$.$.$.$.$.$.$.$.$.$.$.$.$.$.$.$.$.$.$.$.$.$.$.$.$.$.$.$.$.$.$.$.$.$.$.$.$.$.$.",
"5 M H K U K ' ] ' ] | | | | | | #.| [ ` [ { ) ) ( / ) ` { ( P F Z G L I I N N l & $.$.$.$.$.$.$.$.$.$.$.$.$.$.$.$.$.$.$.$.$.$.$.$.$.$.$.$.$.$.$.$.$.$.$.$.$.$.$.$.$.$.$.$.$.",
"f M H L K U U ' } } | | #.| #.#.` ( ( / ) ) / P D D F G P F D C b v b A H m N k * $.$.$.$.$.$.$.$.$.$.$.$.$.$.$.$.$.$.$.$.$.$.$.$.$.$.$.$.$.$.$.$.$.$.$.$.$.$.$.$.$.$.$.$.$.",
"h N J B I Y Y Y ] } | #.| #.#.) P P ( P P P P F F F A Z V C b y y y c c b j m j * $.$.$.$.$.$.$.$.$.$.$.$.$.$.$.$.$.$.$.$.$.$.$.$.$.$.$.$.$.$.$.$.$.$.$.$.$.$.$.$.$.$.$.$.$.",
"h N N B U Y U ' ' ] #.#.#.#.{ ` P F P G D D Z Z A A Z b c t r r t t y t t e d d * $.$.$.$.$.$.$.$.$.$.$.$.$.$.$.$.$.$.$.$.$.$.$.$.$.$.$.$.$.$.$.$.$.$.$.$.$.$.$.$.$.$.$.$.$.",
"j M H K Y Y ' Y ' | #.#.#.| [ { ( F D D A V b v b V C b y r y r e e t 0 e 0 e > & $.$.$.$.$.$.$.$.$.$.$.$.$.$.$.$.$.$.$.$.$.$.$.$.$.$.$.$.$.$.$.$.$.$.$.$.$.$.$.$.$.$.$.$.$.",
"j m B J L Y ' ] ' #.#.| #.` [ [ [ P A C V v c c y c v t r r r 0 0 e e 9 0 > 0 : - X $.$.$.$.$.$.$.$.$.$.$.$.$.$.$.$.$.$.$.$.$.$.$.$.$.$.$.$.$.$.$.$.$.$.$.$.$.$.$.$.$.$.$.$.",
"g m J J J L ' } ] | #.#.#.( / ) { ( F A C V v y e t e 9 e e 0 > % , % - 8 - = O O $ $ $.$.$.$.$.$.$.$.$.$.$.$.$.$.$.$.$.$.$.$.$.$.$.$.$.$.$.$.$.$.$.$.$.$.$.$.$.$.$.$.$.$.$.",
"d m B L I ' I ' | #.| #.#.` ( F ) ` / D A C c y t e e 1 w u u u u 1 , % $ % $ $ $ $ $ $ X $.$.$.$.$.$.$.$.$.$.$.$.$.$.$.$.$.$.$.$.$.$.$.$.$.$.$.$.$.$.$.$.$.$.$.$.$.$.$.$.$.",
"4 n M K K U Y Y ' | #.| #.{ { G D ( ) G Z b y c y t u u < $ $ $ < u u , % % % $ % $ $ $ $ $ X $.$.$.$.$.$.$.$.$.$.$.$.$.$.$.$.$.$.$.$.$.$.$.$.$.$.$.$.$.$.$.$.$.$.$.$.$.$.$.",
"2 j M J J I Y ' Y | | #.#.{ ( P Z A P ~ a u y y u i < $ $ % % , , 1 w p , % $ % $ % $ $ $ $ $ X $.$.$.$.$.$.$.$.$.$.$.$.$.$.$.$.$.$.$.$.$.$.$.$.$.$.$.$.$.$.$.$.$.$.$.$.$.$.",
"+ h M B L U U Y ' ] #.| #.) F C C F W o.~ S p p a % $ % $         , 1 1 S 1 , % % % $ % $ % $ $ $ X $.$.$.$.$.$.$.$.$.$.$.$.$.$.$.$.$.$.$.$.$.$.$.$.$.$.$.$.$.$.$.$.$.$.$.$.",
"$.5 n N K I Y U Y ' | #.) Z V v c Z s Q o.! ~ R < % % $ 6 ;         , 1 w T u , % $ % $ % $ $ $ $ $ $ $.$.$.$.$.$.$.$.$.$.$.$.$.$.$.$.$.$.$.$.$.$.$.$.$.$.$.$.$.$.$.$.$.$.$.",
"$.& k M H L I L U Y ] #.Z V v e y u i S Q #._ w , , , q z 7 ;     $ , < < , , % , % % % $ % % $ $ $ $ $ X $.$.$.$.$.$.$.$.$.$.$.$.$.$.$.$.$.$.$.$.$.$.$.$.$.$.$.$.$.$.$.$.$.",
"$.$.f m B J L L Y ' ' D Z C e e 0 w u p T X.S , , E 1 1 q x q , 1 < < < , < , , , % , % % % $ % $ $ $ $ $ $ X $.$.$.$.$.$.$.$.$.$.$.$.$.$.$.$.$.$.$.$.$.$.$.$.$.$.$.$.$.$.$.",
"$.$.+ n m H J K I U Y C Z V c e < u u i s E u , w a W s p w w 1 1 < 1 < < , < < , , % , , % % $ % $ % $ $ $ $ $ $.$.$.$.$.$.$.$.$.$.$.$.$.$.$.$.$.$.$.$.$.$.$.$.$.$.$.$.$.$.",
"$.$.$.3 m N B J K K I Z C Z V e % < w u a T < , i p a E p i w 1 w 1 < < < < , < , < , , % , % % $ % $ $ % $ $ $ $ X $.$.$.$.$.$.$.$.$.$.$.$.$.$.$.$.$.$.$.$.$.$.$.$.$.$.$.$.",
"$.$.$.$.5 n N B J J K D C V b u % % < w p S < < w i _ W s i u w 1 1 1 < 1 < < , < , < , < , , , , , , , , , , , , , % X $.$.$.$.$.$.$.$.$.$.$.$.$.$.$.$.$.$.$.$.$.$.$.$.$.$.",
"$.$.$.$.$.3 n N B H J J C V C w % $ < u i s < 1 1 a _ ..E a i u w w 1 w < 1 w u u u u u w u w 1 < < , , % % $ $ $ $ X X X $.$.$.$.$.$.$.$.$.$.$.$.$.$.$.$.$.$.$.$.$.$.$.$.$.",
"$.$.$.$.$.$.+ f n M B H c b y 1 % % w u w a 1 < 1 S s W  .R p i u w w u i u w 1 , % % % $ $ $ $ $ $ $ $ $ $ % $ $ $ $ $ $ $ X $.$.$.$.$.$.$.$.$.$.$.$.$.$.$.$.$.$.$.$.$.$.$.",
"$.$.$.$.$.$.$.$.& 4 g k v r w < X % u w u p u w < R i p R ^ T p u i p w , % % % < < < < < < , < , , , % , % , % % % $ % $ $ $ X $.$.$.$.$.$.$.$.$.$.$.$.$.$.$.$.$.$.$.$.$.$.",
"$.$.$.$.$.$.$.$.$.$.$.< % 1 w , X % w w w u a u i s u p p T ! R s s w , < 1 1 w 1 1 1 < 1 < < , < , , , , , % % , % % $ % $ $ $ X $.$.$.$.$.$.$.$.$.$.$.$.$.$.$.$.$.$.$.$.$.",
"$.$.$.$.$.$.$.$.$.$.$.1 u , 1 $ X % w w u w u S s p w i i p T ! T 1 , w u w u w w 1 w 1 < < < < < < , < , , , , % , % , % % $ $ $ X $.$.$.$.$.$.$.$.$.$.$.$.$.$.$.$.$.$.$.$.",
"$.$.$.$.$.$.$.$.$.$.$.< 1 u , < < w 1 w w w u u T u < u u i a E i < w i i u w u w w 1 1 w < 1 < < < < , < , , % , % % % % % % $ $ $ X $.$.$.$.$.$.$.$.$.$.$.$.$.$.$.$.$.$.$.",
"$.$.$.$.$.$.$.$.$.$.$., 1 1 i , % 1 w 1 w u w w u u 1 i 1 i i s < 1 a p p i u w u w 1 w 1 1 < 1 < 1 < < , , < , , , % , % % % % $ $ X $.$.$.$.$.$.$.$.$.$.$.$.$.$.$.$.$.$.$.",
"$.$.$.$.$.$.$.$.$.$.$.$., 1 1 % % < 1 1 1 w u u w u < u 1 p i p , i s a a a p u w u w w w 1 w 1 1 < 1 < < < , < , < , % , % , % % $ $ $.$.$.$.$.$.$.$.$.$.$.$.$.$.$.$.$.$.$.",
"$.$.$.$.$.$.$.$.$.$.$.$.% < < $ % 1 1 1 w 1 w w u u 1 u 1 p 1 i , s S s s s S a i u w u w w 1 1 1 1 < 1 < 1 < < < , < , % , % % $ % $ X $.$.$.$.$.$.$.$.$.$.$.$.$.$.$.$.$.$.",
"$.$.$.$.$.$.$.$.$.$.$.$.$., % $ 1 < 1 < 1 1 1 w w i < i w p < u % s S T s S T S a p i u u w u w 1 w 1 1 1 < 1 < < < < , , % % % % % $ $ $.$.$.$.$.$.$.$.$.$.$.$.$.$.$.$.$.$.",
"$.$.$.$.$.$.$.$.$.$.$.$.$.% % < < 1 < 1 < 1 w w w i 1 u 1 i < w , s T R T a S R T S a p u u w u w 1 w 1 w 1 1 < 1 < , , % , , % % $ % X $.$.$.$.$.$.$.$.$.$.$.$.$.$.$.$.$.$.",
"$.$.$.$.$.$.$.$.$.$.$.$.$.$.% , < < 1 < 1 1 w 1 u i 1 i 1 u 1 u % a R Q E T s T E Q W S a i u w u w u u u u u u u w w < , , % , % % $ X $.$.$.$.$.$.$.$.$.$.$.$.$.$.$.$.$.$.",
"$.$.$.$.$.$.$.$.$.$.$.$.$.$.$.% , < < < 1 < 1 w 1 i 1 i < i 1 w % p R ~ ^ Q R T R !  ._ W T s a p i u w w 1 1 < < < < 1 1 , , % , % $ $ $.$.$.$.$.$.$.$.$.$.$.$.$.$.$.$.$.$.",
"$.$.$.$.$.$.$.$.$.$.$.$.$.$.$.$.% , < 1 < 1 1 1 w p 1 i 1 i < w % i R ~ ..o.! T E W ~ Q S u < , , , , , , , , , , , , , < 1 , , % % $ $ $.$.$.$.$.$.$.$.$.$.$.$.$.$.$.$.$.$.",
"$.$.$.$.$.$.$.$.$.$.$.$.$.$.$.$.1 % , < < 1 < 1 1 p 1 p < a 1 w $ u S ! ..@.+.! W W T i < , , , , , < , < < 1 1 1 1 1 < , , 1 , , % $ $ $.$.$.$.$.$.$.$.$.$.$.$.$.$.$.$.$.$.",
"$.$.$.$.$.$.$.$.$.$.$.$.$.$.$.w u 1 % , 1 < 1 < w i , i < i < 1 % w p T ^ O.@. .! T 1 1 , < 1 w w w w w w 1 1 < < < < w < , , < % % $ $ $.$.$.$.$.$.$.$.$.$.$.$.$.$.$.$.$.$.",
"$.$.$.$.$.$.$.$.$.$.$.$.$.$.u i p a , % , < < 1 1 w < p 1 i , w $ w i a T ^  .^ E a < , < w < , , , , , , , , , % , , < 1 % , < , % $ X $.$.$.$.$.$.$.$.$.$.$.$.$.$.$.$.$.$.",
"$.$.$.$.$.$.$.$.$.$.$.$.$.$.T a T 1 # , % , < < 1 1 1 i < p , 1 $ u u p a S E R T 1 , < u , , , , , , , % , % , , , , , 1 , % < % % $ $ $.$.$.$.$.$.$.$.$.$.$.$.$.$.$.$.$.$.",
"$.$.$.$.$.$.$.$.$.$.$.$.$.$.< W 1 $ % % i % , 1 < < 1 w < p , w $ w w u p a s S R < , 1 < , , , % , , , , , , , % , , , 1 , , < , % $ X $.$.$.$.$.$.$.$.$.$.$.$.$.$.$.$.$.$.",
"$.$.$.$.$.$.$.$.$.$.$.$.$.$.< < $ % , a w < % , < 1 1 1 1 i , 1 $ w u u u i a s T % , w % , , , , , % , , , , , , , % , 1 % , < , % $ X $.$.$.$.$.$.$.$.$.$.$.$.$.$.$.$.$.$.",
"$.$.$.$.$.$.$.$.$.$.$.$.$.$.1 < $ , a u i p < % , < < 1 < u < w $ 1 u w u u i a T , % w , , , % , , , , % , , , % , , % < , % < % % $ X $.$.$.$.$.$.$.$.$.$.$.$.$.$.$.$.$.$.",
"$.$.$.$.$.$.$.$.$.$.$.$.$.$.< 1 $ % S a T 1 X X % , 1 < 1 w < 1 $ 1 w u w u u i a % , w % , , , , % , , , % , % , % , % 1 % % < , % $ X $.$.$.$.$.$.$.$.$.$.$.$.$.$.$.$.$.$.",
"$.$.$.$.$.$.$.$.$.$.$.$.$.$.< < $ < u W u X X $ X % , < < 1 1 1 $ < w w u w u u i % , w , % , , % , % , % , , , , % % % < , % < % % $ X $.$.$.$.$.$.$.$.$.$.$.$.$.$.$.$.$.$.",
"$.$.$.$.$.$.$.$.$.$.$.$.$.$.< 1 % w 1 1 < X % % $ X % , < < < 1 $ 1 w 1 w w w u i , % w % , % , , , % % , % , % % , % % < % % < , % $ X $.$.$.$.$.$.$.$.$.$.$.$.$.$.$.$.$.$.",
"$.$.$.$.$.$.$.$.$.$.$.$.$.$.< < % < 1 < $ % < , , $ X % , < 1 < $ < 1 w 1 w u w u % , 1 , % , , % % , % % , % % % % % , < , % < % % $ X $.$.$.$.$.$.$.$.$.$.$.$.$.$.$.$.$.$.",
"$.$.$.$.$.$.$.$.$.$.$.$.$.$.< 1 $ , 1 < % < i 1 < % $ X % , < 1 $ < w 1 w 1 w u u , % 1 % , , % % , % % % % % , % % % % , % % < , % $ X $.$.$.$.$.$.$.$.$.$.$.$.$.$.$.$.$.$.",
"$.$.$.$.$.$.$.$.$.$.$.$.$.$.$ 1 % % < 1 $ 1 u a 1 , $ $ X % , < $ , 1 1 1 w u w u % % 1 , % % , % % % , % % % , % , , % < % $ < % % $ X $.$.$.$.$.$.$.$.$.$.$.$.$.$.$.$.$.$.",
"$.$.$.$.$.$.$.$.$.$.$.$.$.$.$.% < $ 1 < % , < w 1 < $ % % X % , $ < 1 < 1 1 w w u % , 1 % % , % % , % % % , % % % % , % < % % < , % $ X $.$.$.$.$.$.$.$.$.$.$.$.$.$.$.$.$.$.",
"$.$.$.$.$.$.$.$.$.$.$.$.$.$.$.$.$.$ < 1 % $ , < < , % % % % X % $ < < 1 1 w 1 w w % % < % % % , % % % % , % % % % , % % , $ % < , % $ X $.$.$.$.$.$.$.$.$.$.$.$.$.$.$.$.$.$.",
"$.$.$.$.$.$.$.$.$.$.$.$.$.$.$.$.$.$.< < % % X $ , $ $ % $ % , X , 1 < < < 1 w 1 u $ % < , % % % % % , % % % % , % % % % , % $ < % % $ $.$.$.$.$.$.$.$.$.$.$.$.$.$.$.$.$.$.$.",
"$.$.$.$.$.$.$.$.$.$.$.$.$.$.$.$.$.$., < , % % X X % % % % , % % $ $ 1 < < w 1 1 u % % < % % % % % % % % , % % % % % $ % < % $ < , % $ $.$.$.$.$.$.$.$.$.$.$.$.$.$.$.$.$.$.$.",
"$.$.$.$.$.$.$.$.$.$.$.$.$.$.$.$.$.$.$., 1 % % % $ % $ % $ % % , % % $ u < 1 < 1 u % $ , % , % , % % % % % % % , % $ % % , $ % < % % $ $.$.$.$.$.$.$.$.$.$.$.$.$.$.$.$.$.$.$.",
"$.$.$.$.$.$.$.$.$.$.$.$.$.$.$.$.$.$.$.$.% w , , % $ % $ % % $ % , , % $ w 1 < 1 w % % , % % % % % % $ % % $ % % % % $ % , $ $ < , % $.$.$.$.$.$.$.$.$.$.$.$.$.$.$.$.$.$.$.$.",
"$.$.$.$.$.$.$.$.$.$.$.$.$.$.$.$.$.$.$.$.$.$.C D C c $ $ $ $ % $ % % , % $ < 1 1 w $ % , $ % $ % % % % % $ % % % $ % % $ , $ $ % < $ $.$.$.$.$.$.$.$.$.$.$.$.$.$.$.$.$.$.$.$.",
"$.$.$.$.$.$.$.$.$.$.$.$.$.$.$.$.$.$.$.$.Z P / G A Z c e c C Z D D Z b c 0 > , < 1 % $ , % % % $ % $ % $ % $ $ % $ $ $ $ % = 8 8 = $.$.$.$.$.$.$.$.$.$.$.$.$.$.$.$.$.$.$.$.$.",
"$.$.$.$.$.$.$.$.$.$.$.$.$.$.$.$.$.$.$.V G ) / P D A C A F ( [ [ [ ` ` ( P F V r : $ $ , $ % $ % $ % $ $ $ $ $ $ $ $ = 9 r y c b v c t $.$.$.$.$.$.$.$.$.$.$.$.$.$.$.$.$.$.$.",
"$.$.$.$.$.$.$.$.$.$.$.$.$.$.$.$.$.$.V F ) ) / G F G / ) ` ) ) ) ( ( ) ) ) ` [ ( F v 9 % % $ % $ % $ $ $ $ $ $ @ 8 0 t c b C Z D F D A C t $.$.$.$.$.$.$.$.$.$.$.$.$.$.$.$.$.",
"$.$.$.$.$.$.$.$.$.$.$.$.$.$.$.$.$.$.Z P ) ( P / ) ` ` ) ) ( P G G P P P / ( ) [ [ / F b 0 - $ $ $ $ $ O : 8 e t c b C Z D F G P / ( ( / P V $.$.$.$.$.$.$.$.$.$.$.$.$.$.$.$.",
"$.$.$.$.$.$.$.$.$.$.$.$.$.$.$.$.$.$.C F ( ) ` ` [ [ ` ` ) P D A A D F G P P / ( ) [ ) P D C b c t r r t y c b V C Z D F P / ( ) ) ` [ ` ) / v $.$.$.$.$.$.$.$.$.$.$.$.$.$.$.",
"$.$.$.$.$.$.$.$.$.$.$.$.$.$.$.$.$.$.F ) [ { [ [ [ [ ` ` ( G D Z C C Z A F G P P / / ( ( / F A C V b v b V C Z A D G P ( ) ` [ ` [ [ [ [ [ ) P $.$.$.$.$.$.$.$.$.$.$.$.$.$.$.",
"$.$.$.$.$.$.$.$.$.$.$.$.$.$.$.$.) [ [ { { [ { [ [ [ [ ` / G A V b v b V Z A F G G G P / ( / G D Z C C C Z A D F P ( ` ` [ [ ` [ ` [ ` [ { ` ) $.$.$.$.$.$.$.$.$.$.$.$.$.$.$.",
"$.$.$.$.$.$.$.$.$.$.$.$.$.$.$.` [ [ { [ { { { [ [ ` [ ` P G Z v y r t c v V Z D F G G P P / / P F D D D F G P P / ) ) [ ` [ [ [ [ { [ { [ [ ` D $.$.$.$.$.$.$.$.$.$.$.$.$.$.",
"$.$.$.$.$.$.$.$.$.$.$.$.$.G ` [ [ { [ { [ { [ [ ` [ ` ` P F C v r 0 0 e r c V Z A F G G P P P / / P G G P P / / / / ) ` [ [ ` [ { [ { [ { { [ P $.$.$.$.$.$.$.$.$.$.$.$.$.$.",
"$.$.$.$.$.$.$.$.$.$.$.$.P ` [ [ [ [ { [ { [ ` [ [ ` ` ) / F V c r 0 0 9 0 0 r b Z A F F G P P P / / P P P / / / / ( ) ) ` ` [ [ [ { [ { { [ { / $.$.$.$.$.$.$.$.$.$.$.$.$.$.",
"$.$.$.$.$.$.$.$.$.$.$./ ` [ ` [ { [ [ ` [ ` [ ` ` ` ) ) / D V v r 0 0 9 9 9 9 r v C Z D F F G P P P / / P P P / / ( ( ) ` [ ` [ { { { { { { [ ( A $.$.$.$.$.$.$.$.$.$.$.$.$.",
"$.$.$.$.$.$.$.$.$.$.$.) ` ` [ ` [ [ ` ) ) ` ` ) ) ) ) ) P D C b y e 0 9 9 9 9 9 e c V C A D F F G P P P / P / / ( ( ( ) ` [ [ [ [ { { { { { { ` P $.$.$.$.$.$.$.$.$.$.$.$.$.",
"$.$.$.$.$.$.$.$.$.$.P ` ` [ ` [ ` ` ) ( ) ` ` ` ` ` ) ( P F Z V c t 0 9 9 9 9 9 0 r c b Z A D F F G P P P / / / ( ) ) ) ` ` [ [ { { { [ { { [ [ ( $.$.$.$.$.$.$.$.$.$.$.$.$.",
"$.$.$.$.$.$.$.$.$.$.P ) ) ` ` ` ) ( / P P ( ) ) ) ) ) ) / G A C b y r 0 9 9 9 9 9 0 0 y b Z A A F F G P P / / ( ) ) ` ` ` [ ` [ [ { [ { { { { [ ` F $.$.$.$.$.$.$.$.$.$.$.$.",
"$.$.$.$.$.$.$.$.$.$.F ) ` ) ) ( / P G F G P / ( ` ) ) ( / P D Z V v y r 0 9 9 9 9 9 0 0 r v C Z A D F G P P / ( ( ) ` ` ` ` [ [ { [ { [ { { [ { [ P $.$.$.$.$.$.$.$.$.$.$.$.",
"$.$.$.$.$.$.$.$.$.$.Z ) ) ` / P F D A Z C V V F ( ) ( ` ( / G A Z V v y r 0 9 9 9 8 9 9 0 r c V C A A F F G P P / / ) ` ` ` [ [ [ { [ { [ { { [ [ ( $.$.$.$.$.$.$.$.$.$.$.$.",
"$.$.$.$.$.$.$.$.$.$.C P ) ) P F A Z C V b v c C P ` ) ( ) / P D A C b v y r 0 0 9 9 8 9 9 0 e y b C Z A F F G P P / / ) ` ) ` [ [ [ [ [ { [ [ { [ ` G $.$.$.$.$.$.$.$.$.$.$.",
"$.$.$.$.$.$.$.$.$.$.C P ) ) F Z C V b c y r 0 y D ` ) ) ) ( / F A Z V b c t e 0 9 8 9 8 9 9 0 0 r v V Z A F P G P P / / ) ) ` ` [ ` [ ` [ { [ [ [ [ / $.$.$.$.$.$.$.$.$.$.$.",
"$.$.$.$.$.$.$.$.$.$.C G ` ( F C v r t r r 0 9 > V ( ` ) ( ) ( G D Z Z V v y r 0 9 9 8 8 8 9 9 0 0 r c V Z A F P P P P P ( ) ) ` ` [ ` [ [ [ [ ` [ [ ) A $.$.$.$.$.$.$.$.$.$.",
"$.$.$.$.$.$.$.$.$.$.C P [ ( D C c e 8 > : > > > y G ` ` ) ) ( P F A Z C b c r 0 0 9 9 8 8 8 9 9 0 e t v V Z A F P P G P / ( ) ) ) ` [ [ [ ` [ [ [ ` ` F $.$.$.$.$.$.$.$.$.$.",
"$.$.$.$.$.$.$.$.$.$.C / ` / D V y 0 > : - -     > Z ) ) ) ( ) / G D A Z V v y 0 0 0 8 9 8 8 8 9 9 0 e y v V Z A F G P G P P / ( ( ( ) ` ` [ ` [ ` [ ` / $.$.$.$.$.$.$.$.$.$.",
"$.$.$.$.$.$.$.$.$.$.F ) [ P A b t 9 > : @         v P ) ) ) ) ( P F A Z V b y r 0 9 9 8 8 8 8 8 9 9 0 e t v V Z A F F G F G G G P P / / ( ` [ ` [ ` ` ( F $.$.$.$.$.$.$.$.$.",
"$.$.$.$.$.$.$.$.$.$.P [ ( G Z v r 8 > > @ .       9 F ) ( ) ( ) / G F Z C b c r 0 0 9 8 8 9 8 9 8 9 0 0 r y v V Z A F F F F G G G G G G G / ` ` ` ` ` ` / $.$.$.$.$.$.$.$.$.",
"$.$.$.$.$.$.$.$.$.$.P ` P F C c e 9 > > - =         V ) ) ( ) ( / P F A C b c t 0 0 0 8 8 8 8 8 9 9 0 0 e t c b V Z D F F G F G G F G F F G / ` ` ` ` ` ) D $.$.$.$.$.$.$.$.",
"$.$.$.$.$.$.$.$.$.$.( P F A b y 0 9 8 > > @ O       v G ( ) ( ( / P G F Z V c t 0 0 9 8 8 8 8 9 8 9 0 0 e r y v b C A F G P P P G P G G G G P / ) ` ` ` ` P $.$.$.$.$.$.$.$.",
"$.$.$.$.$.$.$.$.$.$.$.D Z V c r 0 0 9 0 9 8 r 0 y V y Z ( ( ( / ( / G G Z V c r 0 9 8 8 9 8 8 8 9 9 0 e r r y c v V C A G / / / / / / / P P P P / ) ` ) ` ( F $.$.$.$.$.$.$.",
"$.$.$.$.$.$.$.$.$.$.$.$.b c y $.c F ( Z t r Z F Z C y V / / ( ( / / G F Z b y r 0 9 8 8 8 8 9 9 9 0 0 r r y y c v b V Z A G / ( ) ( ( ( P F G P P / ) ` ) ) / F $.$.$.$.$.$.",
"$.$.$.$.$.$.$.$.$.$.$.$.$.$.$.$.$.C ) / Z v y F F F Z v F ( ( / ( / P G Z b y e 9 8 8 8 8 9 9 9 0 0 e e r t y v v b V C Z Z F P / / / / P P P P / / ( ) ) ` ) / F $.$.$.$.$.",
"$.$.$.$.$.$.$.$.$.$.$.$.$.$.$.$.$.$.P ` ) F C Z P / P v Z / / ( / / P F C b r 0 0 0 0 9 8 8 9 0 0 0 e r e r c v b b V C Z Z A F P ( ( / / / ( ) ( / ( ( ) ) ) ) P G $.$.$.$."
};
