/* XPM */
static char *_6825_47a8598ce1a144212458a4205c4b6256c96b89b720c35c64eb4c2ef4ee143d3d[] = {
/* columns rows colors chars-per-pixel */
"73 98 102 2 ",
"   c black",
".  c #040400",
"X  c #040404",
"o  c #080804",
"O  c #180C04",
"+  c #0C0C18",
"@  c #100C10",
"#  c #141010",
"$  c #1C1414",
"%  c #181818",
"&  c #340804",
"*  c #201008",
"=  c #28140C",
"-  c #341C00",
";  c #201C18",
":  c #301C10",
">  c #28201C",
",  c #3C2014",
"<  c #242020",
"1  c #2C282C",
"2  c #383434",
"3  c #541004",
"4  c #601404",
"5  c #701808",
"6  c #442800",
"7  c #583000",
"8  c #442418",
"9  c #4C2C18",
"0  c #54301C",
"q  c #6C3800",
"w  c #403C3C",
"e  c #603420",
"r  c #683C24",
"t  c #704028",
"y  c #78442C",
"u  c #4C4848",
"i  c #585050",
"p  c #60585C",
"a  c #6C6064",
"s  c #746C70",
"d  c #801C08",
"f  c #8C200C",
"g  c #9C240C",
"h  c #AC280C",
"j  c #B82C10",
"k  c #C83010",
"l  c #D83414",
"z  c #804000",
"x  c #904800",
"c  c #A45000",
"v  c #844C30",
"b  c #8C5438",
"n  c #905C3C",
"m  c #D84018",
"M  c #D84C1C",
"N  c #DC5C28",
"B  c #D47430",
"V  c #E06830",
"C  c #E47838",
"Z  c #986444",
"A  c #A06C48",
"S  c #A87450",
"D  c #AC7C58",
"F  c #807478",
"G  c #B08460",
"H  c #B89068",
"J  c #BC9870",
"K  c #E88440",
"L  c #EC9048",
"P  c #F0A050",
"I  c #F0AC5C",
"U  c #C4A078",
"Y  c #F0B864",
"T  c #F4C474",
"R  c #F4D07C",
"E  c #887C80",
"W  c #94888C",
"Q  c #988C90",
"!  c #A09498",
"~  c #A89CA0",
"^  c #ACA4A8",
"/  c #B0ACAC",
"(  c #B8B0B4",
")  c #CCAC80",
"_  c #D4B08C",
"`  c #D8B894",
"'  c #C0B8B8",
"]  c #DCC49C",
"[  c #F8D88C",
"{  c #F8E094",
"}  c #E4CCA8",
"|  c #ECD8B0",
" . c #F8E8A4",
".. c #FCF0AC",
"X. c #C8BCC0",
"o. c #CCC4C8",
"O. c #D4CCD0",
"+. c #D8D4D8",
"@. c #E4E0E4",
"#. c #ECE8EC",
"$. c #F4F0F4",
"%. c white",
/* pixels */
"%.%.%.%.%.%.%.%.%.%.%.%.%.%.%.%.%.%.%.%.%.%.%.%.%.%.%.%.%.%.%.%.%.%.%.%.%.%.%.%.%.%.%.%.%.%.%.%.%.%.%.%.%.%.%.%.%.%.%.%.%.%.%.%.%.%.%.%.%.%.%.%.%.",
"%.%.%.g 5 %.%.%.%.%.%.%.%.%.%.%.%.%.%.%.%.%.%.%.%.%.%.%.%.%.%.%.%.%.%.%.%.%.%.%.%.%.%.%.%.%.%.%.%.%.%.%.%.%.%.%.%.%.%.%.%.%.%.%.%.%.%.%.%.%.%.%.%.",
"%.%.%.d M j d g & %.%.%.%.%.%.%.%.%.%.%.%.%.%.%.%.%.%.%.%.%.%.%.%.%.%.%.%.%.%.%.%.%.%.%.%.%.%.%.%.%.%.%.%.%.%.%.%.%.%.%.%.%.%.%.%.%.%.%.%.%.%.%.%.",
"%.%.%.3 V N j g l N h 5 & %.%.%.%.%.%.%.%.%.%.%.%.%.%.%.%.%.%.%.%.%.%.%.%.%.%.%.%.%.%.%.%.%.%.%.%.%.%.%.%.%.%.%.%.%.%.%.%.%.%.%.%.%.%.%.%.%.%.%.%.",
"%.%.%.%.N C K V l l N V l N k g 5 %.%.%.%.%.%.%.%.%.%.%.%.%.%.%.%.%.%.%.%.%.%.%.%.%.%.%.%.%.%.%.%.%.%.%.%.%.%.%.%.%.%.%.%.%.%.%.%.%.%.%.%.%.%.%.%.",
"%.%.%.%.m V K P N V C K P L V V C N l 5 %.%.%.%.%.%.%.%.%.%.%.%.%.%.%.%.%.%.%.%.%.%.%.%.%.%.%.%.%.%.%.%.%.%.%.%.%.%.%.%.%.%.%.%.%.%.%.%.%.%.%.%.%.",
"%.%.%.%.M m C L C K P P K C K L P C C V V l 5 %.%.%.%.%.%.%.%.%.%.%.%.%.%.%.%.%.%.%.%.%.%.%.%.%.%.%.%.%.%.%.%.%.%.%.%.%.%.%.%.%.%.%.%.%.%.%.%.%.%.",
"%.%.%.5 N l V K K I I L P Y I P C V V L P K V k 5 %.%.%.%.%.%.%.%.%.%.%.%.%.%.%.%.%.%.%.%.%.%.%.%.%.%.%.%.%.%.%.%.%.%.%.%.%.%.%.%.%.%.%.%.%.%.%.%.",
"%.%.%.h V N V L P I P K P L P I P P K C K V V C K f %.%.%.%.%.%.%.%.%.%.%.%.%.%.%.%.%.%.%.%.%.%.%.%.%.%.%.%.%.%.%.%.%.%.%.%.%.%.%.%.%.%.%.%.%.%.%.",
"%.%.%.j C L C C L I L P L I Y P Y Y I Y L C K L V V l %.%.%.%.%.%.%.%.%.%.%.%.%.%.%.%.%.%.%.%.%.%.%.%.%.%.%.%.%.%.%.%.%.%.%.%.%.%.%.%.%.%.%.%.%.%.",
"%.%.%.m K L C K L I Y T I T T Y T R [ Y P I T I P K N h %.%.%.%.%.%.%.%.%.%.%.%.%.%.%.%.%.%.%.%.%.%.%.%.%.%.%.%.%.%.%.%.%.%.%.%.%.%.%.%.%.%.%.%.%.",
"%.%.3 M L P P L I T T I Y T { ..$.$.$.$.$.$...{ T I I C 5 %.%.%.%.%.%.%.%.%.%.%.%.%.%.%.%.%.%.%.%.%.%.%.%.%.%.%.%.%.%.%.%.%.%.%.%.%.%.%.%.%.%.%.%.",
"%.%.h N K L I I I T T [ ..$.$.$.$.$.$.$.$.$.$.$.$...[ L N = %.%.%.%.%.%.%.%.%.%.%.%.%.%.%.%.%.%.%.%.%.%.%.%.%.%.%.%.%.%.%.%.%.%.%.%.%.%.%.%.%.%.%.",
"%.%.l V C L P I T T ..$.$.$.| | } ` ) J G G H H S S H T L 4 %.%.%.%.%.%.%.%.%.%.%.%.%.%.%.%.%.%.%.%.%.%.%.%.%.%.%.%.%.%.%.%.%.%.%.%.%.%.%.%.%.%.%.",
"%.%.N C I P I I T $.$.$.` G H U U H G U J J G S Z n n A S b O %.%.%.%.%.%.%.%.%.%.%.%.%.%.%.%.%.%.%.%.%.%.%.%.%.%.%.%.%.%.%.%.%.%.%.%.%.%.%.%.%.%.",
"%.%.M V L I I T ..$.$.G G D S G G S D G G D Z b v v b n Z r , %.%.%.%.%.%.%.%.%.%.%.%.%.%.%.%.%.%.%.%.%.%.%.%.%.%.%.%.%.%.%.%.%.%.%.%.%.%.%.%.%.%.",
"%.%.l l L I T T $.$.J G G A S S Z Z A Z S Z b y r r 0 0 r : O @ X %.%.%.%.%.%.%.%.%.%.%.%.%.%.%.%.%.%.%.%.%.%.%.%.%.%.%.%.%.%.%.%.%.%.%.%.%.%.%.%.",
"%.%.h M C I T  .$.G J J G D S S Z Z n v y v r 0 e 0 9 8 , O @ @ @ X %.%.%.%.%.%.%.%.%.%.%.%.%.%.%.%.%.%.%.%.%.%.%.%.%.%.%.%.%.%.%.%.%.%.%.%.%.%.%.",
"%.%.3 M V I T $._ G A D G G A b v b y t r 0 9 8 , : : : O @ % % @ @ X %.%.%.%.%.%.%.%.%.%.%.%.%.%.%.%.%.%.%.%.%.%.%.%.%.%.%.%.%.%.%.%.%.%.%.%.%.%.",
"%.%.%.h l L T ..` ) D n A Z v r 9 e e 8 : < % < % % % < % % % @ @ @ @ X %.%.%.%.%.%.%.%.%.%.%.%.%.%.%.%.%.%.%.%.%.%.%.%.%.%.%.%.%.%.%.%.%.%.%.%.%.",
"%.%.%.5 m V P _ ) ` U S n y 1 2 1 1 1 < 1 < < < < % < % % % @ % @ % @ @ X %.%.%.%.%.%.%.%.%.%.%.%.%.%.%.%.%.%.%.%.%.%.%.%.%.%.%.%.%.%.%.%.%.%.%.%.",
"%.%.%.%.f N C H U ) ` H s u 2 2 1 2 1 1 < < < % < < % < % % % % % @ % @ @ X %.%.%.%.%.%.%.%.%.%.%.%.%.%.%.%.%.%.%.%.%.%.%.%.%.%.%.%.%.%.%.%.%.%.%.",
"%.%.%.%.%.h M J D U #.' W a u 2 2 1 2 1 1 < 1 < < % < % < % < % @ % @ @ @ @ X %.%.%.%.%.%.%.%.%.%.%.%.%.%.%.%.%.%.%.%.%.%.%.%.%.%.%.%.%.%.%.%.%.%.",
"%.%.%.%.%.%.f A y S O.$.' E p w 2 2 1 2 1 1 < < < < < < % % % % % % % % @ @ @ @ %.%.%.%.%.%.%.%.%.%.%.%.%.%.%.%.%.%.%.%.%.%.%.%.%.%.%.%.%.%.%.%.%.",
"%.%.%.%.%.%.b b r F ^ +.@.~ E i w 1 1 1 1 < 1 < 1 < % < % < % % < % % @ % @ @ @ @ %.%.%.%.%.%.%.%.%.%.%.%.%.%.%.%.%.%.%.%.%.%.%.%.%.%.%.%.%.%.%.%.",
"%.%.%.%.%.% y e 8 a E ^ O.' ! s u 2 2 1 1 1 1 1 < < < < < % < % % % % % @ % @ @ @ @ %.%.%.%.%.%.%.%.%.%.%.%.%.%.%.%.%.%.%.%.%.%.%.%.%.%.%.%.%.%.%.",
"%.%.%.%.< i 2 8 2 i E E ^ O.' W a w 2 1 2 1 1 2 1 1 < 1 < 1 < < < % < % % % @ % @ @ @ %.%.%.%.%.%.%.%.%.%.%.%.%.%.%.%.%.%.%.%.%.%.%.%.%.%.%.%.%.%.",
"%.%.%.%.2 i i w 2 w s s E ^ o.^ E p 2 2 1 1 2 1 2 2 w w u u w < % < % % % % % @ % @ @ @ %.%.%.%.%.%.%.%.%.%.%.%.%.%.%.%.%.%.%.%.%.%.%.%.%.%.%.%.%.",
"%.%.%.%.u u i u 2 2 i s F E / ' Q s u 2 2 2 w u p u 2 % @ @ < i < < < % < % @ % @ % @ @ @ %.%.%.%.%.%.%.%.%.%.%.%.%.%.%.%.%.%.%.%.%.%.%.%.%.%.%.%.",
"%.%.%.%.u i u i 2 2 u s s E W / ^ W a u u a a w < % @ @ @ @ < 2 u 1 < < % % % % % @ @ @ @ @ X %.%.%.%.%.%.%.%.%.%.%.%.%.%.%.%.%.%.%.%.%.%.%.%.%.%.",
"%.%.%.%.u u i u w 2 2 a a s F Q / ! E a F i < % @ @ @ @ X X % 1 w w 1 < % < % < % % @ % @ @ @ X %.%.%.%.%.%.%.%.%.%.%.%.%.%.%.%.%.%.%.%.%.%.%.%.%.",
"%.%.%.%.u i u u u 2 2 i p a s F ! ^ ~ E 2 % % @ % X X X X X X < 2 p w 1 < % < % % @ % % @ @ @ @ X %.%.%.%.%.%.%.%.%.%.%.%.%.%.%.%.%.%.%.%.%.%.%.%.",
"%.%.%.%.1 u u w u < 1 u p p a s W ~ F 2 < % % . o     X X X X X 1 2 s 2 1 < < % % % % @ % % @ @ @ X %.%.%.%.%.%.%.%.%.%.%.%.%.%.%.%.%.%.%.%.%.%.%.",
"%.%.%.%.%.1 u u w % % w i p p a F W w < % < o ; $ o   o X X X X % w u W 2 1 < < < % % % % @ @ @ @ @ X %.%.%.%.%.%.%.%.%.%.%.%.%.%.%.%.%.%.%.%.%.%.",
"%.%.%.%.i w 2 u 2 % < u i i p p F a < < < 6 - 7 7 $ o   # X X X X 1 i i F 1 % < % < % < % % @ % @ @ @ X %.%.%.%.%.%.%.%.%.%.%.%.%.%.%.%.%.%.%.%.%.",
"%.%.%.%.u F u 2 1 % 1 i u u i p F w 1 < 7 q 6 > q 7 $ o   # % 2 u p u w < < < < < % % % % @ % @ @ @ @ @ X %.%.%.%.%.%.%.%.%.%.%.%.%.%.%.%.%.%.%.%.",
"%.%.%.%.w u s w 2 1 2 u u i u i a 1 1 1 7 7 x 6 7 c q $ < i i u 2 1 1 < 1 < < % < < % < % % % % @ % @ @ @ X %.%.%.%.%.%.%.%.%.%.%.%.%.%.%.%.%.%.%.",
"%.%.%.%.w w w a % % w w u u i u p 1 1 % 6 6 q B z z c u p w w 2 1 1 1 1 < < 1 < < % < % % % % @ % @ % @ @ @ X %.%.%.%.%.%.%.%.%.%.%.%.%.%.%.%.%.%.",
"%.%.%.%.1 w 2 w % % 2 u w u u i a w 2 1 7 6 7 q B c F i w w 2 1 2 1 2 1 1 < < < < < % < % < % % % % @ @ @ @ @ @ %.%.%.%.%.%.%.%.%.%.%.%.%.%.%.%.%.",
"%.%.%.%.%.2 w < % 1 w w u w u u s u 2 2 < 7 6 x x ~ a w w 2 2 2 1 1 1 1 < 1 < < 1 < < % < % % % < % @ % @ @ @ @ @ %.%.%.%.%.%.%.%.%.%.%.%.%.%.%.%.",
"%.%.%.%.%.% < 1 < 2 2 w w w u w p s 2 2 2 - 7 q ' ! F w 2 w 2 1 2 1 2 1 1 < < 1 < < 1 < 1 < % < % % % % @ @ @ @ @ @ %.%.%.%.%.%.%.%.%.%.%.%.%.%.%.",
"%.%.%.%.%.X < 1 1 1 2 2 w u w u i p a 2 w 1 6 p ! ( W i w 2 2 2 2 2 1 1 1 1 1 < 1 < < < % < < % < % % @ % @ % @ @ @ @ X %.%.%.%.%.%.%.%.%.%.%.%.%.",
"%.%.%.%.%.%.% < 1 2 1 w 2 w u w u i s u w u @ s E ^ ! a w 2 w 2 2 1 2 1 2 1 1 1 < < 1 < < < % < % < % % @ % @ % % < % @ X %.%.%.%.%.%.%.%.%.%.%.%.",
"%.%.%.%.%.%.%.% < 1 2 2 w w w w w u i a w w 2 E s W ^ E u w 2 w 2 2 1 2 1 2 1 2 1 2 2 w 2 w 2 2 2 < 2 < < 1 < < < % < @ @ X %.%.%.%.%.%.%.%.%.%.%.",
"%.%.%.%.%.%.%.%.% < 1 1 2 2 w w u w i s p w w F a s ! ! a 2 w 2 2 2 2 w u u w 2 2 1 1 < < % % @ @ X X X X X X X X X X X X X X %.%.%.%.%.%.%.%.%.%.",
"%.%.%.%.%.%.%.%.% < 1 2 1 2 2 w w u w u a w w F p p F ! E i 2 w w u i u 1 < % % % < < < 1 1 1 1 < 1 < % < < % < % % @ @ @ @ @ X %.%.%.%.%.%.%.%.%.",
"%.%.%.%.%.%.%.%.2 % < 1 1 2 1 2 w w u w i s w s u p a E Q s i u p i 1 % < 1 1 2 2 1 2 1 2 1 1 < 1 < < < < % < % % @ % @ @ @ @ @ X %.%.%.%.%.%.%.%.",
"%.%.%.%.%.%.%.w u 2 % < 2 1 2 2 w 2 w u u i E s w i p s W Q F a i % 1 w u u w 2 2 2 2 2 1 1 1 1 < 1 < < % < % < % % % % @ @ @ @ @ @ %.%.%.%.%.%.%.",
"%.%.%.%.%.%.u i p a < % < 1 1 2 2 w 2 w u u i a w p u a F W F i % 2 u u i i u w 2 2 2 1 2 1 2 1 1 < 1 < < < < < % % % @ % @ @ @ @ @ @ %.%.%.%.%.%.",
"%.%.%.%.%.%.E a E 2 + < % < 1 2 1 2 w w w u u p w p w p a F p % 1 u a s F s p u w w 2 2 1 2 1 1 1 1 1 < 1 < < % < % < % @ @ % @ @ @ @ @ %.%.%.%.%.",
"%.%.%.%.%.%.1 ! 2 @ % % i % < 1 2 2 2 w u w u i 2 p w p i s w % u s a F W ~ E a u w w 2 2 1 2 1 2 1 1 1 < < < < < < % % % @ @ % @ @ @ @ X %.%.%.%.",
"%.%.%.%.%.%.1 1 @ % < a w 1 % 1 1 2 1 2 w w w u 1 i w p u a % 1 a E a a E ~ Q E a u w w 2 2 1 2 1 1 1 < 1 < 1 < < % < % % % % @ @ @ @ @ @ X %.%.%.",
"%.%.%.%.%.%.2 1 @ < a u i p 1 1 2 1 2 w 2 w u i 2 i 2 i w i % w E E s a a Q ! E F p u w 2 w 2 1 2 1 2 1 1 1 < 1 < < % < % % @ % @ % @ @ @ X %.%.%.",
"%.%.%.%.%.%.1 2 @ % F a E 2 X < 1 1 2 1 2 2 w u 1 u 1 p w i % i ~ E F a p s W W F a i u w 2 w 2 2 2 1 1 1 < 1 < < < < % % % % @ % @ @ @ @ @ X %.%.",
"%.%.%.%.%.%.1 1 @ 1 u ! u X X % < 1 1 2 1 w 2 u 1 i 2 i 2 u % a ' Q F a p p a F F s p u w w 2 w 2 1 2 1 2 1 1 1 < 1 < < % < % % @ % @ @ @ @ X %.%.",
"%.%.%.%.%.%.1 2 % w 2 2 1 X % @ % < 1 1 2 2 2 w 1 u 1 i 2 w % s +.' E s a p p a s s a i u w w 2 2 2 1 2 1 2 1 1 1 < 1 < < % % % % @ @ @ @ @ X %.%.",
"%.%.%.%.%.%.1 1 @ % 1 1 1 @ % % @ % 1 1 1 2 1 u 1 u 1 u 1 w % s #.O.! s a p i p a s a i u w 2 w 2 2 2 2 2 1 1 2 1 1 < < % < % @ % % @ % @ @ @ %.%.",
"%.%.%.%.%.%.% 1 @ @ 2 1 < % < < % X < 1 1 1 2 u 1 w 1 w 1 2 @ a O.#.X.W a a p i p s s p u w w 2 2 w 2 2 1 2 2 1 1 1 1 1 < < % % % @ % @ @ @ @ %.%.",
"%.%.%.%.%.%.%.1 @ @ 1 2 < < 2 1 < @ X < 1 1 2 w 1 w 1 u 1 2 % p ( O.@./ F a p p p a s p i u w w w 2 2 w 2 2 1 2 1 2 1 < < % < % % % % @ @ @ @ %.%.",
"%.%.%.%.%.%.%.%.% @ 1 1 < % 1 u 1 % X % < 1 1 2 1 u 1 w 1 1 % i W / O.X.Q s a p p p s a i u u w w w w 2 w w w u u u w 2 < < % < % % @ % @ @ @ %.%.",
"%.%.%.%.%.%.%.%.%.@ 2 1 < @ < 1 < % X X % < 1 1 1 w 1 w 1 2 @ u s Q / ' / E a a p p a s p i u u u i u i i i i i i i i u 2 1 < % % @ % @ @ @ @ %.%.",
"%.%.%.%.%.%.%.%.%.%.1 1 < % @ % % @ X X @ % 1 1 1 2 1 2 1 1 % w a F W ! ~ ! F s a a F s F s a i u w 2 1 < % % % % % < 2 i u < < % % @ @ @ @ @ %.%.",
"%.%.%.%.%.%.%.%.%.%.% 1 < @ % @ X X X @ @ @ < 1 1 1 1 1 1 1 @ 2 i a s F E ! Q E F F W F i 2 % % % % % % % % < < < < % % % 2 u < % @ % @ @ @ @ %.%.",
"%.%.%.%.%.%.%.%.%.%.%.1 w < % @ X @ @ % @ @ @ < 1 2 1 2 1 < @ 2 u u i p a s F F F ~ s 2 % % < < % % @ @ @ X X X @ % < 1 % % 2 w < % @ % @ @ X %.%.",
"%.%.%.%.%.%.%.%.%.%.%.%.% w 1 % @ @ % @ @ % @ % < 1 1 1 2 1 % 2 w u w u i p p a E E 2 < < % @ X X X X X X X @ X X @ @ % 1 % % i 2 @ % @ @ @ @ %.%.",
"%.%.%.%.%.%.%.%.%.%.%.%.%.%.%.%.%.@ @ @ % @ @ @ % 1 < 2 1 < @ 1 w w u w u u i p W a 1 1 @ X X @ X X @ @ X @ X @ @ X @ @ % < % 1 w % @ % @ @ X %.%.",
"%.%.%.%.%.%.%.%.%.%.%.%.%.%.%.%.%.%.@ % % % @ % @ < 1 1 1 < @ 1 2 w w u w u u i F 2 1 % X X X X @ @ @ X @ @ @ @ @ @ @ @ @ < % % i % % @ @ @ X %.%.",
"%.%.%.%.%.%.%.%.%.%.%.%.%.%.%.%.%.%.%.@ % < % % % @ < < < % X < w 2 w w u u w u s 1 1 X X X @ @ @ @ @ @ @ @ % % % % % % % % < % w @ % % @ @ @ %.%.",
"%.%.%.%.%.%.%.%.%.%.%.%.%.%.%.%.%.%.%.%.% % < % < % @ < 1 < @ 1 2 2 w 2 w w w u p 1 < X X @ @ @ @ % % % % % % % % % % % % % < % w % % @ @ @ X %.%.",
"%.%.%.%.%.%.%.%.%.%.%.%.%.%.%.%.%.%.%.%.%.< % < % % @ % < % X < 1 2 2 w 2 w 2 w p 1 1 X X @ @ @ % % % % % % % % % % % % % % 1 % 2 % @ % @ % %.%.%.",
"%.%.%.%.%.%.%.%.%.%.%.%.%.%.%.%.%.%.%.%.%.%.% % % @ % @ % % @ < 2 1 2 2 w 2 2 2 p < 1 X X @ @ @ % % % % % % % % % % % % % @ < % w % % @ @ @ %.%.%.",
"%.%.%.%.%.%.%.%.%.%.%.%.%.%.%.%.%.D J H D A n t 0 % % @ @ % X < 1 2 1 2 2 1 2 2 p 1 < X X @ @ @ % % % @ % % % % % % @ % % % < % w % @ @ @ @ %.%.%.",
"%.%.%.%.%.%.%.%.%.%.%.%.%.%.%.D ) ) H D D Z v t 0 0 @ % @ @ X % < 1 2 1 1 2 2 1 p < 1 X X @ @ @ % % % % % % @ % % % % % @ % 1 % 2 @ % @ @ % %.%.%.",
"%.%.%.%.%.%.%.%.%.%.%.%.%.%.J ] ) H D S Z v v r 8 9 9 @ % @ X < 1 1 < 1 2 1 1 2 p < 1 X X @ @ @ % % % % % % % % % @ % % % @ 1 % 2 % @ @ @ @ %.%.%.",
"%.%.%.%.%.%.%.%.%.%.%.%.%.D _ ) J G S A v v y r , , e % @ @ X % < < 1 < < 1 2 1 p % 1 X X @ @ @ % % @ % @ % % @ % % % @ % % 1 % 2 % % @ @ @ %.%.%.",
"%.%.%.%.%.%.%.%.%.%.%.%.J | ) J G D A b v b r 0 8 9 0 9 @ @ @ % < < < < 1 < 1 < i < < X X @ @ @ % % % % % @ % % @ % @ % @ @ 1 % 1 @ % @ @ @ %.%.%.",
"%.%.%.%.%.%.%.%.%.%.%.%.` ] ) J G S b t r e 9 8 0 r 8 0 % % @ % % < < < < 1 < 1 i % 1 X X @ @ @ % @ % @ % % @ @ % @ @ @ @ % < % 2 % @ % @ X %.%.%.",
"%.%.%.%.%.%.%.%.%.%.%.S ) ) ) H D Z t 0 0 8 , 8 9 A D G J U _ ` ` J n % 1 < < < i % < X @ @ @ @ @ % @ % @ % % @ @ % @ % @ @ 1 % 1 % @ @ @ @ %.%.%.",
"%.%.%.%.%.%.%.%.%.%.%.A G H H D A v r 0 0 = n S G J ) ` } } ` G n e 9 8 8 < < < u % < X X @ @ @ % @ @ @ % @ @ @ @ @ @ @ @ @ < % 1 % @ @ @ X %.%.%.",
"%.%.%.%.%.%.%.%.%.%.%.n G H G D v b S J _ ] | | | ] } } ` ) G n t e 0 0 8 9 % % w % < X X @ @ @ @ @ % @ @ @ @ @ % @ @ @ @ @ 1 % 1 @ @ @ @ %.%.%.%.",
"%.%.%.%.%.%.%.%.%.%.S D J ) _ ` ` ] ] | } | } | } } ] _ U D S n v t t r e e t % 2 % < X @ @ @ @ @ @ @ @ @ @ @ @ @ @ @ @ @ @ < % % @ @ @ %.%.%.%.%.",
"%.%.%.%.%.%.%.%.%.S ) } ] } | } | | | } | } } } } ] ] ) U G A n n n n n n b v r 1 % < X @ @ @ @ @ @ @ @ @ @ @ @ @ @ @ = 8 0 r r e 9 : %.%.%.%.%.%.",
"%.%.%.%.%.%.%.%.G _ ] } | | | | | | | | | | | } ] ] _ U G A n b n A A S S D S Z b v < X @ @ @ @ @ @ @ @ @ O = : 8 0 e t v b n n b v r 9 %.%.%.%.%.",
"%.%.%.%.%.%.%.%.U ] } | | | | | | | | | | | | | } ] ) U D Z v y y v n A S D G G S Z b y e 9 : = = = = , 8 9 0 e r t v b n Z A S S A n b 0 %.%.%.%.",
"%.%.%.%.%.%.%.A ) ] | | | | | | | | | | | | | | } ] ) J D n t r r r t v n A D D S S A Z b v y r e e e e e r t y b n Z A S D G H H H G S Z %.%.%.%.",
"%.%.%.%.%.%.%.H ` } | | | | | | | | | | | | | | } ] ) G S v r e 0 0 e r t b A D D S D S Z n b v y t r r r y b n Z A D H J U ) _ ) _ ) U H %.%.%.%.",
"%.%.%.%.%.%.A U ] } } } | | | | | | | | | | | } ] ` J D Z y e 0 9 9 9 0 e t b A S S D G D A Z n b b b v v n Z S G J U ) _ _ ` ` ] ` ] _ J %.%.%.%.",
"%.%.%.%.%.%.G ] } } ] ] } } } | } } } } } } } ] ` ) G A v t e 0 8 8 9 9 0 e t b Z S D D D D D D D S S S S D G H J U _ _ ` ] ` ] } } } ] ) %.%.%.%.",
"%.%.%.%.%.A ` | } ] ] ` ` ] ] ] ] ] ] ] ` ] ] ] ) J D n b y e 0 9 8 8 9 9 0 r y b n A S S D D G G G G G G J U ) ) ` ] ] } } } | | | | | ` %.%.%.%.",
"%.%.%.%.%.) | | ] ` ) ) ) _ _ ` ` ` ] ` ] ] ] ` U J D A n t r e 0 9 8 8 9 9 e r t b n A S S D D G G J J J U ) ) ) ` ] ] } | | | | | | | ] J %.%.%.",
"%.%.%.%.S } | | ] _ H G G J ) ) ) ) _ ` ] } ] ] ` ) J S A b y r 0 0 9 9 9 9 0 e r t v Z A S S D G H J U U U ) ) _ ` ] } } | | | | | | | | ) %.%.%.",
"%.%.%.Z _ | | | ] ) D b b n Z A S D H U ` } } } ] _ J G S n v y r e 0 0 9 9 9 0 e r t v n A S D G H J J U ) ) ) ` ] ] } } | | | | | | | | ] D %.%.",
"%.%.%.G | | | | ] J S v r r y b n Z A S G ) } } ] _ ) H D A n b y t r e e 0 9 0 0 0 r t v n A A S G J J U ) ) _ ` ] ] } | | | | | | | | | | H %.%.",
"%.%.S ] | | | } _ G Z t 9 , : 8 0 r v b Z J ` ] ] ` ) H D S A Z b v y r e e 0 0 0 0 0 e e t v n A S D G J ) ) _ ` ] ] } | | | | | | | | | | U %.%.",
"%.%.J | | | } ] ) S n e 8 = . . . . = 8 y G _ ] ] ` ) J G S S A n v y t e e 0 0 0 0 0 0 e e t v Z A S D G J U ) _ _ ` } } | | | | | | | | | | S %.",
"%.%.D _ ] ] ` ) G Z t e e 8 = * . . . * 9 S U ] ] ` ) ) J D S S Z v y t e 0 0 0 9 9 9 9 0 0 0 e t b A S D G J U ) ) ) ] } } | | | | | | | | | ) %.",
"%.%.%.n J U H D A n v t t 9 0 . . . . * 8 Z J ` } } _ ) U G G S A b y t e e 0 0 9 9 9 9 0 0 0 e e y Z A D D G J ) ) _ _ ] } | | | | | | | | | ) A ",
"%.%.%.%.%.%.%.%.%.%.A v 8 = . . %.. . . 8 n H _ ] ] ] U U J G S A A v t e e 0 0 8 8 8 8 8 8 0 e e e t n A S D G U ) U _ ] ] | | | | | | | | | } n "
};
