/* XPM */
static char *_1994_140c6607327c4d96f34ef5336d3121bbaf7a171cabe136e2b22e74276902810c[] = {
/* columns rows colors chars-per-pixel */
"114 106 67 1 ",
"  c black",
". c #040400",
"X c #040404",
"o c #0C0404",
"O c #180C04",
"+ c #100C10",
"@ c #1C1414",
"# c #181818",
"$ c #201008",
"% c #28140C",
"& c #201C18",
"* c #301C10",
"= c #28201C",
"- c #3C2014",
"; c #242020",
": c #2C282C",
"> c #342C28",
", c #383434",
"< c #442418",
"1 c #4C2C18",
"2 c #54301C",
"3 c #403C3C",
"4 c #603420",
"5 c #683C24",
"6 c #704028",
"7 c #78442C",
"8 c #4C4848",
"9 c #585050",
"0 c #60585C",
"q c #6C6064",
"w c #746C70",
"e c #844C30",
"r c #8C5438",
"t c #905C3C",
"y c #986444",
"u c #A06C48",
"i c #A87450",
"p c #AC7C58",
"a c #807478",
"s c #B08460",
"d c #B89068",
"f c #BC9870",
"g c #C4A078",
"h c #887C80",
"j c #94888C",
"k c #988C90",
"l c #A09498",
"z c #A89CA0",
"x c #ACA4A8",
"c c #B0ACAC",
"v c #B8B0B4",
"b c #CCAC80",
"n c #D4B08C",
"m c #D8B894",
"M c #C0B8B8",
"N c #DCC49C",
"B c #E4CCA8",
"V c #ECD8B0",
"C c #C8BCC0",
"Z c #CCC4C8",
"A c #D4CCD0",
"S c #D8D4D8",
"D c #E0D8DC",
"F c #E4E0E4",
"G c #ECE8EC",
"H c #F4F0F4",
"J c white",
/* pixels */
"JJJJJJJJJJJJJJJJJJJJJJJJJJJJJJJJJJJJJJJJJJJJJJJJJJJJJJJJJJJJJJJJJJJJJJJJJJJJJJJJJJJJJJJJJJJJJJJJJJJJJJJJJJJJJJJJJJ",
"JJJJJJJJJJJJJJJJJJJJJJJJJJJJJJJJJJJJJJJJJJJJJJJJJJJJJJJJJJJJJJJJJJJJJJJJJJJJJJJJJJJJJJJJJJJJJJJJJJJJJJJJJJJJJJJJJJ",
"JJJJJJJJJJJJJJJJJJJJJJJJJJJJJJJJJJJJJJJJJJJJJJJJJJJJJJJJJJJJJJJJJJJJJJJJJJJJJJJJJJJJJJJJJJJJJJJJJJJJJJJJJJJJJJJJJJ",
"JJJJJJJJJJJJJJJJJJJJJJJJJJJJJJJJJJJJJJJJJJJJJJJJJJJJJJJJJJJJJJJJJJJJJJJJJJJJJJJJJJJJJJJJJJJJJJJJJJJJJJJJJJJJJJJJJJ",
"JJJJJJJJJJJJJJJJJJJJJJJJJJJJJJJJJJJJJJJJJJJJJJJJJJJJJJJJJJJJJJJJJJJJJJJJJJJJJJJJJJJJJJJJJJJJJJJJJJJJJJJJJJJJJJJJJJ",
"JJJJJJJJJJJJJJJJJJJJJJJJJJJJJJJJJJJJJJJJJJJJJJJJJJJJJJJJJJJJJJJJJJJJJJJJJJJJJJJJJJJJJJJJJJJJJJJJJJJJJJJJJJJJJJJJJJ",
"JJJJJJJJJJJJJJJJJJJJJJJJJJJJJJJJJJJJJJJJJJJJJJJJJJJJJJJJJJJJJJJJJJJJJJJJJJJJJJJJJJJJJJJJJJJJJJJJJJJJJJJJJJJJJJJJJJ",
"JJJJJJJJJJJJJJJJJJJJJJJJJJJJJJJJJJJJJJJJJJJJJJJJJJJJJJJJJJJJJJJJJJJJJJJJJJJJJJJJJJJJJJJJJJJJJJJJJJJJJJJJJJJJJJJJJJ",
"JJJJJJJJJJJJJJJJJJJJJJJJJJJJJJJJJJJJJJJJJJJJJJJJJJJJJJJJJJJJJJJJJJJJJJJJJJJJJJJJJJJJJJJJJJJJJJJJJJJJJJJJJJJJJJJJJJ",
"JJJJJJJJJJJJJJJJJJJJJJJJJJJJJJJJJJJJJJJJJJJJJJJJJJJJJJJJJJJJJJJJJJJJJJJJJJJJJJJJJJJJJJJJJJJJJJJJJJJJJJJJJJJJJJJJJJ",
"JJJJJJJJJJJJJJJJJJJJJJJJJJJJJJJJJJJJJJJJJJJJJJJJJJJJJJJJJJJJJJJJJJJJJJJJJJJJJJJJJJJJJJJJJJJJJJJJJJJJJJJJJJJJJJJJJJ",
"JJJJJJJJJJJJJJJJJJJJJJJJJJJJJJJJJJJJJJJJJJJJJJJJJJJJJJJJJJJJJJJJJJJJJJJJJJJJJJJJJJJJJJJJJJJJJJJJJJJJJJJJJJJJJJJJJJ",
"JJJJJJJJJJJJJJJJJJJJJJJJJJJJJJJJJJJJJJJJJJJJJJJJJJJJJJJJJJJJJJJJJJJJJJJJJJJJJJJJJJJJJJJJJJJJJJJJJJJJJJJJJJJJJJJJJJ",
"JJJJJJJJJJJJJJJJJJJJJJJJJJJJJJJJJJJJJJJJJJJJJJJJJJJJJJJJJJJJJJJJJJJJJJJJJJJJJJJJJJJJJJJJJJJJJJJJJJJJJJJJJJJJJJJJJJ",
"JJJJJJJJJJJJJJJJJJJJJJJJJJJJJJJJJJJJJJJJJJJJJJJJJJJJJJJJJJJJJJJJJJJJJJJJJJJJJJJJJJJJJJJJJJJJJJJJJJJJJJJJJJJJJJJJJJ",
"JJJJJJJJJJJJJJJJJJJJJJJJJJJJJJJJJJJJJJJJJJJJJJJJJJJJJJJJJJJJJJJJJJJJJJJJJJJJJJJJJJJJJJJJJJJJJJJJJJJJJJJJJJJJJJJJJJ",
"JJJJJJJJJJJJJJJJJJJJJJJJJJJJJJJJJJJJJJJJJJJJJJJJJJJJJJJJJJJJJJJJJJJJJJJJJJJJJJJJJJJJJJJJJJJJJJJJJJJJJJJJJJJJJJJJJJ",
"JJJJJJJJJJJJJJJJJJJJJJJJJJJJJJJJJJJJJJJJJJJJJJJJJJJJJJJJJJJJJJJJJJJJJJJJJJJJJJJJJJJJJJJJJJJJJJJJJJJJJJJJJJJJJJJJJJ",
"JJJJJJJJJJJJJJJJJJJJJJJJJJJJJJJJJJJJJJJJJJJJJJJJJJJJJJJJJJJJJJJJJJJJJJJJJJJJJJJJJJJJJJJJJJJJJJJJJJJJJJJJJJJJJJJJJJ",
"JJJJJJJJJJJJJJJJJJJJJJJJJJJJJJJJJJJJJJJJJJJJJJJJJJJJJJJJJJJJJJJJJJJJJJJJJJJJJJJJJJJJJJJJJJJJJJJJJJJJJJJJJJJJJJJJJJ",
"JJJJJJJJJJJJJJJJJJJJJJJJJJJJJJJJJJJJJJJJJJJJJJJJJJJJJJJJJJJJJJJJJJJJJJJJJJJJJJJJJJJJJJJJJJJJJJJJJJJJJJJJJJJJJJJJJJ",
"JJJJJJJJJJJJJJJJJJJJJJJJJJJJJJJJJJJJJJJJJJJJJJJJJJJJJJJJJJJJJJJJJJJJJJJJJJJJJJJJJJJJJJJJJJJJJJJJJJJJJJJJJJJJJJJJJJ",
"JJJJJJJJJJJJJJJJJJJJJJJJJJJJJJJJJJJJJJJJJJJJJJJJJJJJJJJJJJJJJJJJJJJJJJJJJJJJJJJJJJJJJJJJJJJJJJJJJJJJJJJJJJJJJJJJJJ",
"JJJJJJJJJJJJJJJJJJJJJJJJJJJJJJJJJJJJ,JJJJJJJJJJJJJJJJJJJJJJJJJJJJJJJJJJJJJJJJJJJJJJJJJJJJJJJJJJJJJJJJJJJJJJJJJJJJJ",
"JJJJJJJJJJJJJJJJJJJJJJJJJJJJJJJJJJJ#q,JJJJJJJJJJJJJJJJJJJJJJJJJJJJJJJJJJJJJJJJJJJJJJJJJJJJJJJJJJJJJJJJJJJJJJJJJJJJ",
"JJJJJJJJJJJJJJJJJJJJJJJJJJJJJJJJ:;#++;;+XJJJJJJJJJJJJJJJJJJJJJJJJJJJJJJJJJJJJJJJJJJJJJJJJJJJJJJJJJJJJJJJJJJJJJJJJJ",
"JJJJJJJJJJJJJJJJJJJJJJJJJJJJJJJq3,;#++;+++XJJJJJJJJJJJJJJJJJJJJJJJJJJJJJJJJJJJJJJJJJJJJJJJJJJJJJJJJJJJJJJJJJJJJJJJ",
"JJJJJJJJJJJJJJJJJJJJJJJJJJJJJJ,9w8,;#+#+#++XXJJJJJJJJJJJJJJJJJJJJJJJJJJJJJJJJJJJJJJJJJJJJJJJJJJJJJJJJJJJJJJJJJJJJJ",
"JJJJJJJJJJJJJJJJJJJJJJJJJJJJJ;:,8q83:#;:;##+XXXJJJJJJJJJJJJJJJJJJJJJJJJJJJJJJJJJJJJJJJJJJJJJJJJJJJJJJJJJJJJJJJJJJJ",
"JJJJJJJJJJJJJJJJJJJJJJJJJJJJJ#;:,80,9,:#+++X+XXXXJJJJJJJJJJJJJJJJJJJJJJJJJJJJJJJJJJJJJJJJJJJJJJJJJJJJJJJJJJJJJJJJJ",
"JJJJJJJJJJJJJJJJJJJJJJJJJJJJJ+#;:,:h9,:8;+#+X+XXXXJJJJJJJJJJJJJJJJJJJJJJJJJJJJJJJJJJJJJJJJJJJJJJJJJJJJJJJJJJJJJJJJ",
"JJJJJJJJJJJJJJJJJJJJJJJJJJJJJ++#;:q0q3;;3X;+++X+XXXXJJJJJJJJJJJJJJJJJJJJJJJJJJJJJJJJJJJJJJJJJJJJJJJJJJJJJJJJJJJJJJ",
"JJJJJJJJJJJJJJJJJJJJJJJJJJJJJ+++#,8388,;#3X+;++XXXXXXXJJJJJJJJJJJJJJJJJJJJJJJJJJJJJJJJJJJJJJJJJJJJJJJJJJJJJJJJJJJJ",
"JJJJJJJJJJJJJJJJJJJJJJJJJJJJJJ+++3,,388:##3; ;X++X+XXXXJJJJJJJJJJJJJJJJJJJJJJJJJJJJJJJJJJJJJJJJJJJJJJJJJJJJJJJJJJJ",
"JJJJJJJJJJJJJJJJJJJJJJJJJJJJJJX++,::,383:##,:#;+X+X+XXXXXJJJJJJJJJJJJJJJJJJJJJJJJJJJJJJJJJJJJJJJJJJJJJJJJJJJJJJJJJ",
"JJJJJJJJJJJJJJJJJJJJJJJJJJJJJJJX+:;#::383:##3:;;+++XXXXXXXXJJJJJJJJJJJJJJJJJJJJJJJJJJJJJJJJJJJJJJJJJJJJJJJJJJJJJJJ",
"JJJJJJJJJJJJJJJJJJJJJJJJJJJJJJJJ+;++,;:,83:##;,#+:X+X+XXXXXXJJJJJJJJJJJJJJJJJJJJJJJJJJJJJJJJJJJJJJJJJJJJJJJJJJJJJJ",
"JJJJJJJJJJJJJJJJJJJJJJJJJJJJJJJJ:##;#+;,,83:#+#,8;+XXX+X+XXXXXJJJJJJJJJJJJJJJJJJJJJJJJJJJJJJJJJJJJJJJJJJJJJJJJJJJJ",
"JJJJJJJJJJJJJJJJJJJJJJJJJJJJJJJJq:+##;,::,8,:###;XX;X+X+XXXXXXXJJJJJJJJJJJJJJJJJJJJJJJJJJJJJJJJJJJJJJJJJJJJJJJJJJJ",
"JJJJJJJJJJJJJJJJJJJJJJJJJJJJJJJJ,#:#+#++;:,83:#+#:3;X++X+XXXXXXXXJJJJJJJJJJJJJJJJJJJJJJJJJJJJJJJJJJJJJJJJJJJJJJJJJ",
"JJJJJJJJJJJJJJJJJJJJJJJJJJJJJJJJ#;w:##+#,;:,83:##+#X :X+X+X+XXXXXXXJJJJJJJJJJJJJJJJJJJJJJJJJJJJJJJJJJJJJJJJJJJJJJJ",
"JJJJJJJJJJJJJJJJJJJJJJJJJJJJJJJXX;,:+##:#+#:3983;#+:9;+#+X+X+X+####+JJJJJJJJJJJJJJJJJJJJJJJJJJJJJJJJJJJJJJJJJJJJJJ",
"JJJJJJJJJJJJJJJJJJJJJJJJJJJJJJ#XX+#;X+##++,:,3903,;##XX;X+#;:;+   XXXXJJJJJJJJJJJJJJJJJJJJJJJJJJJJJJJJJJJJJJJJJJJJ",
"JJJJJJJJJJJJJJJJJJJJJJJJJJJJJ;++X+XXX++##:++#,39083,:;3:;::#  X+++XX+XXXJJJJJJJJJJJJJJJJJJJJJJJJJJJJJJJJJJJJJJJJJJ",
"JJJJJJJJJJJJJJJJJJJJJJJJJJJJJ:#++#+XXXX+##+#,;,89q988333,+  +###X+++++X+XJJJJJJJJJJJJJJJJJJJJJJJJJJJJJJJJJJJJJJJJJ",
"JJJJJJJJJJJJJJJJJJJJJJJJJJJJ+#:#+#::#XXX+##:++#88qwq000:X #;;#+++++XXXXXXX+JJJJJJJJJJJJJJJJJJJJJJJJJJJJJJJJJJJJJJJ",
"JJJJJJJJJJJJJJJJJJJJJJJJJJJJ++#:#:::3#XXX+##;+3:,9hhwa;X#3:;#+#+++#+X++++++;+JJJJJJJJJJJJJJJJJJJJJJJJJJJJJJJJJJJJJ",
"JJJJJJJJJJJJJJJJJJJJJJJJJJJJX++###:::#+XXX+##:++#0wkk; ;qq8:;#+#+++#+X#+#+++#;+JJJJJJJJJJJJJJJJJJJJJJJJJJJJJJJJJJJ",
"JJJJJJJJJJJJJJJJJJJJJJJJJJJJXX++##;:###+XXX+##;+830a3 ;hw093:;##++++;+X++#+#++;#JJJJJJJJJJJJJJJJJJJJJJJJJJJJJJJJJJ",
"JJJJJJJJJJJJJJJJJJJJJJJJJJJJXXX++##:#:;++XXX+###;,9q +9whw3q3:#++#+++;+X++++#++:;+JJJJJJJJJJJJJJJJJJJJJJJJJJJJJJJJ",
"JJJJJJJJJJJJJJJJJJJJJJJJJJJJJXX+++##3;##++XXX+#+#:8: :80j+X:03:#++++++;#X#+#++++;:#XJJJJJJJJJJJJJJJJJJJJJJJJJJJJJJ",
"JJJJJJJJJJJJJJJJJJJJJJJJJJJJJXXX++X9,;#+#++XXX+##;3 X339X XX:93:#+#+#++##X#+#+##+;:#XJJJJJJJJJJJJJJJJJJJJJJJJJJJJJ",
"JJJJJJJJJJJJJJJJJJJJJJJJJJJJJJXXX+;:8:;#+#++XXX+##: #,3;   ;3;98,#+#++++#;+#+#+##+#:;+JJJJJJJJJJJJJJJJJJJJJJJJJJJJ",
"JJJJJJJJJJJJJJJJJJJJJJJJJJJJJJJXXX#;:3:;#+#++XXX+## ::,   +8q3:q8,;#;##+++:+##;#;###:;+JJJJJJJJJJJJJJJJJJJJJJJJJJJ",
"JJJJJJJJJJJJJJJJJJJJJJJJJJJJJJJJX++##:3:;###++XXX+  ;:#  +8q939kq83;##;#+#+;+####;#;#:;+XJJJJJJJJJJJJJJJJJJJJJJJJJ",
"JJJJJJJJJJJJJJJJJJJJJJJJJJJJJJJJJX++##:,:;;+#++XXX  #;X  ;qq8,qhka93;;#;#;###+;#;#;#:#,:+XJJJJJJJJJJJJJJJJJJJJJJJJ",
"JJJJJJJJJJJJJJJJJJJJJJJJJJJJJJJJJ+X++##:3:;;#+++X+  ;#   +80:89qwjw93;:;;#;##;+;#;;;::;8:+XXJJJJJJJJJJJJJJJJJJJJJJ",
"JJJJJJJJJJJJJJJJJJJJJJJJJJJJJJJJJX++++##:8:#;#+++#+X#;   X;:,889qwhw93:::;;:;#:+;;::;:,;,:+XXJJJJJJJJJJJJJJJJJJJJJ",
"JJJJJJJJJJJJJJJJJJJJJJJJJJJJJJJJJJX+X++##:8:#;#;;++++#   X#;,3389qwaq93,:,:;:;;;+::,:,:,;,;+XXJJJJJJJJJJJJJJJJJJJJ",
"JJJJJJJJJJJJJJJJJJJJJJJJJJJJJJJJJJJXXX++##:3:#::;;;+##   X+:,,3389qwaq93,:,::::,##,,,:,::::;+XXJJJJJJJJJJJJJJJJJJJ",
"JJJJJJJJJJJJJJJJJJJJJJJJJJJJJJJJJJJJX+X++#;:3,:8,#X++#   X#::,,,380qahw98333,3,3,+;,:,::;#,:;+XXJJJJJJJJJJJJJJJJJJ",
"JJJJJJJJJJJJJJJJJJJJJJJJJJJJJJJJJJJJXXXX+##;,3q:XXX##+    #;:::,,380wahw083883838;#:,::::;#,:#+XXJJJJJJJJJJJJJJJJJ",
"JJJJJJJJJJJJJJJJJJJJJJJJJJJJJJJJJJJJJXX+++#;:8; +XX#+#    +;;;::,,38qwhjaq9998883,+;:,:;:;+:,:#+XXJJJJJJJJJJJJJJJJ",
"JJJJJJJJJJJJJJJJJJJJJJJJJJJJJJJJJJJJJJXX+X+;:,   ;X##+X   ###;;::,,39qajzhq0998383##,:::;:##,:;++XXJJJJJJJJJJJJJJJ",
"JJJJJJJJJJJJJJJJJJJJJJJJJJJJJJJJJJJJJJJXX+##,+   +#;##X  X+###;;::,330wkvlwq988833:+:;:;:;;+:,:#+XXXJJJJJJJJJJJJJJ",
"JJJJJJJJJJJJJJJJJJJJJJJJJJJJJJJJJJJJJJJXXX+#:  X X+###+  X##;::;;::,380hzxhq9983,3,X;:;;;;###3:;#+XXXJJJJJJJJJJJJJ",
"JJJJJJJJJJJJJJJJJJJJJJJJJJJJJJJJJJJJJJJJX+X;+ X XX#;#+:X +##:##=::::,39wjzkw98383,3+#;;:;;;;+,,:;++XXJJJJJJJJJJJJJ",
"JJJJJJJJJJJJJJJJJJJJJJJJJJJJJJJJJJJJJJJJJ+X#X X+X++;+#+,X#+>;3++;:::,38qhjla9333,,:#+;:;;#;#+;3:##+XXXJJJJJJJJJJJJ",
"JJJJJJJJJJJJJJJJJJJJJJJJJJJJJJJJJJJJJJJJJXX++ +X+X+#####:+;#3,+##;;::,30whlh083,,:,;X;#;#;#;##3:;+#+XXJJJJJJJJJJJJ",
"JJJJJJJJJJJJJJJJJJJJJJJJJJJJJJJJJJJJJJJJJJXXX #+#++#+#+#+#;:,,+#+;;::,39qakhq3,:,,::X#;#;###;+,,:;++XXXJJJJJJJJJJJ",
"JJJJJJJJJJJJJJJJJJJJJJJJJJJJJJJJJJJJJJJJJJX   +##++;#+#+#;#+:,+#:;#;::,30wjjw8,,,:,:++###;#;#+:3;##++XXJJJJJJJJJJJ",
"JJJJJJJJJJJJJJJJJJJJJJJJJJJJJJJJJJeyuutr72-%  #:##+#+#+#+;@#+,+:,:;;::,39qhjw8,::,:;#X##+####+;3:;+#X+XXJJJJJJJJJJ",
"JJJJJJJJJJJJJJJJJJJJJJJJJJJJJJusgmbdspuutt6*X X;:;#+#+++#: +#+;,,,:;;::,80hja9:,::;;;X+###+#+#+8;#;++XXXXJJJJJJJJJ",
"JJJJJJJJJJJJJJJJJJJJJJJJJJJJtidgbbgspur7452%$  +;,;++#+#+: ##,;,,,:#;;:,89alh9,:;;;;;X#+#+#+#++8:;#+X+XXXJJJJJJJJJ",
"JJJJJJJJJJJJJJJJJJJJJJJJJJJidgnbbfduer741<*$O   +;,##+#++;@#+;XX#;:;#:;,39alh0,::;#;#X+#+++XXXX3;#+#+X+XXJJJJJJJJJ",
"JJJJJJJJJJJJJJJJJJJJJJJJJJifbnbbgdpur62<-*%OoX   +##+#+#+;;;:,+#;#:#;;:,38wlhq3:;:;#;XX+##;;;:;;;##+++XX+XJJJJJJJJ",
"JJJJJJJJJJJJJJJJJJJJJJJJrpgnmnnbbbbbndie4<*$%$X  X+#++++##::,,;;=;:##;;,38wljq8,;:,33,::;;#;;####;#;#+++XXJJJJJJJJ",
"JJJJJJJJJJJJJJJJJJJJJJ7udgbnnnnnnnnnngbnbbgfsr1%o. ++X++++;#,,;;&;;##;::,8qjlw0qwq983::;;#;##+#+##+#+#+++XXJJJJJJJ",
"JJJJJJJJJJJJJJJJJJJJJeifmmmbbnnnnnnnbbbbbgfffsr61$o X+X+++#;#,;#;:##;#;:,8qjjwjzkhq8,,:;#;####+#++#++++X+++JJJJJJJ",
"JJJJJJJJJJJJJJJJJJJJepgNNmmmbnnnnnbbbbbggggddsut74-OXXXX+X+;>+#;:#+###;;,80hahxMzhq33::;;#+##+###+++X+X+X+X+JJJJJJ",
"JJJJJJJJJJJJJJJJJJJ7pnmVVNmnnnnnnnnbnbgggffdsspiyr6<$.X+X+++#::##+###;#;:88qakvZcjq8,,:;####+#+#+#+++++X+X+XJJJJJJ",
"JJJJJJJJJJJJJJJJJJ7igmNNNmnnnnnnnnnnbbbggdddssssspue1$oX+X+X#+#++#+#+##;,,90wlMSCjq3,,;#;#;####+#+++X+X+XXXXXJJJJJ",
"JJJJJJJJJJJJJJJJJJufgbbnnmnbbnnnnnbnbbbggggdsddddspuy<%oXXX+++++#+#+##;#;399wzCFZlq83::;####+#+#+#+++X+X+X+XXJJJJJ",
"JJJJJJJJJJJJJJJJJ7pfgfgnnnnnnnnnnnnbbggbggdddsdddsspue*oXX+X+X+++++#+#+;,330qkZGAxw8,:;#;##+#+#+++#+X++XXXXXXXJJJJ",
"JJJJJJJJJJJJJJJJJ7sfddggnnnnbnmmmmbbbbbgbgdsssdddddsiy1$XXXX++++#+#+#+##:3380jCHSva83:;;#;####+#+#++++X+X+X+XXJJJJ",
"JJJJJJJJJJJJJJJJJrdfddfggbbnnbnmnbbnbbggggfdssddddddsue*oXX+X++++++#+#+;:;,,9hvHFCj93,;;;####+#+#++++X+++X+XXXJJJJ",
"JJJJJJJJJJJJJJJJ1rdfdddfgbnnnnnnnnnnbbgffffdddddsdfdsur5*.XXX+X+++++++##;;3:9wzFHAzq8,:#;#;#+###+#+#++X+X+XXXXXJJJ",
"JJJJJJJJJJJJJJJJ4rdfdfdfgbnnnmmmmmmngbffffdddddffsddsute2%XX+X++X#++#+##;;;;30kSHDca8,:;#;###+#+++#++X+X+XX+XXXJJJ",
"JJJJJJJJJJJJJJJJ6ufffddfgbnmnnmmBNnngbgfbgdffdddddsspuyt5-XXX+X++++++#+##;;#:8aZHFMj93,;;#;#+#+#+#++++X++X+XXXXJJJ",
"JJJJJJJJJJJJJJJJrpgfddfffbnNNBBmmNmmbggdggggdfdsddspiutt72$XXXXX++X#++##;#;;:3avGGZl08::;;#;###+#+#+#+++X+XXX+XJJJ",
"JJJJJJJJJJJJJJJ4ysffddfffbmmmBBmmmmbbgbddggdgddssspiuttr74<OX+X+++++++#+#;##:,qzGHDcw8,:;#;###+++#+#+++X++X+XXXJJJ",
"JJJJJJJJJJJJJJJ5idffdsdfgbmmmmNmnmmbbbbffbgfdssspsiuyree752*oX+X+X++X++#+##;#:9kFHFMh93,;;;#;##+#++++++++X+X+XXXJJ",
"JJJJJJJJJJJJJJJ5idffddfdgbnmNnnnnbbbbggddfgfdddpiuuytre7774<%.XXX+++++++##;##;8hAHGAkq3,:;#;##+#++#++X++X+X+XXXXJJ",
"JJJJJJJJJJJJJJ5epdddfddfgbnmmmnbbbgbbgdddddddspiuytrtee77752-%XX+X+X+++#+##;##3wMHHFxa83:;;#;##++++#+++++++X+X+XJJ",
"JJJJJJJJJJJJJJ5risddddfgfgbnnbnnngbgffgdddfdsspuytttree777751-OXX++++X++######,0cHHGCk03,:;;####+#+++++X++XXXXXXJJ",
"JJJJJJJJJJJJJJ4russsdddgggbbbgbnbgffffffddddspuytrrrree777752<%oXXX+X+++#+###+:9lFHHSzq3:,;#;##+#+#+#++++X+X+XXXJJ",
"JJJJJJJJJJJJJ55tppsssddfggbnbbnnbfdddddfdssspiuytrereeee77752<*$.XXX+X+#++####;8hAHHHvw83::;;###++++++++X+X+X+XXJJ",
"JJJJJJJJJJJJJ6eyipsdffgggggbgfnbbbgfddsdssspuuytrreeeeee65542<-*$X+XX++++#+##+#3aMFHHAh9,,::#;+##+#+++X++++XXXXXXJ",
"JJJJJJJJJJJJJ6riissdddfgdfgbgfgbnbgfddsdpppuuytreeeeeee765421--*%OXXX+X+#+##+#+,qcFHHFl033,;;###+#++#++X++X+X+XXXJ",
"JJJJJJJJJJJJJ5rissssddddddgbbgbbbbgdddsppiiuyttreeeeee776541---**%OX+X++++#+#++:0zFHHHxw3,::;;#+#+##++X+X++X+XX+XJ",
"JJJJJJJJJJJJ7erppsssppdfddggbbbgbgddsdsiiuuyrrreeeeee777541<-****%$oXX+X+#+#+++;9lAHHHMh8,,::#;####+#+++++++XXXXXJ",
"JJJJJJJJJJJJ57tpppipssddffgggnbdgbgdddsiuyyyreee77777775541--**%**%$oXX+X+###+#;8jCGHHZk03:,:;#;##+#++#+X+X+X+XXXJ",
"JJJJJJJJJJJJ6rripipssdffgggfdggggfpddspuytreee777655555442<**%%****%O.XX+++#+#+#3hvFHHSxw83:::;##+#+#++++X+X+X+XXJ",
"JJJJJJJJJJJJ57ripppsdddfggbgdfgbdssdssiyrtreee76554444222<*****%**%*$OXX +X++++#,wzSHHFvh083,;:;####+##+++++XXXXXX",
"JJJJJJJJJJJJ46tuipsddggggbnbgdfgdddssputrreee7555422222<<--*****%**%%$O XX++X#++:0lZGHGZlw08:;;;:::,,,,,:#+X+X+XXX",
"JJJJJJJJJJJJ46ruippsdfgnbmmgbbfddgdsputtere775444221111---**%*******%%%O.XXX++#+;9kZDHHZxh3#+#::::,,,::,,,:#X+XXXX"
};
