/* XPM */
static char *_5783_c8495fd1ea4a1c2fe9c48e1c863e0eb9fa37657e7e863eb9f1bf207e68d8c53d[] = {
/* columns rows colors chars-per-pixel */
"120 132 66 1 ",
"  c black",
". c #040400",
"X c #040404",
"o c #0C0404",
"O c #180C04",
"+ c #100C10",
"@ c #1C1414",
"# c #181818",
"$ c #201008",
"% c #28140C",
"& c #201C18",
"* c #301C10",
"= c #28201C",
"- c #3C2014",
"; c #242020",
": c #2C282C",
"> c #342C28",
", c #383434",
"< c #442418",
"1 c #4C2C18",
"2 c #54301C",
"3 c #403C3C",
"4 c #603420",
"5 c #683C24",
"6 c #704028",
"7 c #78442C",
"8 c #4C4848",
"9 c #585050",
"0 c #60585C",
"q c #6C6064",
"w c #746C70",
"e c #844C30",
"r c #8C5438",
"t c #905C3C",
"y c #986444",
"u c #A06C48",
"i c #A87450",
"p c #AC7C58",
"a c #807478",
"s c #B08460",
"d c #B89068",
"f c #BC9870",
"g c #C4A078",
"h c #887C80",
"j c #94888C",
"k c #988C90",
"l c #A09498",
"z c #A89CA0",
"x c #ACA4A8",
"c c #B0ACAC",
"v c #B8B0B4",
"b c #CCAC80",
"n c #D4B08C",
"m c #D8B894",
"M c #C0B8B8",
"N c #DCC49C",
"B c #E4CCA8",
"V c #C8BCC0",
"C c #CCC4C8",
"Z c #D4CCD0",
"A c #D8D4D8",
"S c #E0D8DC",
"D c #E4E0E4",
"F c #ECE8EC",
"G c #F4F0F4",
"H c white",
/* pixels */
"HHHHHHHHHHHHHHHHHHHHHHHHHHHHHHHHHHHHHHHHHHHHHHHHHHHHHHHHHHHHHHHHHHHHHHHHHHHHHHHHHHHHHHHHHHHHHHHHHHHHHHHHHHHHHHHHHHHHHHHH",
"HHHHHHHHHHHHHHHHHHHHHHHHHHHHHHHHX#+XqXXHHHHHHHHHHHHHHHHHHHHHHHHHHHHHHHHHHHHHHHHHHHHHHHHHHHHHHHHHHHHHHHHHHHHHHHHHHHHHHHHH",
"HHHHHHHHHHHHHHHHHHHHHHHHHHHHHHH:#++#:XXXXHHHHHHHHHHHHHHHHHHHHHHHHHHHHHHHHHHHHHHHHHHHHHHHHHHHHHHHHHHHHHHHHHHHHHHHHHHHHHHH",
"HHHHHHHHHHHHHHHHHHHHHHHHHHHHHH:8;+X+#+XXXXHHHHHHHHHHHHHHHHHHHHHHHHHHHHHHHHHHHHHHHHHHHHHHHHHHHHHHHHHHHHHHHHHHHHHHHHHHHHHH",
"HHHHHHHHHHHHHHHHHHHHHHHHHHHHHH+:,#+++X+XXXXHHHHHHHHHHHHHHHHHHHHHHHHHHHHHHHHHHHHHHHHHHHHHHHHHHHHHHHHHHHHHHHHHHHHHHHHHHHHH",
"HHHHHHHHHHHHHHHHHHHHHHHHHHHHHX++;:++X+X+XXXXHHHHHHHHHHHHHHHHHHHHHHHHHHHHHHHHHHHHHHHHHHHHHHHHHHHHHHHHHHHHHHHHHHHHHHHHHHHH",
"HHHHHHHHHHHHHHHHHHHHHHHHHHHHH+X+#:;++++XX+XXXHHHHHHHHHHHHHHHHHHHHHHHHHHHHHHHHHHHHHHHHHHHHHHHHHHHHHHHHHHHHHHHHHHHHHHHHHHH",
"HHHHHHHHHHHHHHHHHHHHHHHHHHHHHX+++#:#++X+XX+XXXHHHHHHHHHHHHHHHHHHHHHHHHHHHHHHHHHHHHHHHHHHHHHHHHHHHHHHHHHHHHHHHHHHHHHHHHHH",
"HHHHHHHHHHHHHHHHHHHHHHHHHHHHHXXX++;:#+++X+XXXXXHHHHHHHHHHHHHHHHHHHHHHHHHHHHHHHHHHHHHHHHHHHHHHHHHHHHHHHHHHHHHHHHHHHHHHHHH",
"HHHHHHHHHHHHHHHHHHHHHHHHHHHHHHX+X++;,++++++++XXXHHHHHHHHHHHHHHHHHHHHHHHHHHHHHHHHHHHHHHHHHHHHHHHHHHHHHHHHHHHHHHHHHHHHHHHH",
"HHHHHHHHHHHHHHHHHHHHHHHHHHHHHHXXX+X+##;##+XXXXXXXHHHHHHHHHHHHHHHHHHHHHHHHHHHHHHHHHHHHHHHHHHHHHHHHHHHHHHHHHHHHHHHHHHHHHHH",
"HHHHHHHHHHHHHHHHHHHHHHHHHHHHHHHXXXX#::##+XX+XXXXXXHHHHHHHHHHHHHHHHHHHHHHHHHHHHHHHHHHHHHHHHHHHHHHHHHHHHHHHHHHHHHHHHHHHHHH",
"HHHHHHHHHHHHHHHHHHHHHHHHHHHHHHHXXX#9,;#:++XXXXX+ XHHHHHHHHHHHHHHHHHHHHHHHHHHHHHHHHHHHHHHHHHHHHHHHHHHHHHHHHHHHHHHHHHHHHHH",
"HHHHHHHHHHHHHHHHHHHHHHHHHHHHHHHHX#:,8::#:;+X+XX+  XHHHHHHHHHHHHHHHHHHHHHHHHHHHHHHHHHHHHHHHHHHHHHHHHHHHHHHHHHHHHHHHHHHHHH",
"HHHHHHHHHHHHHHHHHHHHHHHHHHHHHHHH+;##,3:##+++XX+X+ XXHHHHHHHHHHHHHHHHHHHHHHHHHHHHHHHHHHHHHHHHHHHHHHHHHHHHHHHHHHHHHHHHHHHH",
"HHHHHHHHHHHHHHHHHHHHHHHHHHHHHHHX##+#;,,:;:,X+XX+XX+ XHHHHHHHHHHHHHHHHHHHHHHHHHHHHHHHHHHHHHHHHHHHHHHHHHHHHHHHHHHHHHHHHHHH",
"HHHHHHHHHHHHHHHHHHHHHHHHHHHHHHH++X#+#;3:#++++X+XXX+  XHHHHHHHHHHHHHHHHHHHHHHHHHHHHHHHHHHHHHHHHHHHHHHHHHHHHHHHHHHHHHHHHHH",
"HHHHHHHHHHHHHHHHHHHHHHHHHHHHHHH+X  ++#;3::;,:+X+XX++ XXHHHHHHHHHHHHHHHHHHHHHHHHHHHHHHHHHHHHHHHHHHHHHHHHHHHHHHHHHHHHHHHHH",
"HHHHHHHHHHHHHHHHHHHHHHHHHHHHHH+X #,+#+#:3:;+#+++X+XX+  XHHHHHHHHHHHHHHHHHHHHHHHHHHHHHHHHHHHHHHHHHHHHHHHHHHHHHHHHHHHHHHHH",
"HHHHHHHHHHHHHHHHHHHHHHHHHHHHH#:+X +#X+#;:3:;:,#X+XX++X XXHHHHHHHHHHHHHHHHHHHHHHHHHHHHHHHHHHHHHHHHHHHHHHHHHHHHHHHHHHHHHHH",
"HHHHHHHHHHHHHHHHHHHHHHHHHHHH+#;++X+,; +#;,,:;+#+++XXX+ XXXHHHHHHHHHHHHHHHHHHHHHHHHHHHHHHHHHHHHHHHHHHHHHHHHHHHHHHHHHHHHHH",
"HHHHHHHHHHHHHHHHHHHHHHHHHHHH;+X+XXX+#+++#:,,:#,:#X+XXXX+ XHHHHHHHHHHHHHHHHHHHHHHHHHHHHHHHHHHHHHHHHHHHHHHHHHHHHHHHHHHHHHH",
"HHHHHHHHHHHHHHHHHHHHHHHHHHH##XXX+XXX;,++##:3,:+X++++XX++ XXHHHHHHHHHHHHHHHHHHHHHHHHHHHHHHHHHHHHHHHHHHHHHHHHHHHHHHHHHHHHH",
"HHHHHHHHHHHHHHHHHHHHHHHHHHH;+X+++XXXX  X+#;,3,:;,:#X+XXX++XXHHHHHHHHHHHHHHHHHHHHHHHHHHHHHHHHHHHHHHHHHHHHHHHHHHHHHHHHHHHH",
"HHHHHHHHHHHHHHHHHHHHHHHHHHH+XX,;#+XXX;3##+#;,3:;++X+XXX+X+ XXHHHHHHHHHHHHHHHHHHHHHHHHHHHHHHHHHHHHHHHHHHHHHHHHHHHHHHHHHHH",
"HHHHHHHHHHHHHHHHHHHHHHHHHHHXX+3;#+XXXXX X#+#:,,:#:,#X+XXXX+ XXHHHHHHHHHHHHHHHHHHHHHHHHHHHHHHHHHHHHHHHHHHHHHHHHHHHHHHHHHH",
"HHHHHHHHHHHHHHHHHHHHHHHHHHHXX;,,;#+XXX+;,#+#;:,,:###XXX+XXXX+ XHHHHHHHHHHHHHHHHHHHHHHHHHHHHHHHHHHHHHHHHHHHHHHHHHHHHHHHHH",
"HHHHHHHHHHHHHHHHHHHHHHHHHHHXX#:3:#+XXXX+  X+#;,3,;;3:++X+XXX#  XHHHHHHHHHHHHHHHHHHHHHHHHHHHHHHHHHHHHHHHHHHHHHHHHHHHHHHHH",
"HHHHHHHHHHHHHHHHHHHHHHHHHHHHX+;,,;#+XXXX;3;++#:,3:;#+#X+XX+X++XXXHHHHHHHHHHHHHHHHHHHHHHHHHHHHHHHHHHHHHHHHHHHHHHHHHHHHHHH",
"HHHHHHHHHHHHHHHHHHHHHHHHHHHHXX#:3:#++XXX+XX++##:,,:;:,;++XXXXX+XXXHHHHHHHHHHHHHHHHHHHHHHHHHHHHHHHHHHHHHHHHHHHHHHHHHHHHHH",
"HHHHHHHHHHHHHHHHHHHHHHHHHHHHHX+;,,:#+XXXX+:3;+#;:3,:#+XX+++XX+#X XHHHHHHHHHHHHHHHHHHHHHHHHHHHHHHHHHHHHHHHHHHHHHHHHHHHHHH",
"HHHHHHHHHHHHHHHHHHHHHHHHHHHHHHX#:3:#++XXXX+  #+#:,3,:;,:#+X+XX+++XXHHHHHHHHHHHHHHHHHHHHHHHHHHHHHHHHHHHHHHHHHHHHHHHHHHHHH",
"HHHHHHHHHHHHHHHHHHHHHHHHHHHHHHH+;,3:#+XXXX+;3;+##:,3,;##+++X+X+X+XXXHHHHHHHHHHHHHHHHHHHHHHHHHHHHHHHHHHHHHHHHHHHHHHHHHHHH",
"HHHHHHHHHHHHHHHHHHHHHHHHHHHHHHHH#:3,#++XXXX+X+++#;;,,,;:3;X+++X+X+ XXHHHHHHHHHHHHHHHHHHHHHHHHHHHHHHHHHHHHHHHHHHHHHHHHHHH",
"HHHHHHHHHHHHHHHHHHHHHHHHHHHHHHHH+;,3;#+XXXXX+3: +#;:3,:;XXX++X+XX#  XXHHHHHHHHHHHHHHHHHHHHHHHHHHHHHHHHHHHHHHHHHHHHHHHHHH",
"HHHHHHHHHHHHHHHHHHHHHHHHHHHHHHHHH#:3,;#+XXXXX+  #+#:,3,:;#++++X+X+#+XXXHHHHHHHHHHHHHHHHHHHHHHHHHHHHHHHHHHHHHHHHHHHHHHHHH",
"HHHHHHHHHHHHHHHHHHHHHHHHHHHHHHHHH+;,3:+++XXXX+;8;+##:,8,:;8:X++X+X+X+ XXHHHHHHHHHHHHHHHHHHHHHHHHHHHHHHHHHHHHHHHHHHHHHHHH",
"HHHHHHHHHHHHHHHHHHHHHHHHHHHHHHHHHH#;,++:#+XXXX+X   #;:38,:#XXX++++XX+  XXHHHHHHHHHHHHHHHHHHHHHHHHHHHHHHHHHHHHHHHHHHHHHHH",
"HHHHHHHHHHHHHHHHHHHHHHHHHHHHHHHHHH+#+::;#+XXXXX+3: +#:,38,:XX;+#+X+XX#+XXXHHHHHHHHHHHHHHHHHHHHHHHHHHHHHHHHHHHHHHHHHHHHHH",
"HHHHHHHHHHHHHHHHHHHHHHHHHHHHHHHHHHH+,:;;##+XXXX++X#+##:,38:#38;+#++X+XXXXXHHHHHHHHHHHHHHHHHHHHHHHHHHHHHHHHHHHHHHHHHHHHHH",
"HHHHHHHHHHHHHHHHHHHHHHHHHHHHHHHHHHH,:,:;;#+XXXXX+;9#+##:,08,;##;::::;#+XXXXHHHHHHHHHHHHHHHHHHHHHHHHHHHHHHHHHHHHHHHHHHHHH",
"HHHHHHHHHHHHHHHHHHHHHHHHHHHHHHHHHH+;;:,;;##+XXXXXX+  +#:;8a3,,3:#+XXX+;;#+XXHHHHHHHHHHHHHHHHHHHHHHHHHHHHHHHHHHHHHHHHHHHH",
"HHHHHHHHHHHHHHHHHHHHHHHHHHHHHHHHHH:##:,:;;#+XXXXX+# X:;#:,0q8;+         +#;#XHHHHHHHHHHHHHHHHHHHHHHHHHHHHHHHHHHHHHHHHHHH",
"HHHHHHHHHHHHHHHHHHHHHHHHHHHHHHHHHH#+#;:,:;##+XXXXX+:9;+##,a,   XX++++++X   +;+HHHHHHHHHHHHHHHHHHHHHHHHHHHHHHHHHHHHHHHHHH",
"HHHHHHHHHHHHHHHHHHHHHHHHHHHHHHHHHH+###;,:;;##+XXXXXX++#+;q+  +#;#+#+#+++++X X#+HHHHHHHHHHHHHHHHHHHHHHHHHHHHHHHHHHHHHHHHH",
"HHHHHHHHHHHHHHHHHHHHHHHHHHHHHHHHHH++#;#:,:;;#+XXXXX+X++;8X +;::;#;+XXXXXX#++XX#+HHHHHHHHHHHHHHHHHHHHHHHHHHHHHHHHHHHHHHHH",
"HHHHHHHHHHHHHHHHHHHHHHHHHHHHHHHHHH+#+#;#:,;;##+XXXXX+X#,  #3,:;:;#:X+X+X+X#++XXXXHHHHHHHHHHHHHHHHHHHHHHHHHHHHHHHHHHHHHHH",
"HHHHHHHHHHHHHHHHHHHHHHHHHHHHHHHHHHH+#+##:,:;;##+XXXXX+;X ;983,:;:;#,X+++X+X;++XXXXHHHHHHHHHHHHHHHHHHHHHHHHHHHHHHHHHHHHHH",
"HHHHHHHHHHHHHHHHHHHHHHHHHHHHHHHHHHH++##;;:,:;;#+XXXX+;+ +8w983,::::;:X+X+++X;++XXXHHHHHHHHHHHHHHHHHHHHHHHHHHHHHHHHHHHHHH",
"HHHHHHHHHHHHHHHHHHHHHHHHHHHHHHHHHHHH+#+##;:,;;##+XXX#;  :3qw983,::;;;:X+++X+X:+++XXHHHHHHHHHHHHHHHHHHHHHHHHHHHHHHHHHHHHH",
"HHHHHHHHHHHHHHHHHHHHHHHHHHHHHHHHHHHH++#+;;:,:;;#+XX+#+ +;,9wq983,::;:;;X+X+++X8+X+XXHHHHHHHHHHHHHHHHHHHHHHHHHHHHHHHHHHHH",
"HHHHHHHHHHHHHHHHHHHHHHHHHHHHHHHHHHHHH++###;:,;;##+X;#  ##:89h9983,::;:;;++++#+X:+++XXHHHHHHHHHHHHHHHHHHHHHHHHHHHHHHHHHHH",
"HHHHHHHHHHHHHHHHHHHHHHHHHHHHHHHHHHHHH+++##;;,:;;#;,;+ X+#;,8;+:983,::::;#+X++++X;+X+XXHHHHHHHHHHHHHHHHHHHHHHHHHHHHHHHHHH",
"HHHHHHHHHHHHHHHHHHHHHHHHHHHHHHHHHHHHHH+#+;#::,3:33,,X ++##;+  #39833,:;:;#++#++X+#+X+XXHHHHHHHHHHHHHHHHHHHHHHHHHHHHHHHHH",
"HHHHHHHHHHHHHHHHHHHHHHHHHHHHHHHHHHHHHH++###;:,wcw83,  +#+#+   +#8983,,:;::+++#++X#++++XXHHHHHHHHHHHHHHHHHHHHHHHHHHHHHHHH",
"HHHHHHHHHHHHHHHHHHHHHHHHHHHHHHHHHHHHHH++++;#,8z8,98:  X+##   #,#;0983,:,:;:+++++#X#++X+XXHHHHHHHHHHHHHHHHHHHHHHHHHHHHHHH",
"HHHHHHHHHHHHHHHHHHHHHHHHHHHHHHHHrrteeee+++#;3q   :8,+ ++#+  #089#;0983,:::;;+++#++X:++XXXXHHHHHHHHHHHHHHHHHHHHHHHHHHHHHH",
"HHHHHHHHHHHHHHHHHHHHHHHHHHHHHHtusspyyre++++;8+  X+39;XXX#   3a09,#:9933,,::;#+++#+#X;+++XXHHHHHHHHHHHHHHHHHHHHHHHHHHHHHH",
"HHHHHHHHHHHHHHHHHHHHHHHHHHrrusdgbfpt5267+++:,    +:93+X++   #qw98:#,98,3:,:;;++#+#++X#+X+XXHHHHHHHHHHHHHHHHHHHHHHHHHHHHH",
"HHHHHHHHHHHHHHHHHHHHHHHHHysgnbggpire2**1+++:+    X;89;XX+   +,wq83;#398,,:,:;#+++++#X#++XXXXHHHHHHHHHHHHHHHHHHHHHHHHHHHH",
"HHHHHHHHHHHHHHHHHHHHHHHHydgbffspyeee4***$++;      #39,#XX   +:9w98,,q083,,:;;;#+#+#+#X#+++XXXHHHHHHHHHHHHHHHHHHHHHHHHHHH",
"HHHHHHHHHHHHHHHHHHHHHHHusfgggdpie611*%*$.+++     X+9jq;+X   +:,qq03wqq833,:::;;#+#+##++#+X+XXXHHHHHHHHHHHHHHHHHHHHHHHHHH",
"HHHHHHHHHHHHHHHHHHHHHHidfggddspyr6-%%$$$.O+X     XX3jq:#+   +::3w3jwqq08,:,:;:;#++#+##+;++X+XXXHHHHHHHHHHHHHHHHHHHHHHHHH",
"HHHHHHHHHHHHHHHHHHHHHusfgggggfsite2OO%%$.$+X     XX:ww,;X   +;::3wwwq0083,::;;;##++#+##+:++XXXXXHHHHHHHHHHHHHHHHHHHHHHHH",
"HHHHHHHHHHHHHHHHHHHHysgnbbggfffspue1$%%$.$-X      X#qw,#+   +;:;90qwwq003,,;:;;;;+###;##+#++X+XXHHHHHHHHHHHHHHHHHHHHHHHH",
"HHHHHHHHHHHHHHHHHHHisfnnbgggggggdsiy6*%O.O-X      X#8a,;+   +;#:389qw0q983,:;:;#;##+##;;#;+++X+XXHHHHHHHHHHHHHHHHHHHHHHH",
"HHHHHHHHHHHHHHHHHtsdbgbbbbbbgggggdspuye5-O*+      X#;8,:+   +#;::,89wq0993,::;;;#;+#;##;;+;+++XXXHHHHHHHHHHHHHHHHHHHHHHH",
"HHHHHHHHHHHHHHHHudgnmmnbbbbggggggfdsppiye5<#      X;:,::;  X+#;;::,90wq0983,::;#;;#+#;;#;;##+X+X+XHHHHHHHHHHHHHHHHHHHHHH",
"HHHHHHHHHHHHHHHufgnBNmmnbbbbbbgggfdssssiyre2+     X:::::#X +;+::;::39qwq993,:;:;;#;+;#;;;#+;++++XXXHHHHHHHHHHHHHHHHHHHHH",
"HHHHHHHHHHHHHHesbbNmmmnbbbbbbbggggddssppiyy7*      +,::##X X+#;;;::,80qq0983,:;;;;##+;;;;;###++X+XXHHHHHHHHHHHHHHHHHHHHH",
"HHHHHHHHHHHHHHydnnnnnmmbnbbbbbbbggfdsppiiyre2$ X   X,3###+  ++;;;;::,80qq093,::;:;;#+#;;;#;+;+++XXXXHHHHHHHHHHHHHHHHHHHH",
"HHHHHHHHHHHHHepbbggnnnnnbbbbbbbbggfddsspitrre52.X   #3####+ X+;#;;;::390qq083,;:;;:;++;;;;;###++++XXHHHHHHHHHHHHHHHHHHHH",
"HHHHHHHHHHHHHydbgggbnnnnnbbbbbbbbgfddsssiytyite5o   X,###+#XX+#;;#;;:,89qq093,::;:;;#+;;;;;;;;+++X+XXHHHHHHHHHHHHHHHHHHH",
"HHHHHHHHHHHHHyfngbgbbnbbnnbbbbbggggfddspuyyipiye6OXX ##+###+XX;##;#;::380wq093,::;;;;+#;;;#;;##+++X+XXHHHHHHHHHHHHHHHHHH",
"HHHHHHHHHHHHHifgbgggbbbbbbbbbbbgggfdddspuyiippuyr5*o #+#+###+X##;#;;;:,39qwq093,::;:;++;;;;#;#;++++XXXHHHHHHHHHHHHHHHHHH",
"HHHHHHHHHHHHHsgbbgfbgbbbbbbbnbbbgggfdssipiiipiuuut72%##+##+#+X+;::;;;:,38qawq93,:;:;;#X;#;#;#;;++X+X+XXHHHHHHHHHHHHHHHHH",
"HHHHHHHHHHHHHsggbbgfgbbnnmnnnbggggfddsspiiuiiiuipuye62%+++#+#+#:##=:;::,80waw993,:;;;;X#;;;#;###++X+XXXHHHHHHHHHHHHHHHHH",
"HHHHHHHHHHHHesgbbgffggbbnnbnnnbggffdssppiuuiiiippiuye4-$O++##+>;3++;:;:,39waaq93,::;:;++#;#;#;#;+X+X+XXXHHHHHHHHHHHHHHHH",
"HHHHHHHHHHHHufbnbbggbbbmmnnbbbbbgdddspppppiipiipppuur6-%%O+#+;#3,+##;;:,39waha08,,::;;#X;#;#;##;++++X+XXXHHHHHHHHHHHHHHH",
"HHHHHHHHHHHepggbbbbbbbmnmnnbbbbbddddsppipiiiiiippiuyr5-%*$++#;:,,+#+;;::,8qahhq93,:;:;#X#####;###+X++XXXXHHHHHHHHHHHHHHH",
"HHHHHHHHHHryfgggbggbgbnmmmmbbnbgddddsppppippppiiuuyye1-%**OX;#+:,+#:;#;:,80whjw08,,:;;;++#;#;###;++++X+XXXHHHHHHHHHHHHHH",
"HHHHHHHHHHydfgggggggbnmmnmmmnbbgfddspssspppiiiuyyte77<-***$+;@#+,+:,:;;:,39whha093,::;:#X##;##;#;+++X+XXXXXHHHHHHHHHHHHH",
"HHHHHHHHHeidfgggggbgbnnnnbnbggbfffssspsspppiuiytee774<-%**%X: +#+;,,,:;::38whjhq98,,::;;X+;#;##;##+++X+XXXXHHHHHHHHHHHHH",
"HHHHHHHH7yisfggggbbgbnnnnbbggggggfssssssppiiuyteee655<****%O: ##,;,,,:#;:,8qhjjw083,:;:;+X######+#+X++X+XXXXHHHHHHHHHHHH",
"HHHHHHH6euisddfgffbngbnnnngfgfgfddssspspiiuuyree77542<-****$;@#+;XX#;:;;:,30hjkaq93,,:;;#X##;##;##+++X+XXXXXHHHHHHHHHHHH",
"HHHHHHH7yiupffdgfggggbbbbbgffffffdsssippiiiutee775422<-****%;;;:,+#;#:#;::39ajlhw983:;:;#X+#####+#++++X+XXXXXHHHHHHHHHHH",
"HHHHHH7tuuipdfffgffgbbbbgggggfddssssippiiyttee7654411<****%%#::,,;;=;:##;:,8wjljaq83,:;:;X+###+##+#++++XX+XXXHHHHHHHHHHH",
"HHHHHH6tuupsdddfggggnbbgbgbggdddsssppiiiyyree7654211<*-**%**+;#,,;;&;;#;;:,8whlkhw98,::;;+X#+####+#+X+X++X+XXXHHHHHHHHHH",
"HHHHHH6ruipsfdfdgbbgbbggggggfddssspppuuuytee7654221<<-****%*##;#,;#;:###;:,3qhlzka08,,;:;+X+#+#+#+#++++XX+X+XXHHHHHHHHHH",
"HHHHHH6tuissddddgggbbggggfgfddssspppiuyttre775444211<-******#+;>+#;:###;#;:30ajzzhq93::;;+X++#+##+#++X++XX+XXXHHHHHHHHHH",
"HHHHHH7tuisdddddddggbbbgggffdddsppiuuyyrere755444211<-****%**#+#::####;#;;:39ajlxkw08,::;#X+#++#+++#+++X+XXXXXXHHHHHHHHH",
"HHHHHH6tyissdddfdggbbbbggbgffdspsiuyutee66755444211<-**%%%%**###+######;#;:,9whlvla08,,::#+X++#+#++#++XXX+XXXXXHHHHHHHHH",
"HHHHHH5ryisssfddffgbbbggggdddsiiiuuyyrre6554222211<-*%$$$%*$$$######;####;:,8whlvxh093::;;+X+#+#+#+#+++X+XX+XXXHHHHHHHHH",
"HHHHHH4ryispsdfffgbbbgffdffdsssiuyytre775444422211<**%$$$$$**$O######;##;#:,8qhzMcjq93,;:;+X++#+#++#;+X+X+XXXXXXHHHHHHHH",
"HHHHHH2eyupsddfgggbbbffggdddsspuuuyer775444422111<-**$$$OO$**$OX+#+#+####;;,3qhzVvlw08,:;;#++++++++##++XXX+X+XXXHHHHHHHH",
"HHHHH42euuipsdfgbbbbbgfsssdspiuuyure7555222221<<<--*%$$$$$%%%%$X++#####;##;,30hzMMzhq9,:::::;:;;:;;##+++X+XXXXXXHHHHHHHH",
"HHHHH22eyuiusdfgbbbgbbgddssppuuuttee52222221---***%%%$$$$OO$$*$X+#+#+#####;:30hzvVzjw03::########+##+++X+XX+X+XXXHHHHHHH",
"HHHHH26ruippdffggbnbgbgfgssppiuytre75222121--%$%*%$%$$$$$OO$$*$X#+#+#+#;#;#:30alxVzkwq,:;:;;##+#+#++#+++X++X+X+XXHHHHHHH",
"HHHHH47tupssddgggbggggfffipsiuuyre7542221<--%$%%$$$$$$$OO$$$%%$X++##+###;#;;39wjllczh03,:;:##+#+++++++++++X+X++XXHHHHHHH",
"HHHHH17yussssddgggbggddddsiiuuur77752221<--%%$$$$$$$$$$$$$$$%%OX+#+###+##;#;390whxcljq3:::;#####+#++++X++X+X+XX+XHHHHHHH",
"HHHH21eyupssffdfgggffffdssiiuiue7665221<--%$$$$$$$$$$$$$$$$$%%OX#+#+####;;;;399azvCMlw8::;:##+#+#+++++++++X+XXXXXXHHHHHH",
"HHHH12eyuppsfdggfggffgfdspiiyyre7e7521<***%$$$$$$$$$$OOOO$$$$%XX+++##;#;#;#;,w8qjcACza8,::;###+++++#++++X++X+X+XXXXHHHHH",
"HHHH24euuppsffbgfbgfggfsspuuuteee772<***$%$$$$$$$$$$$OOOO$$$$%XXX+#+#+##;#;;,q39jxSDcj9::;;;#+##+#+++++++X++X+XXXXXHHHHH",
"HHHH27ruippsdggbggggbgdpspuuuueee762-**%%%$$$$$$$$$OOOO$$$$$$$XX+++#+####;#;,a88azSGMl0,::;####+++#++++X++X+XXX+XXXHHHHH",
"HHH22etuuipddfgbbfggggfsipiuiye7752<***%$$$$$$$$$$$$$$$$$$%%%OXXX+++#+##;#;;:w93alZGCxq3:;:;##+#+++++#+++X+X+X+XXXXHHHHH",
"HHH55eyuipsdgbggbggggfdspppyyte6651-***$$$$$$$$$$$$$$$$$$%$%$OXX+X+#+##+#;#;:q9:qjCGAcw8::;####+#++++++X++X+X+XXXXXHHHHH",
"HHH24eyupssdgggggffgfdsippuyyr7522<*%$$$$$$$$$$$$$$$$$$$$$$%OHHHX+++##+#;#;:;90;8hVGSMa9::;;##+#++#+++X+X++XXX+X+XXXHHHH",
"HH627tyipssffdgfgffddsiiuytrte6541<*$$$$$$$$$$$$$$$$$$$$%O%$HHHH+X++#++;#;#:;80#3wvFGVh0,:;;####+#+#+++X++X+X+XXXXXXHHHH",
"HH44eeyissdggffdfffddsiiityre77521-*%$$$%$%%%$$$$$$%$$$%%%$HHHHHX++#+#+++;;:;30;3qxDGCkq3::;###+#+#+++X+X++X+X+XXXXXHHHH",
"HH45eryuissddfddfffddsiiuttte66421*%%$$%$%$%%$$$$$$OOO$%%$HHHHHHX+#+#+++++;:;,0;:0zAGAzw8:;;;+##+#+#++++++X+X+XXXXXXHHHH",
"HH25eryupsddddfffffdspipuryte66521**%%*$$%%%$$$$$$$$$$%*$HHHHHHHHX##+#++++;:;,0::9lZGSva9,:;###+#++++++++++X+++X+XXXHHHH",
"H416rtyuipsddddfdfddpiuiyttre77522<**%$%%%%%$%$$$$$$$%%$HHHHHHHHHH+####+++;:::q3+8jVFDVh03;:;###+#+#+#++X+X+X+X+XXXXHHHH",
"H416ryyuissdddffdfdspiiutrtr777542<-%$%*$%%%$$$$$$$$$%OHHHHHHHHHHH+##+#8##::::93#3hcFGAjq8::;###+++++++++X+++X+X+XXXHHHH",
"H526ettuppdddffffddppiuytrreeee521<-%$*%%%**$$$$$$$O$+HHHHHHHHHHHHH+#+30##;;:;99#,axFGDlw9,;:##+#+#++++X++X+++X+XXXXXHHH",
"H425ettippsfddddfddppiuytrrree75211-%%%$$**%%$$$$$$%+HHHHHHHHHHHHHH+###++#;::#89+:wlDGFxa0::;;##+#+#+#+++++X+X+XXXXXXHHH",
"H2<5ertupssdddffdssppuuytte7777521<*%%%$%**%%$$$$%OHHHHHHHHHHHHHHHHH+####;;;:#39#;qkAGGvhq3::####+++#+++++X+X+X++X+XXHHH",
"H2<5etyisssdddsdssspuutrte67556521--%$%%****OO*%o.HHHHHHHHHHHHHHHHHHH+#####::;:8;#0hAGGVkw8,:;##+#++++++X++++++X+XXXXHHH",
"H215ertusssddssssppiuytrr75655542<-%$$$%*-**O$*$.HHHHHHHHHHHHHHHHHHHHH###+#::#,9#+9aCGFZlw9,:;###++#++++++X+X+X+XX+XXHHH",
"H216errisssddssdpiiuyytee7545552<-*%$$$$**-*$$%OHHHHHHHHHHHHHHHHHHHHHH+#+;;::::8#+8wvDGSxh03:;#+##++#+#++++++X+X+XX+XHHH",
"H1<5eetussddfdssiuuytrrre7556522<*%$$$$%%****%O.HHHHHHHHHHHHHHHHHHHHHHH++#;::#:9,+3qxSFDchq3::###+#++++++X++X+X+XX+XXHHH",
"H2<5eetussssddspiuyytrerr7555421-*%$$$%%%*---*oHHHHHHHHHHHHHHHHHHHHHHHH++#;:;#:9,+30lAFSvkw8:;####+#+#+++++X+++X+XXXXHHH",
"H2<5ertupssssdssuyrtteee7664441<*%%OOOO%%*-*%-*HHHHHHHHHHHHHHHHHHHHHHHHH+#;;::#,:#:9kZDSMza9,:;##+#+++++#+++X+X+X+X+XHHH",
"H4257etiissppppiutttreee775541--$$$OO$O%**-*%-*HHHHHHHHHHHHHHHHHHHHHHHHHH#;;::;::#;8jVASVxh03:##+#+#+#+++++X+++X+XXXXHHH",
"H4257rrupssppspiytrtreeee7522<-*$$$$$$$%****$**HHHHHHHHHHHHHHHHHHHHHHHHHH+#:::;,:;;3avZSCcjq8,;####+#+#+X+++++X+X+XXXXHH",
"H4227rrtpssppppittrtreeee644<<-$$$$$$$%$***%%**HHHHHHHHHHHHHHHHHHHHHHHHHHH:#:;;:,#;,wxCSZvkw93;;##+#+++++++X+X+XXXXXXXHH",
"H2<277erypssppiuutrreeee75222-$$$$$$$$$%%*-$$*+HHHHHHHHHHHHHHHHHHHHHHHHHHp2#;;;:,##,qzCSAMla08:#;##+#+#+++++++X+X+XX+XHH",
"H<2677etrippiiiiyrrree775221<*$$O%%O$$$%%**$%*XHHHHHHHHHHHHHHHHHHHHHHHHHiu6O;##::#+:0lVSSClhq9,;####+#+++X++X++XXX+X+XHH",
"H-457erttippiiputreeeee7521--$$$$$$O$$$%$*-$%*XHHHHHHHHHHHHHHHHHHHHHHHytrt4%#:##:#+:9kMASZzaw93:#;#+#++#+++X+XX+XXXXXXHH",
"H*245etyyiiipiiureeeee75211-$$$OO$O$$$$$%**$%$HHHHHHHHHHHHHHHHHHHHHHHyy7764$#:;#+##:8jvZSZzha98:;::;::,:;;;#+X+X+XXXXXHH",
"H*2257rtyuuipiuuye7eee652<-%$$$$OO$OO$$$%**$%$HHHHHHHHHHHHHHHHHHHHHHrir6441*O::##++;3hvZSAzjq:#;#;##;;#;;#;;;;#+XXXXXXHH",
"2-124etryiuisiuuyeeee65421*%$$*OO$$$O$$%%--O*OHHHHHHHHHHHHHHHHHHHHHriue52**O$;:###+#,hvSZc9;;#####;###;;;;;;#;;;#XXXXXHH",
"42114rtttiiipiyyt7ee7642<<*$OOO$O$$$$$$%***%o.HHHHHHHHHHHHHHHHHHHHiiir2*%OOo$::;;++;:qzcw#+##;##;###;##;#;;#;#;;;#+XXXHH"
};
