/* XPM */
static char *result[] = {
/* columns rows colors chars-per-pixel */
"32 32 4 1 ",
"  c black",
". c #EDCD00",
"X c #FFE121",
"o c None",
/* pixels */
"oooooooooooo        oooooooooooo",
"oooooooooooo        oooooooooooo",
"oooooooooooo  XXXX  oooooooooooo",
"oooooooooooo  XXXX  oooooooooooo",
"oooooooooooo  XXXX  oooooooooooo",
"oooooooooooo  XXXX  oooooooooooo",
"oooooooooooo  XXXX  oooooooooooo",
"oooooooooooo  XXXX  oooooooooooo",
"oooooooooooo  XXXX  oooooooooooo",
"oooooooooooo  XXXX  oooooooooooo",
"oooooooooooo  XXXX  oooooooooooo",
"oooooooooooo  XXXX  oooooooooooo",
"oooooooooooo  XXXX  oooooooooooo",
"oooooooooooo  XXXX  oooooooooooo",
"oooooooooooo  XXXX  oooooooooooo",
"oooooooooooo  ....  oooooooooooo",
"oooooooooooo  ....  oooooooooooo",
"oooooooooooo  ....  oooooooooooo",
"oooooooooooo  ....  oooooooooooo",
"oooooooooooo  ....  oooooooooooo",
"oooooooooooo  ....  oooooooooooo",
"oooooooooooo  ....  oooooooooooo",
"oooooooooooo  ....  oooooooooooo",
"oooooooooooo  ....  oooooooooooo",
"oooooooooooo  ....  oooooooooooo",
"oooooooooooo  ....  oooooooooooo",
"oooooooooooo  ....  oooooooooooo",
"oooooooooooo  ....  oooooooooooo",
"oooooooooooo  ....  oooooooooooo",
"oooooooooooo  ....  oooooooooooo",
"oooooooooooo        oooooooooooo",
"oooooooooooo        oooooooooooo"
};
