/* XPM */
static char *result[] = {
/* columns rows colors chars-per-pixel */
"32 32 29 1 ",
"  c black",
". c #413901",
"X c #443C09",
"o c #443F22",
"O c #8E7B03",
"+ c #938213",
"@ c #AF9A14",
"# c #EDCD00",
"$ c #EECE02",
"% c #EECE06",
"& c #F5D505",
"* c #F2D209",
"= c #FADA0A",
"- c #F9DA11",
"; c #FBDC15",
": c #F3D61F",
"> c #FADC18",
", c #FCDE1A",
"< c #FEE01F",
"1 c #FFE121",
"2 c #FEE338",
"3 c #FFE43A",
"4 c #F8E047",
"5 c #FAE55D",
"6 c #FEE960",
"7 c #F3E379",
"8 c #FFED7B",
"9 c #FFEE7F",
"0 c None",
/* pixels */
"00000000000          00000000000",
"00000000000          00000000000",
"0000000000 7999999911  000000000",
"0000000000 7999999911  000000000",
"00000000 o9%#######1111  0000000",
"00000000 o9%#######1111  0000000",
"000000  95#<1111111##111+ 000000",
"000000  95#<1111111##111+ 000000",
"000000  95#<1999911##111+ 000000",
"000000oo54*236666,,**>>1@.000000",
"0000  99#*189====&&11##1;&  0000",
"0000  99#*189====&&11##1;&  0000",
"0000  99#*189====&&11##1;&  0000",
"0000  99#*189====&&11##1;&  0000",
"0000  99#*189====&&11##1;&  0000",
"0000  99#*189====&&11##1;&  0000",
"0000  99#*189====&&11##1;&  0000",
"0000  99#*189====&&11##1;&  0000",
"0000  99#*189====&&11##1;&  0000",
"0000  99#*189====&&11##1;&  0000",
"0000  99#*189====&&11##1;&  0000",
"0000  99#*189====&&11##1;&  0000",
"0000  99#*189====&&11##1;&  0000",
"000000  1>#<1&&&&11##11&O 000000",
"000000  1>#<1----11##11&O 000000",
"000000  1>#<1111111##11&O 000000",
"00000000 X1$#######11&&  0000000",
"00000000 X1$#######11&&  0000000",
"0000000000 :1&&&&&&&&  000000000",
"0000000000 :1&&&&&&&&  000000000",
"00000000000          00000000000",
"00000000000          00000000000"
};
