/* XPM */
static char *result[] = {
/* columns rows colors chars-per-pixel */
"32 32 36 1 ",
"  c black",
". c #927E00",
"X c #938213",
"o c #EDCD00",
"O c #EECE02",
"+ c #F0D000",
"@ c #F5D400",
"# c #F5D505",
"$ c #F5D606",
"% c #FCDA00",
"& c #F2D209",
"* c #F5D50E",
"= c #FADA0A",
"- c #FADB0F",
"; c #FEDE13",
": c #F8D914",
"> c #F3D61F",
", c #FADC18",
"< c #FCDE1C",
"1 c #FCDE1F",
"2 c #FEE01B",
"3 c #FEE01F",
"4 c #FEE020",
"5 c #FFE121",
"6 c #FDE238",
"7 c #FFE43A",
"8 c #FCE341",
"9 c #FCE344",
"0 c #FFE646",
"q c #FFE649",
"w c #FFE857",
"e c #FFED76",
"r c #F3E379",
"t c #FFED7B",
"y c #FFEE7F",
"u c None",
/* pixels */
"uuuuuuuuuuu          uuuuuuuuuuu",
"uuuuuuuuuuu          uuuuuuuuuuu",
"uuuuuuuu   ryyyyyyyyy    uuuuuuu",
"uuuuuuuu   ryyyyyyyyy    uuuuuuu",
"uuuuuu  yyy9855555555555X uuuuuu",
"uuuuuu  yyy9855555555555X uuuuuu",
"uuuu  yy865Oooooooooo55555  uuuu",
"uuuu  yy865Oooooooooo55555  uuuu",
"uu  yy885,o3555555555oo55555  uu",
"uu  yy66,:&4577777755&&,<555  uu",
"uu  yy55o&555yyyyyy5555o*555  uu",
"  rr99OO345et------$$5530t55>>  ",
"  yy88oo555ty======##555qy5555  ",
"  yy55oo555ty======##555qy55%%  ",
"  yy55oo555ty======##555qy55%%  ",
"  yy55oo555ty======##555qy55%%  ",
"  yy55oo555ty======##555qy55%%  ",
"  yy55oo555ty======##555qy55%%  ",
"  yy55oo555ty======##555qy55%%  ",
"  yy55oo555ty======##555qy55%%  ",
"  yy55oo555ty======##555qy55%%  ",
"uu  1155o&555######5555yw5%%  uu",
"uu  1155o&555######5555yw5%%  uu",
"uu  55555,o3555555555yy555%%  uu",
"uu  XX555<*0qqqqqqqqqww52;..  uu",
"uuuu  55555tyyyyyyyyy555;%  uuuu",
"uuuuuu  5555555555555%%%. uuuuuu",
"uuuuuu  5555555555555%%%. uuuuuu",
"uuuuuuuu   +%%%%%%%@@    uuuuuuu",
"uuuuuuuu   +%%%%%%%@@    uuuuuuu",
"uuuuuuuuuuu          uuuuuuuuuuu",
"uuuuuuuuuuu          uuuuuuuuuuu"
};
