/* XPM */
static char *result[] = {
/* columns rows colors chars-per-pixel */
"32 32 8 1 ",
"  c black",
". c #9B8914",
"X c #EDCD00",
"o c #FFE121",
"O c #FFED86",
"+ c #FFF0A4",
"@ c #FFF1AB",
"# c None",
/* pixels */
"############        ############",
"############        ############",
"##########  oooooooo  ##########",
"##########  oooooooo  ##########",
"##########  ooXXoooo  ##########",
"##########  ooXXoooo  ##########",
"######### .oXXoo@@oooo  ########",
"######### .oXXoo@@oooo  ########",
"######### .oXX@@@@oooo  ########",
"######### .oXXOO@@oooo  ########",
"######### .oXXoo@@oooo  ########",
"######### .oXX++@@oooo  ########",
"######### .oXX@@@@oooo  ########",
"######### .oXXoo@@XXXX  ########",
"######### .oXXoo@@XXXX  ########",
"######### .oXXoo@@XXXX  ########",
"######### .oXXoo@@XXXX  ########",
"######### .oXXoo@@XXXX  ########",
"######### .oXXoo@@XXXX  ########",
"######### .oXXXX@@XXXX  ########",
"######### .oXXXX@@XXXX  ########",
"######### .oXXXX@@XXXX  ########",
"######### .oXXXX@@XXXX  ########",
"######### .oXXXX@@XXXX  ########",
"######### .oXXXX@@XXXX  ########",
"######### .oXXXX@@XXXX  ########",
"##########  oo@@XXXX  ##########",
"##########  oo@@XXXX  ##########",
"##########  ooooXXXX  ##########",
"##########  ooooXXXX  ##########",
"############        ############",
"############        ############"
};
