/* XPM */
static char *result[] = {
/* columns rows colors chars-per-pixel */
"64 64 99 2 ",
"   c #000001",
".  c #000E0F",
"X  c #001415",
"o  c #061718",
"O  c #001F1F",
"+  c #061F20",
"@  c gray20",
"#  c #3A3E3E",
"$  c #005F5F",
"%  c #3A4343",
"&  c #006464",
"*  c #016C6C",
"=  c #017474",
"-  c #0E7070",
";  c #007C7C",
":  c #0A7B7B",
">  c #157C7C",
",  c #424646",
"<  c #464C4C",
"1  c #494C4C",
"2  c #4A5151",
"3  c #565757",
"4  c #565D5D",
"5  c #008484",
"6  c #0A8484",
"7  c #018C8C",
"8  c #0D8D8D",
"9  c #158383",
"0  c #168F8F",
"q  c #1A8F8F",
"w  c #019393",
"e  c #0A9494",
"r  c #009B9B",
"t  c #179393",
"y  c #1A9595",
"u  c #159C9C",
"i  c #1A9898",
"p  c #248484",
"a  c #258D8D",
"s  c #229393",
"d  c #299797",
"f  c #259D9D",
"g  c #369B9B",
"h  c #3D9C9C",
"j  c #01A4A4",
"k  c #0DA2A2",
"l  c #02A8A8",
"z  c #0EAAAA",
"x  c #17A4A4",
"c  c #1AA5A5",
"v  c #14ACAC",
"b  c #1DABAB",
"n  c #1DB0B0",
"m  c #22A2A2",
"M  c #21ACAC",
"N  c #29AAAA",
"B  c #36AFAF",
"V  c #3FA9A9",
"C  c #23B3B3",
"Z  c #2BB4B4",
"A  c #2CB8B8",
"S  c #32B5B5",
"D  c #31BABA",
"F  c #3BBDBD",
"G  c #499D9D",
"H  c #579F9F",
"J  c #56A2A2",
"K  c #56ACAC",
"L  c #45BABA",
"P  c #48BFBF",
"I  c #56B2B2",
"U  c #58B7B7",
"Y  c #56B9B9",
"T  c #59BFBF",
"R  c #67A8A8",
"E  c #74AEAE",
"W  c #44C0C0",
"Q  c #4BC2C2",
"!  c #53C4C4",
"~  c #5AC5C5",
"^  c #64C7C7",
"/  c #6AC4C4",
"(  c #6EC9C9",
")  c #72C6C6",
"_  c #75CACA",
"`  c #79CCCC",
"'  c #88B6B6",
"]  c #86CECE",
"[  c #84D1D1",
"{  c #8CD5D5",
"}  c #92D6D6",
"|  c #96DADA",
" . c #9EDFDF",
".. c #A1DFDF",
"X. c #A5E1E1",
"o. c #AEE5E5",
"O. c #B2E7E7",
"+. c #B4E8E8",
"@. c #BAEBEB",
/* pixels */
"# # # # # # # # # # # # % # # # # # # # # # # # # # # # # # # # # # # # # # # # # # # # # # # # # # # # # # # # # # # # # # # # ",
"# - - = - = = = = - - * = = = - = - = - - = = - = - = = - o         o - = - * = - = = = = - - = = = = - - = = = = - - = = - - % ",
"# ; 5 ; 5 ; 5 5 0 s 5 5 5 5 ; f 5 5 5 ; ; 8 s 5 5 5 ; 6 ; X         o = 5 ; 5 5 ; 5 0 y ; 5 5 ; ; f 6 5 ; 5 5 0 s ; 5 5 5 5 : , ",
"# 6 w w w w w 5 ; w w w w 7 ; 8 w w w w 5 5 w w w w 7 7 5 o         o 5 w w w w w 5 ; e w w w 7 ; 7 w w w w 5 ; e w w w w w 6 , ",
"# e j j j l j 7 5 r j j j r 5 7 j j j j 7 5 r j j j w w 7 o         X 7 j l j l j 7 5 r j j j r 5 7 j j j j 7 5 r j l l j j e % ",
"# t C C C C f & $ & & & $ $ $ & & $ $ $ & $ $ & 5 w 7 7 7 O         X i C C C C f & & & & & & & & & & & & & & & & & u n C C x % ",
"% i C Z S C Q 8 5 5 5 ; ; ; = = = = = = = ; ; * 5 7 w e 7 o         X t C Z Z Z Q e e x x u v M N S B T T / / _ { H t C Z S c % ",
"# i C U ] C W 8 5 5 5 ; ; = = = * = = = ; = ; * 5 5 8 m 7 O         X i C U ] C W v v n C C D D W ~ / _ [ | ..X.O.E i C U [ c % ",
"# i v w M C W 8 5 5 ; ; = ; = = = = = ; ; ; 5 * 5 5 ; 7 w O         X u v w M Z Q C C C n A W W Q ( ` ` }  .X.O.+.E i z w M x % ",
"# i n v C Z P 6 5 ; ; = ; = = = = = ; = ; ; ; = 5 7 w w r O         X t n v C C Q n C C A F Q ~ ( ` {  . .o.+.@.+.G t n v C c % ",
"% i C C C C P 6 ; ; = ; = = = = = ; = ; ; ; 5 = 5 7 r j k O         X t C C C C Q n A n F Q Q ^ ` { {  . .+.@.o. .h i C C C c % ",
"# i C C C C W 6 ; = ; = = = = = ; ; ; 5 5 5 5 = 5 r j b x O         X i C C C C Q A D F Q Q ` ` `  . .O.O.@.+.X...a i C C C c % ",
"# i C C C Z P : = ; = = = = = ; ; ; ; ; 5 5 5 = 5 j n C k O         X t C C C Z Q A D W ~ ~ ` ` }  . .O.@.+.X.} ` 9 u C C C x % ",
"# i C C C C Q : = = = = = = = ; ; ; 5 5 7 5 w ; w n C z j O         X i C C C C Q W Q Q ( ` { {  .O.+.@.+.X.| [ _ 9 i C C C c % ",
"# y C Z S C W : = = = = = ; ; ; ; 5 5 5 5 7 w ; t C b N x O         X u C Z Z C Q Q ! ^ ` { |  .o.+.@.+.X.X.{ ) ( > t C Z S c % ",
"# i C I ] C Q : = = = = ; ; ; ; ; 5 7 5 w w r ; t z U ] x O         X t C U ] Z Q Q ^ ` ` {  .o.o.@.O.o.| [ ( ~ ~ : i C I [ c % ",
"# i C u b v Q : = = = ; ; ; ; 5 5 7 7 7 w r r 5 7 j w M c O         X i v w M Z Q ( ` `  . .+.O.@.@.X. .` ` ( ! Q 7 i z 7 M x % ",
"# i C C z r P : = = ; = ; ; ; 5 5 5 7 7 w r j 5 7 v v C x O         X t n v C C Q ` { {  . .+.@.+. .| [ ( ^ ! Q F ; t n v C c % ",
"# i C z r e P : = ; ; ; ; ; 5 5 7 7 w r r j j 7 t C C C x O         X i C C C C Q { |  .+.+.@.o.O.X.{ _ ^ ! Q D D = i C C C c % ",
"# i z r e e P : ; ; ; ; 5 5 5 7 7 w r r j j l 5 t C C C x O         X t C C C Z Q |  .X.o.@.+.X.} { ( ~ Q Q D C C ; t C C C c % ",
"# e r w 7 e P : ; ; ; ; 5 5 5 w w w r j j l C t t C C C x O         X i C C C C !  .o.o.@.+.X.| ` ` ~ ~ W W A C C = t C C C x % ",
"# 7 w 7 7 e ! > ; ; 5 5 7 7 7 7 r r j j z v C 0 t C C C x O         o t C C C C ~ O.+.@.+. .X.{ ` ( Q Q A D n A C = t C C C c % ",
"# 6 w w 8 y { p 5 ; 5 5 5 7 w r r j j l n C C t i C Z S x O         X i C Z Z A | +.@.+.o.{ { ` ~ Q W F n A n z j = i C Z S c % ",
"# ; 5 8 m s ..p 5 5 5 7 w w w r j j z n C C A y t C Y ] x O         X t C Y ] A o.@.@.X. .{ ` ^ ~ Q F D A n n z j = t M I ] c % ",
"% 6 5 ; 7 f O.p 6 5 5 7 7 r r j j j v C n A F d q v w M x O         X t v w M S +.O. .| [ ( ~ Q W A C C C v j j r = 0 k 5 M x % ",
"# ; w 7 w N O.a 5 7 7 w r r j j z C C C A F Q N 0 b v C x O         X t n v C S +.o.X.[ ` ^ ~ W W D C C v z j j r * 0 n v z r % ",
"% ; 7 r j S O.a 7 7 w r r j l z z n C A F W ~ g t C C C x O         X t C C C S +. .{ ( ( Q Q D A A C v l l j r r * 0 C z r e # ",
"# 6 w j b S } q 7 7 r r j l l n C A D A Q Q ( G 0 C C C x O         X t C C Z S | { ( ~ ! W D A A n v z j j r w 7 * 0 z j w 8 % ",
"# 6 j C C Z ) t w w r r l z n n A n F W ~ ^ ` J t C C C x O         X t C C C Z _ ( ^ ~ Q F A C n n z l r r r w w * 7 r w w 8 % ",
"% 8 v C C Z ) t w r j j l v n A A F W Q ^ ( ` J 0 C C C x O         X t C C C Z ` Q Q W F A C C n l j j r r w 7 5 & ; w 7 7 7 # ",
"# t C Z S Z ) u j j j l n C C A F Q ~ ^ ` {  .E 0 C Z S x O         X t C Z S Z ( ~ Q F C A C n z j j r w w 7 7 5 & = w w 8 8 % ",
"# y C U ] Z ) x r j z z C C A A W Q ~ ( { |  .E t C U ] x O         X t C U ] Z ` Q F n A n n l j j r r w w 5 5 5 * ; 5 8 c 7 % ",
"# q v w M Z _ x l l n n n A F Q Q ( _ { | o.+.' 0 z w b x O         . 0 v w M S _ D A C C z z j j r w w w 7 5 5 5 & ; 5 ; 7 e % ",
"# t n v C Z ( x v n n A A F Q ~ ~ _ [ | o.+.@.' t n n C x O         . q v v C Z _ D C C n l j j r r w w 5 5 5 ; ; & = w w r r % ",
"# q C C C Z _ v n n A n F W Q ^ _ { | X.o.@.o.E 0 C C C x O         . 0 C C C Z ) A C v l j j r r 7 7 7 5 5 5 ; ; & ; 7 r j x # ",
"# q C C C Z _ C A n D F Q ! ~ ` [ | X.+.@.+.o.E t C C C c O         . 0 C C C Z _ Z v z l j r w w w 7 5 5 5 ; ; ; & ; r j n x % ",
"# q C C C Z _ Z n A D W ! ~ ( { } X.+.@.+.X. .R 0 C C C x O         . 0 C C C Z ) C l l j r r 7 7 5 5 5 5 ; ; = ; & ; j b C x % ",
"# q C C C Z ) A D D Q Q ( ` {  .o.+.@.o.+... .H 0 C C C x O         . 0 C C C Z ) b j r r w w 7 5 7 ; 5 ; ; ; ; = & 7 n C z r % ",
"# q C Z A Z ( D W W ~ ^ ` ` X.o.+.@.O.o. .[ [ J 0 C Z S x O         . 0 C Z Z Z ) v j r r w 7 7 7 5 ; 5 ; ; ; = = * 0 C b N x % ",
"# q n U { A ( D W Q ^ ( [ |  .O.@.O.X. .{ { _ G 0 C U ] x O         . q C U ] Z ) x r r 7 7 7 5 5 ; ; ; ; = = = = & 0 v I ] c % ",
"# q v w M Z ) Q ~ ^ _ {  .X.@.@.o.O. .| { ` ^ V 0 v w M x O         . 0 v w M Z ) x w w w 7 5 5 5 ; ; ; = = = = = & 5 j w M c % ",
"# q b v C Z _ ! ~ ( { | o.O.@.+. . .{ { _ ~ Q d t n v C x O         . 0 v v C Z ) u w w 5 5 5 ; ; ; ; ; = = = = ; & 5 v v C c % ",
"# q C C C Z _ ( ` { X. .+.@.+.o. . .{ ` ( ~ Q d 0 C C C x O         . 0 C C C Z ) t 7 7 5 5 5 ; ; ; = = = = = = = * 0 C C C c % ",
"# q C C C A _ _ [ } X.+.@.o.X. .} ` ` ( Q W F t 0 C C C x O         . q C C C Z _ t 5 5 5 5 ; ; = ; ; = = = ; = = & 0 C C C c % ",
"# q C C C Z _ { { X.@.@.O.X. .| [ ` ^ ~ W D D t 0 C C C x O         . 0 C C C Z ( 0 5 5 ; ; ; = ; = = = = = = ; ; & y C C C c % ",
"# q C C C Z _ X.o.o.@.+.O. .| { _ _ Q Q W D C y 0 C C C x O         . q C C C Z ( 0 5 5 5 ; ; ; = = = = ; = = ; ; & q C C C c % ",
"# q C Z S Z _ ..+.@.+. . .[ { ` ~ ~ W F C C C t t C Z S x O         . 0 C Z S Z ) 9 5 ; ; ; = ; = = = = ; = ; ; 5 & 0 C Z S c % ",
"# q C Y ] Z ` +.@.O.+. . .[ ` ( ~ Q F A A C C 0 0 C Y [ c O         . 0 C U ] Z ) 9 ; ; ; = = = = = = = = ; ; 5 5 & 0 C Y [ c % ",
"# q z e M Z _ @.O.X. .[ [ ` ^ Q W F A n n A v 5 y v w M x O         . 0 C u b b ) 9 ; ; ; = = = = ; = = ; ; ; 5 7 & 0 v w M x % ",
"# q n v C Z ` O.o...| { ` ^ ~ Q F A n A n v l 7 0 n v C c O         . 0 C n z x ) 9 = ; = = = = = = ; ; 5 5 5 5 5 * 0 n v C x % ",
"# q C C C Z _ o...{ { ` ( Q Q W A n C C n l l ; 0 C C C x O         . 0 C z r i ) > ; = = = = = ; = ; ; ; 5 5 5 w * 0 C C C c % ",
"# q C C C Z _  .{ ] _ ~ ~ W A A C C C v z l j 5 0 C C C x O         X 0 z r w t ) > = = = = = ; = ; ; 5 5 5 7 7 w * 0 C C C c % ",
"# q C C C Z _  .` ` ` Q Q F A A C C v l j j r ; t C C C x O         . 5 r w w t ) > = = = = ; = ; ; 5 5 5 5 7 w r * q C C C x % ",
"# q C C C Z _ { ` ^ Q W F A n n n n l j r w r = 0 C C C x O         X ; w 7 7 t ) > = = = = = ; ; 5 5 5 7 w w r r * 0 C C C c % ",
"# 0 C Z S Z _ _ ( ~ Q F D n A n n v j r r r w ; 0 C Z S x O         . = w w 7 t ) > = = = ; ; ; ; 5 5 7 7 w w r j * y C Z S c % ",
"# 0 C I ] Z _ ( Q Q W A n A n n j l r r w 7 7 = y n I ] x O         . ; 5 8 m 0 ) > = ; = ; 5 ; 5 7 5 7 w r r j j = 0 C Y ] c % ",
"# q v w M Z _ ~ W D A C C n v l j r r w w 7 7 = 0 v r M x O         . = 7 ; 7 i ) > = = ; ; ; 5 5 7 7 w r r r j z = 0 v r M c % ",
"# y n v C Z ) ^ ^ ~ T T ~ T T Y U I I I K I V 8 0 C v C x O         . = 7 w r x ) K J K K K K K K K I I U Y Y Y L 8 0 C v C x % ",
"# q C C C C T T ! ~ ~ T T T T T T T T T T T L b c C C C x O         . ; 7 r j M T T T T ~ T T T ~ T T T T T ~ T L b c C C C x % ",
"# q C C C C C C D C C C C C Z S C C C C C Z S C C C C C x O         . = r j n C C Z S C C C C C Z S C C C C C Z S n C C C C c % ",
"# y C C C C C M } S C C C C I ] C C C C C I ] C C C C C x O         . ; j n C C C M } S C C C C U ] C C C C C I ] C C C C C c % ",
"# 9 C C C C b r i C C C C z w M C C C n v w M C C C C C c +         . 5 b C C C n r i C C C C v w M C C C C z w M C C C C C x % ",
"1 q M Z M Z Z c M Z Z C N M M C C Z N C M b M Z Z C C N f +       . X q C Z C N Z b M M M Z N n b C C N N Z M b C C C N Z N m 2 ",
"3 3 4 4 4 4 4 4 4 4 4 4 4 4 4 4 4 4 4 4 4 4 4 4 4 4 4 4 1 # # # # # @ < 3 4 4 4 4 4 4 4 4 4 4 4 4 4 4 4 4 4 4 4 4 4 4 4 4 4 4 3 "
};
