/* XPM */
static char *result[] = {
/* columns rows colors chars-per-pixel */
"64 64 169 2 ",
"   c #3F3F15",
".  c #303022",
"X  c #3A3E3E",
"o  c #4A4A07",
"O  c #56570D",
"+  c #535313",
"@  c #56561C",
"#  c #6F700F",
"$  c #7E7F03",
"%  c #676717",
"&  c #7E7E1B",
"*  c #555C21",
"=  c #454537",
"-  c #045352",
";  c #005E5E",
":  c #3A4343",
">  c #3E4949",
",  c #0C605F",
"<  c #016262",
"1  c #026D6D",
"2  c #0A706F",
"3  c #017474",
"4  c #0C7272",
"5  c #007C7C",
"6  c #097D7D",
"7  c #187876",
"8  c #397466",
"9  c #39796C",
"0  c #217474",
"q  c #387D71",
"w  c #444646",
"e  c #474B4B",
"r  c #4B4C4B",
"t  c #56564B",
"y  c #4E5454",
"u  c #555656",
"i  c #565D5D",
"p  c #5B5F5F",
"a  c #5B6060",
"s  c #666666",
"d  c #6A6A66",
"f  c #696969",
"g  c #727266",
"h  c #75756C",
"j  c #727271",
"k  c #757979",
"l  c #7D7E7E",
"z  c #26847F",
"x  c #338178",
"c  c #628D6A",
"v  c #989801",
"b  c #9E9E15",
"n  c #BDBD01",
"m  c #B6B616",
"M  c #909525",
"N  c #A3A624",
"B  c #AFB223",
"V  c #CFCF01",
"C  c #D3D301",
"Z  c #D9D901",
"A  c #C5C512",
"S  c #D5D71D",
"D  c #E1E103",
"F  c #EDEE1A",
"G  c #CFD121",
"H  c #D1D12E",
"J  c #EEEE33",
"K  c #88A869",
"L  c #008383",
"P  c #088282",
"I  c #018C8C",
"U  c #088D8D",
"Y  c #138B8B",
"T  c #1B8D8C",
"R  c #009393",
"E  c #0D9393",
"W  c #009B9B",
"Q  c #0C9A9A",
"!  c #1A9595",
"~  c #169C9C",
"^  c #1C9B9B",
"/  c #348C83",
"(  c #279590",
")  c #2C9692",
"_  c #259B9B",
"`  c #2B9E9E",
"'  c #01A4A4",
"]  c #0DA4A4",
"[  c #04A8A8",
"{  c #0EAAAA",
"}  c #16A3A3",
"|  c #1CA3A3",
" . c #16ADAD",
".. c #1CAEAE",
"X. c #1DB0B0",
"o. c #24A5A4",
"O. c #27A8A7",
"+. c #22ACAC",
"@. c #2AACAC",
"#. c #35A4A4",
"$. c #35ABAB",
"%. c #38AAAA",
"&. c #2DB0AD",
"*. c #23B3B3",
"=. c #2CB2B2",
"-. c #27B8B8",
";. c #28B8B8",
":. c #35B5B5",
">. c #31BABA",
",. c #3BBDBD",
"<. c #519887",
"1. c #48A4A4",
"2. c #56A7A7",
"3. c #56ABAB",
"4. c #40B1B1",
"5. c #4AB6B6",
"6. c #42BDBD",
"7. c #4ABEBE",
"8. c #56B2B2",
"9. c #56BABA",
"0. c #59BFBF",
"q. c #67AEAE",
"w. c #69BBBB",
"e. c #75B3B3",
"r. c #74BFBF",
"t. c #7EB9B9",
"y. c #43C0C0",
"u. c #4CC3C3",
"i. c #50C4C4",
"p. c #59C5C5",
"a. c #64C7C7",
"s. c #6BC5C5",
"d. c #66C8C8",
"f. c #6DC9C9",
"g. c #74C5C5",
"h. c #76CBCB",
"j. c #79CCCC",
"k. c #7FD2D2",
"l. c #818585",
"z. c #898989",
"x. c #8B9292",
"c. c #949696",
"v. c #9C9C9C",
"b. c #9EA5A5",
"n. c #80B7B7",
"m. c #87BABA",
"M. c #89BEBE",
"N. c #A2A3A3",
"B. c #ADAEAE",
"V. c #B1B2B2",
"C. c #B9B9B9",
"Z. c #82CECE",
"A. c #83D0D0",
"S. c #8DD4D4",
"D. c #94D5D5",
"F. c #98D7D7",
"G. c #95DADA",
"H. c #9CDDDD",
"J. c #A0DFDF",
"K. c #A5E1E1",
"L. c #ACE4E4",
"P. c #B2E4E4",
"I. c #B4E8E8",
"U. c #BAEBEB",
"Y. c #C3C5C5",
"T. c #C8CACA",
"R. c #D6D8D8",
"E. c #CBF1F1",
"W. c #D3F4F4",
/* pixels */
"X X X X X X X X X X X X X X X X X X X X X X X X X X X X X X X X X X X X X X X X X X X X X X X X X X X X X X X X X X X X X X X X ",
"X 2 4 4 4 2 3 2 2 3 2 2 3 2 2 3 3 3 4 3 3 2 4 3 3 4 3 3 3 4 3 2 2 3 4 3 3 3 3 2 3 4 3 4 2 3 3 3 2 3 3 4 4 3 3 2 2 3 4 3 3 4 2 w ",
"X P L 5 L L L _ L L 5 L L L L _ P 5 L L 5 L 5 _ L 5 5 P 5 L L _ P 5 L 5 L 5 6 _ L 5 L 5 L 5 L _ L 5 5 L 5 L 5 _ L 5 L 5 L 5 4 > ",
": U R R R I 5 I R R R R R I 5 I R R R R R I 5 U R R R R R R L R R R R R R R 5 U R R R R R I 5 U R R R R R R 5 U R R R R R R 6 : ",
": ' [ [ [ W L I ' ' ' [ ' W L R W ' ' [ ' W L I ' ' ' ' ' W I R ' ' ' [ ' W L R ' ' ' ' ' W L I ' ' ' ' ' W L R ' ' ' [ [ ' P X ",
": *.*.*.*.=.6 < < < < < ; ; ; ; ; ; < ; ; ; ; ; ; ; ; ; < ; ; ; < < < < ; < ; ; < < < < < < < < < < < 1 < < < < 1 1 *.*.*.*.U X ",
": +.*.:.*.,.$.I R I I L L L L L L 5 5 3 3 3 3 3 3 3 3 3 5 5 L L 5 L L L L L I I R R ~ } } }  .$.@.$.5.0.s.0.h.Z.Z.4 +.*.:.*.U X ",
"> *.+.D.:.,.:.' ' R R R L L L 5 5 5 3 5 3 3 3 3 5 5 5 5 5 5 L 5 L I I R R W W W [ ]  .*.*.-.>.,.i.a.f.j.G.G.K.L.K.0 *.+.D.>.U X ",
"> +.W ~ *.,.:.' W R I L L L 5 L 5 3 3 3 3 3 3 3 5 5 5 5 L 5 L L I I R R R W ' '  .X.*.-.-.>.,.u.p.h.j.A.H.K.L.I.P.0 ..W ~ *.U X ",
": +. ...*.,.$.R I I I L L L 5 5 5 5 3 3 3 3 3 5 5 5 5 5 L L L I I R R R W ' ]  .*.X.X.-.,.y.u.f.f.A.G.H.K.L.U.U.D.2 *. ...*.U X ",
"> *.*.*.*.,.$.R R I L L L 5 5 5 3 3 3 3 3 3 5 5 5 5 5 L L L I I R R R W W [ { X.-.X.-.-.y.u.i.j.j.S.G.K.L.I.U.K.j.4 +.*.*.*.U X ",
": *.*.*.*.,.$.I L L L L 5 5 5 3 3 3 3 3 3 5 5 5 5 5 5 L I L I R R W W ' [  .X.X.*.-.y.,.u.a.h.A.S.J.K.P.U.U.L.K.g.2 *.*.*.*.U X ",
": *.*.*.*.,.#.I L L L 5 5 5 5 3 3 3 3 3 5 5 5 5 L L L L I I I R R W ' ] [ X.X.-.*.-.,.u.p.f.j.S.G.J.K.I.U.K.K.A.8.3 +.*.*.X.U : ",
": *.*.*.*.,.$.L L 5 5 5 3 3 5 1 3 3 3 5 5 5 5 5 5 L L I I R R R W ' [ { *.*.*.-.,.y.u.p.j.k.A.H.K.I.U.U.L.H.G.j.8.1 *.*.*.*.U : ",
": +.X.:.*.,.#.L L 5 5 5 5 3 1 5 3 5 5 5 5 5 5 L L L I I R R R W W [ { X.*.-.-.>.y.u.a.f.k.G.G.L.L.U.U.K.K.G.A.a.8.1 *.*.:.*.U X ",
"> *.+.D.:.,.$.5 L 5 5 3 3 1 3 3 3 3 5 5 5 5 L L L I I I R R W ' [ { X.*.*.-.;.,.u.u.h.j.A.G.J.L.I.U.L.K.S.j.d.p.%.1 *.| D.:.U : ",
"> ..W ~ *.,.#.5 5 5 3 3 3 3 3 3 5 5 5 5 L L L L I I R R W W ' '  .X.-.*.-.y.,.u.f.f.A.S.J.L.L.U.U.I.J.S.k.f.f.i.$.1 ..W ! *.U X ",
": +. ...*.,.#.5 5 3 3 3 3 3 3 5 5 5 5 5 L 5 L L I I R R W W ' {  .*.*.-.-.y.u.p.f.k.S.G.J.L.I.U.L.G.S.j.f.i.u.>.$.1 .. .X.*.U : ",
"> +.*.*.+.,.#.5 3 3 3 3 3 3 5 5 5 5 L L L L R I I R R W ' '  .*.-.*.-.,.y.u.a.h.A.S.J.K.I.U.I.L.L.G.k.f.p.u.y.>.} 1 *.*.*.*.U X ",
"> *.*.*.*.,.#.5 3 3 3 3 3 5 5 5 5 5 5 L L I I R R W W ' ' { X.*.*.-.>.,.u.d.f.j.G.G.K.K.I.U.L.K.A.A.a.p.u.,.>.*.~ 1 *.*.*.X.U X ",
": *.*.*.*.,.#.3 3 3 3 5 5 5 5 5 L L L L L L R W R W ' ' { X.X.*.-.>.,.u.p.h.h.A.J.J.L.I.U.L.H.S.j.f.p.u.y.>.-.X.~ 1 *.*.*.*.U X ",
": +.*.*.*.7.1.1 3 3 5 3 5 5 5 5 L L L L R R R W W ' '  .*.*.*.-.>.y.u.d.f.k.G.H.K.L.U.U.L.K.G.A.f.d.u.,.;.-.-.*.~ 1 +.*.*.X.U X ",
"> *.*.:.*.0.2.3 3 3 5 5 5 5 5 L L L I I I I W W ' ' {  .*.*.-.-.,.u.i.f.k.S.G.K.L.U.U.L.L.S.j.a.i.u.,.>.-.*.X.[ R 1 *.*.:.*.U : ",
": *.+.D.:.s.q.5 5 3 5 5 5 5 L L L L I L W W W W [ X.X.X.-.-.,.y.u.p.h.A.S.J.K.L.U.U.L.J.G.A.a.d.u.u.>.-.*.X. .[ R < +.| D.>.U X ",
": ..W ~ *.Z.n.5 5 3 5 5 z L L L I L R W W W ' ' { *.*.*.-.>.y.u.a.f.A.S.G.K.K.I.U.K.K.S.j.d.p.u.>.-.*.*.X.[ [ ' R < ..I ~ ..U X ",
": *. ...*.S.m.3 5 5 5 L 5 L L L I R R R W W ' {  .*.*.-.>.,.u.u.h.j.A.G.K.I.I.U.L.L.G.h.f.d.u.y.>.-.*.X. .[ ' W I < +... .' U X ",
": *.*.*.*.A.M.5 5 5 5 L L I I I T / ^ _ | +.@.$.=.*.-.,.,.u.f.f.k.S.J.L.L.U.U.I.K.S.A.d.a.u.,.>.-.-.*.{ [ ' ' R I < *...' W L X ",
": *.*.*.*.S.M.5 L 5 5 L L I P i l l z.<.l.l.l.l.x.>.-.y.u.p.f.k.S.G.J.L.I.U.K.H.G.j.a.p.u.,.-.-.X.X.{ [ ' W W R L < ..' W I U X ",
"> *.*.*.*.A.M.5 5 / / / T R z > s f s s s s s s l.7.y.u.a.j.A.S.H.K.I.U.U.I.G.S.A.a.f.u.y.>.*.*.*.X.[ ' ' W R R 5 < ' W I I P X ",
": +.*.*.*.S.M.5 7 N F F K I L e s s s s s s s s l.y.u.a.f.j.G.G.K.K.I.U.K.J.S.k.f.u.u.>.,.-.*.*.[ [ ' W W R R L 5 ; R R I R L : ",
"> +.*.:.*.S.m.5 , # Z D c R z e s s s s s s s s l.i.p.j.j.A.H.J.L.U.U.L.K.S.j.f.p.u.y.-.-.*.....' ' ' W R R I L 5 ; I I U R L : ",
"> *.+.D.:.S.M.3 - > C S ( W I > s s s s s s s s l.f.f.A.G.H.K.L.U.U.I.K.G.A.f.a.u.y.>.-.*.*.{ ' ' ' W R R I L L 5 < I 5 +.E P : ",
"> +.W ~ *.Z.t.5 5 8 C S ( W I e s s d d d g d d x.j.k.S.G.J.L.I.U.K.H.G.j.d.i.u.,.-.-.*.X.{ ' ' W W R R I I L L 3 ; R 5 L R U X ",
": +. ...*.0.2.5 L 8 C G _ ' U e s s % b A J g f c.k.S.H.L.L.U.U.L.K.G.k.a.d.u.u.>.*.*.X. .[ ' ' W R R I L L L 5 3 ; I I R W U X ",
"> *.*.*.] ' R L R 9 C G o.] R e s t + =   H g j b.S.G.J.K.I.U.L.K.k.j.a.p.u.>.,.*.-.X.[ [ ' W W R R I L L L 5 5 3 ; I R W { U : ",
": *.*.*.' ' R L W 9 V A o.{ ! e s r + r . A g l V.J.J.I.U.U.I.G.G.h.f.a.u.y.-.-.*.X. .[ ' ' W R R I L L L L 5 5 3 < R W { X.U : ",
": *.*.*.W W R I W q n B O.X.! e s w + j u m h c.Y.K.P.U.U.L.K.G.A.d.a.u.,.>.-.*.*.{ [ ' ' W R R I L L L 5 5 5 3 3 ; W { *.X.U X ",
": *.*...' ' R L W q v N &.*.! e s X o @ @ & k N.Y.P.I.I.P.K.S.j.a.i.u.,.>.-.*.X.{ ' ' W R R R L I L L 5 5 5 5 3 3 < { *.X.' U X ",
": *.*.:.] R W I [ x v M :.*.! e s w X r u s l N.T.U.U.I.H.S.A.f.f.u.y.>.-.*.*.X.' ' ' W R R I I L L L 5 5 5 5 3 1 < +.X.O...U : ",
": *.+.D.o.W R L Q * $ $ <.*.^ e s s s s s j z.B.R.U.L.G.S.h.f.u.i.>.>.-.*.*.[ [ ' W W R I I L L 5 5 5 5 3 3 3 3 1 <  .} D.:.U : ",
": ..W ~ ' W R L 1 X O * ) 6.` w s s s f j z.v.C.R.P.L.G.A.f.a.u.y.;.-.-.X.X.[ ' W W R R I I L L 5 5 5 5 5 3 3 3 3 < ' W ~ *.U X ",
": *. ...' R R 3 < - 2 _ >.,.#.e s f s j l v.B.N.T.K.A.A.d.p.u.,.>.-.-.X.{ ' ' ' W R R I L L L 5 5 5 3 5 3 3 3 3 1 < {  ...+.U X ",
"> *.*.*.' W R 5 5 5 X.;.,.u.#.e p s j l v.B.v.z.B.S.j.s.p.u.y.>.-.*.X. .[ ' ' W R I I L L L L 5 5 5 3 3 3 3 3 3 3 < *.*.*.X.U : ",
": *.*.*.W ' R 5 L ..,.y.u.f.1.: u u p j l.l f s b.A.f.a.u.,.>.-.*.X. .[ ' ' R R R I L L L 5 5 5 3 5 3 3 3 3 5 3 3 < +.*.*.*.U X ",
": *.*.*.' ] Q R X.-.y.u.i.f.w.q.e.e.n.M.m.e.n.q.h.d.u.u.,.>.*.*.X.[ [ ' W W R R I L L L 5 5 5 3 3 3 3 3 3 5 3 3 3 < +.*.*.*.U X ",
": *.*.*.+.4.%.+.y.,.u.a.h.A.D.H.K.P.U.U.U.J.F.Z.a.f.u.u.>.-.-.X. .[ ' W W W I I I L L 5 5 5 5 5 3 5 3 3 3 3 5 5 3 < *.*.*.*.U : ",
"> *.*.:.*.g.j.;.y.u.p.f.j.S.G.K.K.I.U.J.J.S.h.a.p.u.>.-.*.X.X.[ [ ' W W I I I I L 5 L 5 5 5 3 3 3 3 3 3 3 5 5 L 5 < *.*.:.*.U : ",
": *.+.D.:.S.G.y.u.p.j.A.A.H.J.I.I.U.L.L.F.j.f.a.u.,.,.-.-.X. .[ ' ' W R R I L L L 5 5 5 5 3 3 3 3 3 3 3 5 5 5 5 5 < +...D.:.U X ",
": ..W ~ +.S.D.u.a.f.A.G.G.K.L.U.I.I.K.S.A.d.a.y.,.,.-.*.*.{ [ ' ' W W R I L L L 5 5 5 5 5 3 3 3 3 3 3 5 5 5 L L 5 < X.W ~ *.U X ",
"> +. ...*.S.D.i.h.j.A.G.J.P.U.U.K.H.G.j.d.p.u.,.-.-.X.X.{ ' ' W W R I I L L 5 L 5 5 5 3 3 3 3 3 5 3 5 5 5 L L I 5 < +. .X.*.U X ",
": *.*.*.*.A.H.j.Z.S.J.K.L.U.U.L.K.S.k.a.f.u.y.,.X.-.-. .' ' ' W R I I L L L 5 5 5 5 5 3 3 3 3 3 3 5 5 5 L L L I L < *.*.*.X.U X ",
": *.*.*.*.S.H.j.S.G.J.L.I.U.L.L.A.j.f.i.u.>.,.-.-.*.[ [ ' W W R W L L L L L 5 5 3 3 3 3 3 3 3 3 5 5 5 L L I I I L < *.*.*.*.U : ",
"> *.*.*.*.S.K.S.J.J.I.U.U.P.H.G.A.f.a.u.y.-.-.*.X.X.' ' ' W W I I L L L 5 5 5 5 5 3 3 3 3 5 3 5 5 5 L L L I R R I < *.*.*.*.U X ",
": *.*.*.@.Z.L.G.K.K.U.U.K.K.S.k.d.p.u.,.>.-.X.*.{ [ ' ' W I R I L L L L 5 5 5 3 3 3 3 3 3 3 5 5 L L L L I R R W R < +.*.*.*.U : ",
": +.*.:.*.S.L.J.L.U.U.L.K.S.j.f.p.u.,.>.-.*.X.{ [ ' W W R R I L L L 5 5 5 3 3 3 3 3 3 3 3 5 5 L 5 L L I I I W W R < +.*.:.*.U X ",
"> *.+.J.7.D.I.L.U.U.I.K.S.k.f.a.u.y.;.*.-.*. .[ ' ' W R R I L L L 5 5 5 5 5 3 3 3 3 5 3 5 5 5 L L I I R W W ' ' R < X.+.D.:.U : ",
"> +.W #.p.P.E.I.U.K.G.G.j.f.u.u.,.>.-.-.X.[ [ ' W W R I I L L 5 5 5 5 3 3 3 3 3 1 5 3 5 5 5 5 L L L R R W W ' [ Q < ..' ~ *.U X ",
": *.=.p.g.P.W.U.L.K.J.G.S.S.k.k.j.j.h.h.h.f.f.r.r.r.w.8.3.8.$.%.%.3.2.2.3.2.2.` ~ ` 2.3.3.3.3.8.8.8.8.9.9.9.9.9.+.1 *. .X.*.U X ",
"> =.p.h.j.F.L.D.k.h.h.j.h.h.h.h.h.h.h.h.h.h.h.h.h.h.s.9.9.8.$.$.$.8.8.9.0.0.0.=. .:.0.0.0.0.0.0.0.0.0.0.0.0.0.0.;.| +.*.*.*.U X ",
"> p.h.h.j.h.f.u.*.*.*.*.*.*.*.>.*.*.*.*.*.*.*.:.*.*.{ W R I I E I R ' { *.*.X.O.X.*.*.*.*.*.*.:.*.*.*.*.*.+.*.:.*.*.*.*.*.X.U : ",
"> h.g.h.h.f.7.D.:.*.*.*.*.*...D.:.*.*.*.*.*.+.D.:.{ W R I I L +.E ' { +.*...~ D.:.*.*.*.*.*.+.F.:.*.*.*.*.*...D.:.*.*.*.*.*.U : ",
"w h.h.h.f.6.Q ~ *.*.*.*.*.X.W ~ *.*.*.*.*.X.W ~ { ' R I I I 5 L ' { *.*.X.' W ~ *.*.*.*.*.X.W ~ *.*.*.*.-.X.W ~ *.*.*.*.*.*.U X ",
"y g.g.f.7.@...+.@.*.=.*.*.@...+.*.@.*.@.@.*. .] Q U E Y U Y E Q } +.*.+.] } ..+.*.=.@.@.*.*...+.@.*.*.@.*.@...+.*.@.*.@.@.*.Y e ",
"i i a i i i i i i i i i i i i i i i p i i i i i i i u i i u i i i i i i i i i i i i i i i i i i i i i i i i i i i i i i i i i u "
};
