/* XPM */
static char *_727_cef2149ffd9c977c9f632055e829e835156137893c59f776c50b0f36352b6be0[] = {
/* columns rows colors chars-per-pixel */
"27 49 48 1 ",
"  c black",
". c #00001C",
"X c #00002C",
"o c #000034",
"O c #700000",
"+ c #543C1C",
"@ c #404000",
"# c #585400",
"$ c #706C00",
"% c #5C4020",
"& c #6C4824",
"* c #000064",
"= c #00007C",
"- c #004040",
"; c #005858",
": c #006C6C",
"> c #007070",
", c #007C7C",
"< c #A80000",
"1 c #E00000",
"2 c #A85400",
"3 c #80502C",
"4 c #885830",
"5 c #9C6038",
"6 c #A0643C",
"7 c #FC7800",
"8 c #BC7848",
"9 c #C87C4C",
"0 c #848400",
"q c #9C9C00",
"w c #D08050",
"e c #DC8854",
"r c #FC9C60",
"t c #0000A8",
"y c #0000B0",
"u c #0000BC",
"i c #008484",
"p c #008C8C",
"a c #009898",
"s c #00A4A4",
"d c #20B0B0",
"f c #20B4B4",
"g c #48C0C0",
"h c #74C8C8",
"j c #FCB890",
"k c #9CDCDC",
"l c #B8E8E8",
"z c white",
/* pixels */
"zzzzzzzzzzzzzzzzzzzzzzzzzzz",
"zzzzzzzzzzzzzzzzzzzzzzzzzzz",
"zzzzzzzzO1uu===***O:zzzzzzz",
"zzzzzzzz;t<<<<<<<<--zzzzzzz",
"zzzzzzzz;tt;;;ii;; -zzzzzzz",
"zzzzzzzzzq$>-------zzzzzzzz",
"zzzzzzzzzqr0;>>;::@zzzzzzzz",
"zzzzzzzzz#r85y44%&+zzzzzzzz",
"zzzzzzzzzz8jjkiww8+zzzzzzzz",
"zzzzzzzzz 4rg--iw4 zzzzzzzz",
"zzzzzzzzz 39g--,93 zzzzzzzz",
"zzzzzzfkkffk>ii>kkkkkzzzzzz",
"zzzzzfkkkkkjjjw6sskkkfzzzzz",
"zzzzzfkkkkkjjw66pssfffzzzzz",
"zzzzzzggddsjjw66ppssaizzzzz",
"zzzzzzfssp,->pahhfa,;;zzzzz",
"zzzzzzfsppp-->pfffap,;zzzzz",
"zzzzzzfkappp-->paapp,;zzzzz",
"zzzzzzzkfaipp---ippi,;zzzzz",
"zzzzzzzkfaaiai---pi,;zzzzzz",
"zzzzzzzzk;i;ii;---ip;zzzzzz",
"zzzzzzzz  ---e85---  zzzzzz",
"zzzzzzzz-----72&---  zzzzzz",
"zzzzzzzzddddpp>pppp,>zzzzzz",
"zzzzzzzzdllffp,flllsp,zzzzz",
"zzzzzzzflllffp,kggggspzzzzz",
"zzzzzzzfllffs,>pkkkkkfzzzzz",
"zzzzzzzpllffs,>skddddppzzzz",
"zzzzzzzkppppp>isikkkkdpzzzz",
"zzzzzzzkksap,,isdkkkkfpzzzz",
"zzzzzzklfsap,,isfhkkkgszzzz",
"zzzzzzllfspp,,zsfhkkkkhszzz",
"zzzzzzhlfspp,;zzffhkkkhszzz",
"zzzzzhhffsp,,;zzsfhkkkhhzzz",
"zzzzzhfsdpip,;zzssgkkkhhzzz",
"zzzzzfaissa;>;zzzsgkkkkhhzz",
"zzzzzp,,,,p,;zzzzghkgggdkiz",
"zzzzz ,,,,;;-zzzzggfddaa>zz",
"zzzzz  >>>; zzzzz,>aaaai;zz",
"zzzzz  o .. zzzzzz,i,;>;:zz",
"zzzzz    . zzzzzzzooX .  zz",
"zzzzzz      zzzzzzzoX..  zz",
"zzzzzz      zzzzzzzooX.. zz",
"zzzzzo  X.  zzzzzzzz XX. zz",
"zzzzzoXXX- zzzzzzzzz     zz",
"zzzzzXXXXXzzzzzzzzzzoo.   z",
"zzzzzzzzzzzzzzzzzzzzooo.  z",
"zzzzzzzzzzzzzzzzzzzooooX. z",
"zzzzzzzzzzzzzzzzzzz XX... z"
};
