/* XPM */
static char *_1846_de8df61b5b8b96a4f2d48ac14734e2ba5a692d2894f0695de79dbeee9934f145[] = {
/* columns rows colors chars-per-pixel */
"27 49 48 1 ",
"  c black",
". c #00001C",
"X c #00002C",
"o c #000034",
"O c #700000",
"+ c #7C0000",
"@ c #543C1C",
"# c #585400",
"$ c #5C4020",
"% c #6C4824",
"& c #000064",
"* c #00007C",
"= c #004040",
"- c #005858",
"; c #006C6C",
": c #007070",
"> c #007C7C",
", c #880000",
"< c #A80000",
"1 c #BC0000",
"2 c #C80000",
"3 c #E00000",
"4 c #EC0000",
"5 c #FC2020",
"6 c #A85400",
"7 c #9C6038",
"8 c #A0643C",
"9 c #FC7800",
"0 c #BC7848",
"q c #FC5C5C",
"w c #FC7C7C",
"e c #B4AC00",
"r c #DC8854",
"t c #FCF440",
"y c #0000A8",
"u c #0000BC",
"i c #008484",
"p c #008C8C",
"a c #009898",
"s c #00A4A4",
"d c #20B0B0",
"f c #20B4B4",
"g c #48C0C0",
"h c #74C8C8",
"j c #FCB890",
"k c #9CDCDC",
"l c #B8E8E8",
"z c white",
/* pixels */
"zzzzzzzzzzzzzzzzzzzzzzzzzzz",
"zzzzzzzzzzzzzzzzzzzzzzzzzzz",
"zzzzzzzO3uu***&&&O;zzzzzzzz",
"zzzzzzz-y<<<<<<<<==zzzzzzzz",
"zzzzzzz-yy---ii-- =zzzzzzzz",
"zzzzzzzz#$OOOOO==$zzzzzzzzz",
"zzzzzzzz4O,111,O4@zzzzzzzzz",
"zzzzzzzz#415551qO@zzzzzzzzz",
"zzzzzzzzO1qqwwq1,@zzzzzzzzz",
"zzzzzzz4415wtew51,zzzzzzzzz",
"zzzzzzzz,15wetw51,zzzzzzzzz",
"zzzzzfkkO15qwwqqOk4kzzzzzzz",
"zzzzfkkkk415555O2kkkfzzzzzz",
"zzzzfkkk4kO,5,Opssfffzzzzzz",
"zzzzzggddsjj188ppssaizzzzzz",
"zzzzzfssp>=:+ahhfa>--zzzzzz",
"zzzzzfsppp==:pfffap>-zzzzzz",
"zzzzzfkappp==:paapp>-zzzzzz",
"zzzzzzkfaipp===ippi>-zzzzzz",
"zzzzzzkfaaiai===pi>-zzzzzzz",
"zzzzzzzk-i-ii-===ip-zzzzzzz",
"zzzzzzz  ===r07===  zzzzzzz",
"zzzzzzz=====96%===  zzzzzzz",
"zzzzzzzddddpp:pppp>:zzzzzzz",
"zzzzzzzdllffp>flllsp>zzzzzz",
"zzzzzzflllffp>kggggspzzzzzz",
"zzzzzzfllffs>:pkkkkkfzzzzzz",
"zzzzzzpllffs>:skddddppzzzzz",
"zzzzzzkppppp:isikkkkdpzzzzz",
"zzzzzzkksap>>isdkkkkfpzzzzz",
"zzzzzklfsap>>isfhkkkgszzzzz",
"zzzzzllfspp>>zsfhkkkkhszzzz",
"zzzzzhlfspp>-zzffhkkkhszzzz",
"zzzzhhffsp>>-zzsfhkkkhhzzzz",
"zzzzhfsdpip>-zzssgkkkhhzzzz",
"zzzzfaissa-:-zzzsgkkkkhhzzz",
"zzzzp>>>>p>-zzzzghdgggdkizz",
"zzzz >>>>--=zzzzgdpddaa:zzz",
"zzzz  :::- zzzzz>:paaai-zzz",
"zzzz  o .. zzzzzz>i>-:-;zzz",
"zzzz    . zzzzzzzooX .  zzz",
"zzzzz      zzzzzzzoX..  zzz",
"zzzzz      zzzzzzzooX.. zzz",
"zzzzo  X.  zzzzzzzz XX. zzz",
"zzzzoXXX= zzzzzzzzz     zzz",
"zzzzXXXXXzzzzzzzzzzoo.   zz",
"zzzzzzzzzzzzzzzzzzzooo.  zz",
"zzzzzzzzzzzzzzzzzzooooX. zz",
"zzzzzzzzzzzzzzzzzz XX... zz"
};
