/* XPM */
static char *_669_24a6268e2f88931d4d0b65849030c15af18be671f1aec9ed9d8ca863484eb3f9[] = {
/* columns rows colors chars-per-pixel */
"27 49 48 1 ",
"  c black",
". c #00001C",
"X c #00002C",
"o c #000034",
"O c #700000",
"+ c #543C1C",
"@ c #5C4020",
"# c #6C4824",
"$ c #004040",
"% c #005858",
"& c #006C6C",
"* c #007070",
"= c #007C7C",
"- c #A80000",
"; c #E00000",
": c #FC0000",
"> c #A85400",
", c #80502C",
"< c #885830",
"1 c #905C34",
"2 c #9C6038",
"3 c #A0643C",
"4 c #FC7800",
"5 c #A86840",
"6 c #BC7848",
"7 c #FC5C5C",
"8 c #C87C4C",
"9 c #848400",
"0 c #E88C58",
"q c #F0945C",
"w c #FCA85C",
"e c #FC9C60",
"r c #FCFC54",
"t c #0000A8",
"y c #0000B0",
"u c #008484",
"i c #008C8C",
"p c #009898",
"a c #00A4A4",
"s c #20B0B0",
"d c #20B4B4",
"f c #48C0C0",
"g c #74C8C8",
"h c #FCB890",
"j c #9CDCDC",
"k c #B8E8E8",
"l c #D8FCFC",
"z c white",
/* pixels */
"zzzzzzzzO;:7:;;;---Ozzzzzzz",
"zzzzzzzz% iipllpi%$%zzzzzzz",
"zzzzzzzz%tt        %zzzzzzz",
"zzzzzzzzz%ufsi%%%%%zzzzzzzz",
"zzzzzzzzz@%%%%**%%@zzzzzzzz",
"zzzzzzzzz192y<<y291zzzzzzzz",
"zzzzzzzzzz6hhq5hh6zzzzzzzzz",
"zzzzzzzzzz<eq00qe<zzzzzzzzz",
"zzzzzzzzz ,8sjjs8, zzzzzzzz",
"zzzzzzzzz$,800008, zzzzzzzz",
"zzzzzzzi*$%11111@+i =zzzzzz",
"zzzzzzgli$%d$    s aaa=zzzz",
"zzzzgglld$$$ **   pjjggdzzz",
"zzzggljjli$ ppfpppfffgggdzz",
"zzgllljdff=$*fpfjjjjfpaggdz",
"zglllgsaffi$$*ifiiiid=adgdz",
"zllggsi%affi$$*ipffad=adggd",
"gljgsizuuuudi$$$uffaa=akkgd",
"ljlllzz%%ppupu$$$aai%zguagd",
"sjllllzz%%u%uu%$$$ui%z%aggd",
"zsllggzz  $$$rww$$$  zzaggd",
"zzsgeeeekkk$$4>#$$$  zzagda",
"zzzsee$$*dkkii*iiii=*zzaggd",
"zzzz36$$$*ikksadsppiu=zeee5",
"zzzzz3$$$$**skapspaiu=ze5e5",
"zzzzzzz$$$*****ispaiu=zzze5",
"zzzzzzzi**&ii**uspsiu=zzz55",
"zzzzzzzidddap=*%uuuu%*zzzz5",
"zzzzzzzsfkddpu%iisssauzzzzz",
"zzzzzzaskkfsiu%udjffauzzzzz",
"zzzzzzafkkfsi=%pdjgfaizzzzz",
"zzzzzzakkgdsi=%pdjjjdizzzzz",
"zzzzzzdkkgdsi%%pdjjjdpzzzzz",
"zzzzzzgkkkgpi%zpdjjjfazzzzz",
"zzzzzggkjjgii%zpfjjjfazzzzz",
"zzzzzgddddka=%zpfjjjdauzzzz",
"zzzzzddddda%*%zpfplksduzzzz",
"zzzzzidddpi=%zzzudsspp*zzzz",
"zzzzziiaai%%$zzz*ppppu%zzzz",
"zzzzzX%***% zzzzuu=%*%&zzzz",
"zzzzzXXoX.. zzzzooX . zzzzz",
"zzzzzXXoX.. zzzzooX.. zzzzz",
"zzzzzzooX.. zzzzooX.. zzzzz",
"zzzzzzX    zzzzz  XX. zzzzz",
"zzzzzzXXX..Xzzzzz     zzzzz",
"zzzzzzXooX. zzzzzoo. zzzzzz",
"zzzzzXoXXX. zzzzoooo. zzzzz",
"zzzzzXoXXX$ zzzzooooX. zzzz",
"zzzzzzXXXXXzzzzz XX... zzzz"
};
