/* XPM */
static char *_3186_9184cd55fb34a0ddeb9fdce00e1e3b4f0935960bc569575ce1c9386dec9be982[] = {
/* columns rows colors chars-per-pixel */
"30 49 51 1 ",
"  c black",
". c #00001C",
"X c #00002C",
"o c #000034",
"O c #543C1C",
"+ c #5C4020",
"@ c #6C4824",
"# c #000058",
"$ c #004040",
"% c #005858",
"& c #006C6C",
"* c #007070",
"= c #007C7C",
"- c #A80000",
"; c #E00000",
": c #FC0000",
"> c #9C4C00",
", c #A85400",
"< c #80502C",
"1 c #885830",
"2 c #905C34",
"3 c #9C6038",
"4 c #FC7800",
"5 c #B47044",
"6 c #BC7848",
"7 c #FC5C5C",
"8 c #C87C4C",
"9 c #B4AC00",
"0 c #D08050",
"q c #DC8854",
"w c #E88C58",
"e c #FCA85C",
"r c #FC9C60",
"t c #FCA470",
"y c #FCFC54",
"u c #0000A8",
"i c #008484",
"p c #008C8C",
"a c #009898",
"s c #00A4A4",
"d c #20B0B0",
"f c #20B4B4",
"g c #48C0C0",
"h c #74C8C8",
"j c #FCB080",
"k c #FCB890",
"l c #9CDCDC",
"z c #B8E8E8",
"x c #FCD8C4",
"c c #D8FCFC",
"v c white",
/* pixels */
"vvvvvvvvvvvvv7:;;;-vvvvvvvvvvv",
"vvvvvvvvvvv;-%&     vvvvvvvvvv",
"vvvvvvvvvv- u        vvvvvvvvv",
"vvvvvvvvvv%u>r9ttt1   vvvvvvvv",
"vvvvvvvvvv%+9jwt66j8+ vvvvvvvv",
"vvvvvvvvvv%29qjjkkjj2 vvvvvvvv",
"vvvvvvvvvvv%2qjjtxx8 vvvvvvvvv",
"vvvvvvvvvvvvqwjjjjw8vvvvvvvvvv",
"vvvvvvvvvvv jq5555w<vvvvvvvvvv",
"vvvvvvvvvv$$%5jw556Ovvvvvvvvvv",
"vvvvvvvvpp*$zg    Ozvvvvvvvvvv",
"vvvvvvccccp$%   z    vvvvvvvvv",
"vvvvccccccfa$$$zgzhhhs=vvvvvvv",
"vvvccccllczzz$$$zshccfspvvvvvv",
"vvkqqaclfsszzz$$$sghscaspvvvvv",
"vkq3+qasfpdzzzz$$$gghspssvvvvv",
"k31++p==psdhzzza$$$dga=iaavvvv",
"vd+++pvpassdhhsa=$$*sa=i==vvvv",
"vvaipvvfpassfdssp*$$*s%=ippvvv",
"vvvvvvvvfaaasasspa$$$%%%=ippvv",
"vvvvvvvvffa%$$$$yee$$%v=%=00pv",
"vvvvvvvvi= $$$$$4,@$$ vv=0*50v",
"vvvvvvvvv %pfffsfdaa% vvv**505",
"vvvvvvvvviflllllflllai%vvv**55",
"vvvvvvvvvilzzzlgfdllla=vvvvvvv",
"vvvvvvvv=lzzzzll==ffsli=vvvvvv",
"vvvvvvvvldfffdd===daapi=vvvvvv",
"vvvvvvvvdgccccdd*i==%& $vvvvvv",
"vvvvvvvvgcccccfspipssp=i%vvvvv",
"vvvvvvvvgcccclfsipadddaiivvvvv",
"vvvvvvvgccccchfsiaddddaiivvvvv",
"vvvvvvvgccccchfsiadhddaii%vvvv",
"vvvvvvvgcccclhfsvpdzhddii%vvvv",
"vvvvvvvccccclfsvvvadzzdp=%vvvv",
"vvvvvvcccccclssvvvhzzzzdi%vvvv",
"vvvvvccccccczpvvvvvddzaai%vvvv",
"vvvvvcfhhhfzz=vvvvo aaii%%vvvv",
"vvvvvvdhhhhii%vvvvoo  %%%%vvvv",
"vvvvvvpfhhhp=vvvoo o     vvvvv",
"vvvvvoppshp%%vvvoo  o   vvvvvv",
"vvvvvo#o    vvvvoo    vvvvvvvv",
"vvvvvoooX.. vvvvoo   vvvvvvvvv",
"vvvvvooX.. vvvvvoo   vvvvvvvvv",
"vvvvv     vvvvvv      vvvvvvvv",
"vvvvvooX..vvvvvvv     vvvvvvvv",
"vvvvvoooX. vvvvvvvvvvvvvvvvvvv",
"vvvv#oXXX. vvvvvvvvvvvvvvvvvvv",
"vvvvooXXX$ vvvvvvvvvvvvvvvvvvv",
"vvvvvvvvvvvvvvvvvvvvvvvvvvvvvv"
};
